<?xml version="1.0" encoding="utf-8"?>
<!-- Generator: Adobe Illustrator 22.0.1, SVG Export Plug-In . SVG Version: 6.00 Build 0)  -->
<svg version="1.1" id="Layer_1" xmlns="http://www.w3.org/2000/svg" xmlns:xlink="http://www.w3.org/1999/xlink" x="0px" y="0px"
	 viewBox="0 0 160.7 185.1" style="enable-background:new 0 0 160.7 185.1;" xml:space="preserve">
<style type="text/css">
	.st0{fill:#FFFFFF;}
</style>
<path class="st0" d="M14.3,31.4v128.8H145V31.4H14.3z M79.7,128.4c-18.3,0-33.1-14.6-33.1-32.6c0-18,14.8-32.6,33.1-32.6
	c18.3,0,33.1,14.6,33.1,32.6C112.8,113.8,98,128.4,79.7,128.4z M121.5,64.9c-6,0-10.9-4.8-10.9-10.8c0-5.9,4.9-10.8,10.9-10.8
	c6,0,10.9,4.8,10.9,10.8C132.4,60.1,127.5,64.9,121.5,64.9z"/>
</svg>
