<svg id="Layer_1" data-name="Layer 1" xmlns="http://www.w3.org/2000/svg" viewBox="0 0 2218.13 1178.55"><defs><style>.cls-1{fill:#231f20;}</style></defs><title>PSP_logo-Custom-Desktop-06</title><path class="cls-1" d="M513.62,818.79a12.56,12.56,0,0,1,2.72-4,12.72,12.72,0,0,1,4-2.72,12.85,12.85,0,0,1,9.94,0,13.18,13.18,0,0,1,4.09,2.72,12.64,12.64,0,0,1,2.75,4,12.88,12.88,0,0,1,0,10,13.16,13.16,0,0,1-2.75,4.08,12.75,12.75,0,0,1-4.09,2.75,12.66,12.66,0,0,1-14-2.75,13.07,13.07,0,0,1-2.72-4.08,12.88,12.88,0,0,1,0-10Z"/><path class="cls-1" d="M512.62,1019.22a12.62,12.62,0,0,1,6.76-6.76,12.73,12.73,0,0,1,9.94,0,13.18,13.18,0,0,1,4.09,2.72,12.64,12.64,0,0,1,2.75,4,12.88,12.88,0,0,1,0,10,13.16,13.16,0,0,1-2.75,4.08,12.92,12.92,0,0,1-4.09,2.75,12.85,12.85,0,0,1-9.94,0,12.52,12.52,0,0,1-4-2.75,13.22,13.22,0,0,1-2.71-4.08,12.76,12.76,0,0,1,0-10Z"/><path class="cls-1" d="M512.75,388.11a12.59,12.59,0,0,1,6.76-6.77,12.85,12.85,0,0,1,9.94,0,13.43,13.43,0,0,1,4.08,2.72,12.66,12.66,0,0,1,2.76,4.05,12.85,12.85,0,0,1,0,9.94,13,13,0,0,1-6.84,6.84,12.85,12.85,0,0,1-9.94,0,12.55,12.55,0,0,1-4-2.76,13.22,13.22,0,0,1-2.71-4.08,12.73,12.73,0,0,1,0-9.94Z"/><path class="cls-1" d="M1213.32,604.33a12.71,12.71,0,0,1,6.76-6.76,12.88,12.88,0,0,1,10,0,13.25,13.25,0,0,1,4.08,2.72,12.76,12.76,0,0,1,2.75,14,12.87,12.87,0,0,1-6.83,6.83,12.67,12.67,0,0,1-14-2.75,13.25,13.25,0,0,1-2.72-4.08,12.88,12.88,0,0,1,0-9.95Z"/><path class="cls-1" d="M1451,818.68a12.65,12.65,0,0,1,6.77-6.77,12.85,12.85,0,0,1,9.94,0,13.43,13.43,0,0,1,4.08,2.72,12.66,12.66,0,0,1,2.76,4,12.88,12.88,0,0,1,0,10,13,13,0,0,1-6.84,6.83,12.85,12.85,0,0,1-9.94,0,12.55,12.55,0,0,1-4-2.76,13.38,13.38,0,0,1-2.72-4.07,12.88,12.88,0,0,1,0-10Z"/><path class="cls-1" d="M1451,144.21a12.68,12.68,0,0,1,6.77-6.76,12.85,12.85,0,0,1,9.94,0,13.25,13.25,0,0,1,4.08,2.72,12.75,12.75,0,0,1,2.76,14,13,13,0,0,1-2.76,4.08,12.82,12.82,0,0,1-4.08,2.75,12.69,12.69,0,0,1-14-2.75,13.43,13.43,0,0,1-2.72-4.08,12.88,12.88,0,0,1,0-9.95Z"/><path class="cls-1" d="M1685.09,601.23a12.7,12.7,0,0,1,2.71-4,12.88,12.88,0,0,1,4-2.72,12.85,12.85,0,0,1,9.94,0,13.18,13.18,0,0,1,4.09,2.72,12.64,12.64,0,0,1,2.75,4,12.88,12.88,0,0,1,0,9.95,13.16,13.16,0,0,1-2.75,4.08,12.92,12.92,0,0,1-4.09,2.75,12.73,12.73,0,0,1-9.94,0,12.63,12.63,0,0,1-4-2.75,13.22,13.22,0,0,1-2.71-4.08,12.76,12.76,0,0,1,0-9.95Z"/><path class="cls-1" d="M1911.65,142.21a12.56,12.56,0,0,1,2.72-4,12.72,12.72,0,0,1,4-2.72,12.88,12.88,0,0,1,9.95,0,13.25,13.25,0,0,1,4.08,2.72,12.64,12.64,0,0,1,2.75,4,12.88,12.88,0,0,1,0,9.95,13.16,13.16,0,0,1-2.75,4.08,13,13,0,0,1-4.08,2.75,12.67,12.67,0,0,1-14-2.75,13.07,13.07,0,0,1-2.72-4.08,12.88,12.88,0,0,1,0-9.95Z"/><path class="cls-1" d="M1912.65,389.38a12.88,12.88,0,0,1,2.72-4.05,12.7,12.7,0,0,1,4-2.71,12.76,12.76,0,0,1,9.95,0,13.22,13.22,0,0,1,4.08,2.71,12.78,12.78,0,0,1,2.75,14,12.78,12.78,0,0,1-2.75,4.07,13,13,0,0,1-4.08,2.76,12.64,12.64,0,0,1-14-2.76,13.2,13.2,0,0,1-2.72-4.07,12.88,12.88,0,0,1,0-9.95Z"/><path class="cls-1" d="M278.17,1019.22a12.56,12.56,0,0,1,2.72-4,12.72,12.72,0,0,1,4-2.72,12.73,12.73,0,0,1,9.94,0,13.18,13.18,0,0,1,4.09,2.72,12.64,12.64,0,0,1,2.75,4,12.88,12.88,0,0,1,0,10,13.16,13.16,0,0,1-2.75,4.08,12.92,12.92,0,0,1-4.09,2.75,12.85,12.85,0,0,1-9.94,0,12.48,12.48,0,0,1-4-2.75,13.07,13.07,0,0,1-2.72-4.08,12.88,12.88,0,0,1,0-10Z"/><path class="cls-1" d="M278.17,819.79a12.67,12.67,0,0,1,2.72-4,12.89,12.89,0,0,1,4-2.72,12.85,12.85,0,0,1,9.94,0,13.35,13.35,0,0,1,4.09,2.72,12.75,12.75,0,0,1,2.75,4,12.88,12.88,0,0,1,0,10,13.16,13.16,0,0,1-2.75,4.08,13,13,0,0,1-4.09,2.76,12.63,12.63,0,0,1-14-2.76,13.07,13.07,0,0,1-2.72-4.08,12.88,12.88,0,0,1,0-10Z"/><path class="cls-1" d="M280.14,388.12a12.62,12.62,0,0,1,6.76-6.76,12.85,12.85,0,0,1,9.94,0,13.18,13.18,0,0,1,4.09,2.72,12.64,12.64,0,0,1,2.75,4,12.88,12.88,0,0,1,0,9.95,13.16,13.16,0,0,1-2.75,4.08,12.92,12.92,0,0,1-4.09,2.75,12.73,12.73,0,0,1-9.94,0,12.52,12.52,0,0,1-4-2.75,13.22,13.22,0,0,1-2.71-4.08,12.76,12.76,0,0,1,0-9.95Z"/><path class="cls-1" d="M747.06,1019.22a12.68,12.68,0,0,1,6.77-6.76,12.73,12.73,0,0,1,9.94,0,13.25,13.25,0,0,1,4.08,2.72,12.75,12.75,0,0,1,2.76,14,12.93,12.93,0,0,1-6.84,6.83,12.85,12.85,0,0,1-9.94,0,12.52,12.52,0,0,1-4.05-2.75,13.43,13.43,0,0,1-2.72-4.08,12.88,12.88,0,0,1,0-10Z"/><path class="cls-1" d="M747.06,142.33a12.65,12.65,0,0,1,6.77-6.77,12.85,12.85,0,0,1,9.94,0,13.43,13.43,0,0,1,4.08,2.72,12.66,12.66,0,0,1,2.76,4.05,12.85,12.85,0,0,1,0,9.94,13,13,0,0,1-6.84,6.84,12.85,12.85,0,0,1-9.94,0,12.55,12.55,0,0,1-4.05-2.76,13.43,13.43,0,0,1-2.72-4.08,12.85,12.85,0,0,1,0-9.94Z"/><path class="cls-1" d="M746.06,818.79a12.71,12.71,0,0,1,6.76-6.76,12.88,12.88,0,0,1,9.95,0,13.25,13.25,0,0,1,4.08,2.72,12.75,12.75,0,0,1,2.76,14,13,13,0,0,1-2.76,4.08,12.82,12.82,0,0,1-4.08,2.75,12.67,12.67,0,0,1-14-2.75,13.43,13.43,0,0,1-2.72-4.08,12.88,12.88,0,0,1,0-10Z"/><path class="cls-1" d="M981.51,142.33a12.68,12.68,0,0,1,6.76-6.77,12.88,12.88,0,0,1,10,0,13.43,13.43,0,0,1,4.08,2.72,12.66,12.66,0,0,1,2.76,4.05,12.85,12.85,0,0,1,0,9.94,13,13,0,0,1-6.84,6.84,12.88,12.88,0,0,1-10,0,12.62,12.62,0,0,1-4-2.76,13.43,13.43,0,0,1-2.72-4.08,12.85,12.85,0,0,1,0-9.94Z"/><path class="cls-1" d="M981.85,604.33a12.71,12.71,0,0,1,6.76-6.76,12.88,12.88,0,0,1,9.95,0,13.25,13.25,0,0,1,4.08,2.72,12.75,12.75,0,0,1,2.76,14,13,13,0,0,1-2.76,4.08,12.82,12.82,0,0,1-4.08,2.75,12.67,12.67,0,0,1-14-2.75,13.43,13.43,0,0,1-2.72-4.08,12.88,12.88,0,0,1,0-9.95Z"/><path class="cls-1" d="M1216,1019.65a12.71,12.71,0,0,1,6.76-6.76,12.88,12.88,0,0,1,10,0,13.25,13.25,0,0,1,4.08,2.72,12.75,12.75,0,0,1,2.76,14,12.93,12.93,0,0,1-6.84,6.83,12.88,12.88,0,0,1-10,0,12.59,12.59,0,0,1-4-2.75,13.43,13.43,0,0,1-2.72-4.08,12.88,12.88,0,0,1,0-9.95Z"/><path class="cls-1" d="M1685.41,1019.82a12.71,12.71,0,0,1,6.76-6.76,12.88,12.88,0,0,1,9.95,0,13.43,13.43,0,0,1,4.08,2.72,12.75,12.75,0,0,1,2.76,14,13,13,0,0,1-6.84,6.84,12.64,12.64,0,0,1-14-2.76,13.43,13.43,0,0,1-2.72-4.08,12.88,12.88,0,0,1,0-9.95Z"/><path class="cls-1" d="M84.39,369.63v10.56H56.79v13.2H80.71v9.76H56.79v23.6H44.23V369.63Z"/><path class="cls-1" d="M298.74,576a18.35,18.35,0,0,1,6.92,1.24,15.89,15.89,0,0,1,5.28,3.4,14.89,14.89,0,0,1,3.36,5,16.07,16.07,0,0,1,1.16,6.12,17.22,17.22,0,0,1-2.12,8.72,13.36,13.36,0,0,1-6.92,5.6v.16a9.69,9.69,0,0,1,3.84,2,10.92,10.92,0,0,1,2.48,3.12,14.75,14.75,0,0,1,1.4,4,35.6,35.6,0,0,1,.6,4.32c.05.9.1,2,.16,3.2s.14,2.48.28,3.76a24,24,0,0,0,.64,3.64,8.34,8.34,0,0,0,1.32,2.92H304.58a22,22,0,0,1-1.28-6.48q-.24-3.76-.72-7.2-.65-4.49-2.72-6.56t-6.8-2.08H280.5v22.32H267.94V576Zm-4.48,25.84q4.32,0,6.48-1.92t2.16-6.24q0-4.17-2.16-6c-1.44-1.26-3.6-1.88-6.48-1.88H280.5v16.08Z"/><path class="cls-1" d="M1011.32,364.8v10.56H981.16V387.6h27.68v9.76H981.16v14H1012v10.56H968.6V364.8Z"/><path class="cls-1" d="M776.87,579.92v10.56H746.71v12.24h27.68v9.76H746.71v14h30.8V637H734.15V579.92Z"/><path class="cls-1" d="M1214.25,840.12a9.28,9.28,0,0,0,2.76,3.24,12.08,12.08,0,0,0,4,1.84,19.13,19.13,0,0,0,4.8.6,26,26,0,0,0,3.6-.28,12.74,12.74,0,0,0,3.6-1.08,7.91,7.91,0,0,0,2.8-2.2,5.51,5.51,0,0,0,1.12-3.56,5,5,0,0,0-1.48-3.76,11.77,11.77,0,0,0-3.88-2.4,38.59,38.59,0,0,0-5.44-1.68c-2-.48-4.08-1-6.16-1.6a57.22,57.22,0,0,1-6.24-2,21.8,21.8,0,0,1-5.44-3,14.2,14.2,0,0,1-3.88-4.6A13.94,13.94,0,0,1,1203,813a15,15,0,0,1,1.88-7.64,17.07,17.07,0,0,1,4.92-5.4,21.4,21.4,0,0,1,6.88-3.2,29,29,0,0,1,7.68-1,36.11,36.11,0,0,1,8.6,1,21.14,21.14,0,0,1,7.32,3.24,16.26,16.26,0,0,1,5.08,5.72,17.57,17.57,0,0,1,1.88,8.44h-12.16a10,10,0,0,0-1.08-4.24,7.07,7.07,0,0,0-2.44-2.64,10.13,10.13,0,0,0-3.48-1.36,21.18,21.18,0,0,0-4.28-.4,14.28,14.28,0,0,0-3,.32,8,8,0,0,0-2.76,1.12,7,7,0,0,0-2,2,5.39,5.39,0,0,0-.8,3,5.21,5.21,0,0,0,.64,2.72,5.8,5.8,0,0,0,2.52,1.92,33.21,33.21,0,0,0,5.2,1.76c2.21.58,5.11,1.33,8.68,2.24,1.07.21,2.55.6,4.44,1.16a21.13,21.13,0,0,1,5.64,2.68,16.83,16.83,0,0,1,4.84,4.92,14,14,0,0,1,2,7.88,17.52,17.52,0,0,1-1.52,7.28,15.81,15.81,0,0,1-4.52,5.8,21.92,21.92,0,0,1-7.44,3.8,35.36,35.36,0,0,1-10.28,1.36,36.28,36.28,0,0,1-9.16-1.16,23.26,23.26,0,0,1-7.84-3.64,18.18,18.18,0,0,1-5.4-6.32,18.94,18.94,0,0,1-1.92-9.12h12.16A10.54,10.54,0,0,0,1214.25,840.12Z"/><path class="cls-1" d="M1438.34,374.58V364h46.8v10.56H1468v46.56h-12.56V374.58Z"/><path class="cls-1" d="M1911,580.78v46.56h27.84V637.9h-40.4V580.78Z"/><path class="cls-1" d="M1669.5,789.56h14.08l13.36,22.56,13.28-22.56h14l-21.2,35.2v21.92h-12.56V824.44Z"/><path class="cls-1" d="M2173.26,366.51v10.56H2143.1v12.24h27.68v9.76H2143.1v14h30.8v10.56h-43.36V366.51Z"/><path class="cls-1" d="M52.54,1019.22a12.71,12.71,0,0,1,6.76-6.76,12.76,12.76,0,0,1,10,0,13.25,13.25,0,0,1,4.08,2.72,12.75,12.75,0,0,1,2.76,14,12.93,12.93,0,0,1-6.84,6.83,12.88,12.88,0,0,1-10,0,12.59,12.59,0,0,1-4-2.75,13.43,13.43,0,0,1-2.72-4.08,12.88,12.88,0,0,1,0-10Z"/><path class="cls-1" d="M52.54,603.47a13.05,13.05,0,0,1,2.72-4.05,12.81,12.81,0,0,1,4-2.71,12.76,12.76,0,0,1,10,0,13.22,13.22,0,0,1,4.08,2.71,12.76,12.76,0,0,1,2.76,14,13,13,0,0,1-2.76,4.08,13.16,13.16,0,0,1-4.08,2.75,12.88,12.88,0,0,1-10,0,12.75,12.75,0,0,1-4-2.75,13.43,13.43,0,0,1-2.72-4.08,12.88,12.88,0,0,1,0-9.95Z"/><path class="cls-1" d="M52.54,141.27a12.68,12.68,0,0,1,6.76-6.77,12.88,12.88,0,0,1,10,0,13.43,13.43,0,0,1,4.08,2.72,12.75,12.75,0,0,1,2.76,14,13,13,0,0,1-6.84,6.84,12.88,12.88,0,0,1-10,0,12.62,12.62,0,0,1-4-2.76,13.31,13.31,0,0,1-2.72-4.08,12.85,12.85,0,0,1,0-9.94Z"/><path class="cls-1" d="M2142.64,823.8a13.05,13.05,0,0,1,2.72-4,12.89,12.89,0,0,1,4-2.72,12.88,12.88,0,0,1,9.95,0,13.43,13.43,0,0,1,4.08,2.72,12.71,12.71,0,0,1,2.75,14,12.71,12.71,0,0,1-2.75,4.08,13,13,0,0,1-4.08,2.76,12.64,12.64,0,0,1-14-2.76,13.31,13.31,0,0,1-2.72-4.08,12.85,12.85,0,0,1,0-9.94Z"/><path class="cls-1" d="M1911.65,1018.65a12.56,12.56,0,0,1,2.72-4,12.72,12.72,0,0,1,4-2.72,12.88,12.88,0,0,1,9.95,0,13.25,13.25,0,0,1,4.08,2.72,12.64,12.64,0,0,1,2.75,4,12.88,12.88,0,0,1,0,9.95,13.16,13.16,0,0,1-2.75,4.08,13,13,0,0,1-4.08,2.75,12.67,12.67,0,0,1-14-2.75,13.07,13.07,0,0,1-2.72-4.08,12.88,12.88,0,0,1,0-9.95Z"/><path class="cls-1" d="M2142.13,604.45a12.68,12.68,0,0,1,6.76-6.77,12.88,12.88,0,0,1,10,0,13.43,13.43,0,0,1,4.08,2.72,12.56,12.56,0,0,1,3.76,9,12.5,12.5,0,0,1-1,5,13,13,0,0,1-6.84,6.84,12.88,12.88,0,0,1-10,0,12.62,12.62,0,0,1-4-2.76,13.31,13.31,0,0,1-2.72-4.08,12.85,12.85,0,0,1,0-9.94Z"/></svg>