<svg id="Layer_1" data-name="Layer 1" xmlns="http://www.w3.org/2000/svg" viewBox="0 0 2218.13 1178.55"><defs><style>.cls-1{fill:#231f20;}</style></defs><title>PSP_logo-Custom-Desktop-06</title><path class="cls-1" d="M513.62,846.53a12.71,12.71,0,0,1,2.72-4,12.89,12.89,0,0,1,4-2.72,12.85,12.85,0,0,1,9.94,0,13.35,13.35,0,0,1,4.09,2.72,12.8,12.8,0,0,1,2.75,4,12.85,12.85,0,0,1,0,9.94,12.91,12.91,0,0,1-6.84,6.84,12.85,12.85,0,0,1-9.94,0,12.51,12.51,0,0,1-4-2.76,13,13,0,0,1-2.72-4.08,12.85,12.85,0,0,1,0-9.94Z"/><path class="cls-1" d="M512.75,415.84a12.62,12.62,0,0,1,6.76-6.76,12.85,12.85,0,0,1,9.94,0,13.25,13.25,0,0,1,4.08,2.72,12.75,12.75,0,0,1,2.76,14,12.93,12.93,0,0,1-6.84,6.83,12.85,12.85,0,0,1-9.94,0,12.52,12.52,0,0,1-4-2.75,13.22,13.22,0,0,1-2.71-4.08,12.76,12.76,0,0,1,0-10Z"/><path class="cls-1" d="M1213.32,632.07a12.68,12.68,0,0,1,6.76-6.77,12.88,12.88,0,0,1,10,0,13.43,13.43,0,0,1,4.08,2.72,12.76,12.76,0,0,1,2.75,14,12.71,12.71,0,0,1-2.75,4.08,13,13,0,0,1-4.08,2.76,12.64,12.64,0,0,1-14-2.76,13.13,13.13,0,0,1-2.72-4.08,12.85,12.85,0,0,1,0-9.94Z"/><path class="cls-1" d="M1451,846.41a12.68,12.68,0,0,1,6.77-6.76,12.85,12.85,0,0,1,9.94,0,13.25,13.25,0,0,1,4.08,2.72,12.75,12.75,0,0,1,2.76,14,13,13,0,0,1-2.76,4.08,12.82,12.82,0,0,1-4.08,2.75,12.69,12.69,0,0,1-14-2.75,13.43,13.43,0,0,1-2.72-4.08,12.88,12.88,0,0,1,0-10Z"/><path class="cls-1" d="M1451,172a12.65,12.65,0,0,1,6.77-6.77,12.85,12.85,0,0,1,9.94,0,13.43,13.43,0,0,1,4.08,2.72,12.66,12.66,0,0,1,2.76,4,12.85,12.85,0,0,1,0,9.94,13,13,0,0,1-6.84,6.84,12.85,12.85,0,0,1-9.94,0,12.55,12.55,0,0,1-4-2.76,13.31,13.31,0,0,1-2.72-4.08,12.85,12.85,0,0,1,0-9.94Z"/><path class="cls-1" d="M1685.09,629a12.85,12.85,0,0,1,2.71-4.05,13.05,13.05,0,0,1,4-2.72,12.85,12.85,0,0,1,9.94,0,13.35,13.35,0,0,1,4.09,2.72,12.8,12.8,0,0,1,2.75,4.05,12.85,12.85,0,0,1,0,9.94,13.16,13.16,0,0,1-2.75,4.08,13,13,0,0,1-4.09,2.76,12.85,12.85,0,0,1-9.94,0,12.66,12.66,0,0,1-4-2.76,13.22,13.22,0,0,1-2.71-4.08,12.73,12.73,0,0,1,0-9.94Z"/><path class="cls-1" d="M1911.65,170a12.71,12.71,0,0,1,2.72-4,12.89,12.89,0,0,1,4-2.72,12.88,12.88,0,0,1,9.95,0,13.43,13.43,0,0,1,4.08,2.72,12.8,12.8,0,0,1,2.75,4,12.85,12.85,0,0,1,0,9.94,13.16,13.16,0,0,1-2.75,4.08,13,13,0,0,1-4.08,2.76,12.64,12.64,0,0,1-14-2.76,13.07,13.07,0,0,1-2.72-4.08,12.85,12.85,0,0,1,0-9.94Z"/><path class="cls-1" d="M1912.65,417.11a12.71,12.71,0,0,1,6.76-6.76,12.88,12.88,0,0,1,9.95,0,13.25,13.25,0,0,1,4.08,2.72,12.76,12.76,0,0,1,2.75,14,12.82,12.82,0,0,1-2.75,4.08,13,13,0,0,1-4.08,2.76,12.64,12.64,0,0,1-14-2.76,13.25,13.25,0,0,1-2.72-4.08,12.88,12.88,0,0,1,0-9.95Z"/><path class="cls-1" d="M278.17,1047a12.71,12.71,0,0,1,6.76-6.76,12.85,12.85,0,0,1,9.94,0,13.35,13.35,0,0,1,4.09,2.72,12.86,12.86,0,0,1,2.75,4,12.88,12.88,0,0,1,0,10A13.16,13.16,0,0,1,299,1061a13,13,0,0,1-4.09,2.76,12.85,12.85,0,0,1-9.94,0,12.51,12.51,0,0,1-4-2.76,13.07,13.07,0,0,1-2.72-4.08,12.88,12.88,0,0,1,0-10Z"/><path class="cls-1" d="M278.17,847.53a12.62,12.62,0,0,1,6.76-6.76,12.73,12.73,0,0,1,9.94,0,13.15,13.15,0,0,1,4.09,2.71,12.8,12.8,0,0,1,2.75,4,12.88,12.88,0,0,1,0,10,12.93,12.93,0,0,1-6.84,6.83,12.85,12.85,0,0,1-9.94,0,12.51,12.51,0,0,1-4-2.76,12.92,12.92,0,0,1-2.72-4.07,12.88,12.88,0,0,1,0-10Z"/><path class="cls-1" d="M280.14,415.86a12.59,12.59,0,0,1,6.76-6.77,12.85,12.85,0,0,1,9.94,0,13.35,13.35,0,0,1,4.09,2.72,12.8,12.8,0,0,1,2.75,4.05,12.85,12.85,0,0,1,0,9.94,13.16,13.16,0,0,1-2.75,4.08,13,13,0,0,1-4.09,2.76,12.85,12.85,0,0,1-9.94,0,12.55,12.55,0,0,1-4-2.76,13.22,13.22,0,0,1-2.71-4.08,12.73,12.73,0,0,1,0-9.94Z"/><path class="cls-1" d="M747.06,1047a13.12,13.12,0,0,1,2.72-4,12.94,12.94,0,0,1,4.05-2.72,12.85,12.85,0,0,1,9.94,0,13.43,13.43,0,0,1,4.08,2.72,12.73,12.73,0,0,1,2.76,4,12.88,12.88,0,0,1,0,10,13,13,0,0,1-6.84,6.84,12.85,12.85,0,0,1-9.94,0,12.55,12.55,0,0,1-4.05-2.76,13.43,13.43,0,0,1-2.72-4.08,12.88,12.88,0,0,1,0-10Z"/><path class="cls-1" d="M747.06,170.06a12.68,12.68,0,0,1,6.77-6.76,12.85,12.85,0,0,1,9.94,0,13.25,13.25,0,0,1,4.08,2.72,12.75,12.75,0,0,1,2.76,14,12.93,12.93,0,0,1-6.84,6.83,12.85,12.85,0,0,1-9.94,0,12.52,12.52,0,0,1-4.05-2.75,13.43,13.43,0,0,1-2.72-4.08,12.88,12.88,0,0,1,0-9.95Z"/><path class="cls-1" d="M746.06,846.53a12.68,12.68,0,0,1,6.76-6.77,12.88,12.88,0,0,1,9.95,0,13.43,13.43,0,0,1,4.08,2.72,12.66,12.66,0,0,1,2.76,4,12.85,12.85,0,0,1,0,9.94,13,13,0,0,1-6.84,6.84,12.88,12.88,0,0,1-9.95,0,12.62,12.62,0,0,1-4-2.76,13.31,13.31,0,0,1-2.72-4.08,12.85,12.85,0,0,1,0-9.94Z"/><path class="cls-1" d="M981.51,170.06a12.71,12.71,0,0,1,6.76-6.76,12.88,12.88,0,0,1,10,0,13.25,13.25,0,0,1,4.08,2.72,12.75,12.75,0,0,1,2.76,14,12.93,12.93,0,0,1-6.84,6.83,12.88,12.88,0,0,1-10,0,12.59,12.59,0,0,1-4-2.75,13.43,13.43,0,0,1-2.72-4.08,12.88,12.88,0,0,1,0-9.95Z"/><path class="cls-1" d="M981.85,632.07a12.68,12.68,0,0,1,6.76-6.77,12.88,12.88,0,0,1,9.95,0,13.43,13.43,0,0,1,4.08,2.72,12.66,12.66,0,0,1,2.76,4.05,12.85,12.85,0,0,1,0,9.94,13,13,0,0,1-6.84,6.84,12.88,12.88,0,0,1-9.95,0,12.62,12.62,0,0,1-4-2.76,13.31,13.31,0,0,1-2.72-4.08,12.85,12.85,0,0,1,0-9.94Z"/><path class="cls-1" d="M84.39,397.36v10.56H56.79v13.2H80.71v9.76H56.79v23.6H44.23V397.36Z"/><path class="cls-1" d="M298.74,603.68a18.54,18.54,0,0,1,6.92,1.24,16,16,0,0,1,5.28,3.4,15,15,0,0,1,3.36,5,16.14,16.14,0,0,1,1.16,6.12,17.2,17.2,0,0,1-2.12,8.72,13.31,13.31,0,0,1-6.92,5.6v.16a9.82,9.82,0,0,1,3.84,2,10.92,10.92,0,0,1,2.48,3.12,14.75,14.75,0,0,1,1.4,4,35.6,35.6,0,0,1,.6,4.32c.05.91.1,2,.16,3.2s.14,2.48.28,3.76a23.78,23.78,0,0,0,.64,3.64,8.26,8.26,0,0,0,1.32,2.92H304.58a21.89,21.89,0,0,1-1.28-6.48c-.16-2.5-.4-4.91-.72-7.2q-.65-4.47-2.72-6.56c-1.39-1.38-3.66-2.08-6.8-2.08H280.5V660.8H267.94V603.68Zm-4.48,25.84q4.32,0,6.48-1.92t2.16-6.24q0-4.15-2.16-6t-6.48-1.88H280.5v16.08Z"/><path class="cls-1" d="M1011.32,392.54V403.1H981.16v12.24h27.68v9.76H981.16v14H1012v10.56H968.6V392.54Z"/><path class="cls-1" d="M776.87,607.65v10.56H746.71v12.24h27.68v9.76H746.71v14h30.8v10.56H734.15V607.65Z"/><path class="cls-1" d="M1214.25,867.85a9.11,9.11,0,0,0,2.76,3.24,11.88,11.88,0,0,0,4,1.84,19.13,19.13,0,0,0,4.8.6,24.55,24.55,0,0,0,3.6-.28,12.42,12.42,0,0,0,3.6-1.08,7.69,7.69,0,0,0,2.8-2.2,5.49,5.49,0,0,0,1.12-3.56,5,5,0,0,0-1.48-3.76,11.77,11.77,0,0,0-3.88-2.4,38.59,38.59,0,0,0-5.44-1.68c-2-.48-4.08-1-6.16-1.6a55.12,55.12,0,0,1-6.24-2,21.18,21.18,0,0,1-5.44-3,14.2,14.2,0,0,1-3.88-4.6,13.91,13.91,0,0,1-1.48-6.68,15,15,0,0,1,1.88-7.64,17.07,17.07,0,0,1,4.92-5.4,21.62,21.62,0,0,1,6.88-3.2,29.41,29.41,0,0,1,7.68-1,36.11,36.11,0,0,1,8.6,1,21.52,21.52,0,0,1,7.32,3.24,16.35,16.35,0,0,1,5.08,5.72,17.57,17.57,0,0,1,1.88,8.44h-12.16a10.08,10.08,0,0,0-1.08-4.24,7.07,7.07,0,0,0-2.44-2.64,10.33,10.33,0,0,0-3.48-1.36,21.93,21.93,0,0,0-4.28-.4,15,15,0,0,0-3,.32,8.19,8.19,0,0,0-2.76,1.12,7.07,7.07,0,0,0-2,2,5.41,5.41,0,0,0-.8,3,5.19,5.19,0,0,0,.64,2.72,5.73,5.73,0,0,0,2.52,1.92,31.24,31.24,0,0,0,5.2,1.76c2.21.59,5.11,1.34,8.68,2.24,1.07.21,2.55.6,4.44,1.16a21.44,21.44,0,0,1,5.64,2.68,17.08,17.08,0,0,1,4.84,4.92,14,14,0,0,1,2,7.88,17.52,17.52,0,0,1-1.52,7.28,15.73,15.73,0,0,1-4.52,5.8,21.56,21.56,0,0,1-7.44,3.8,35,35,0,0,1-10.28,1.36,36.28,36.28,0,0,1-9.16-1.16,22.88,22.88,0,0,1-7.84-3.64,18.09,18.09,0,0,1-5.4-6.32,18.94,18.94,0,0,1-1.92-9.12h12.16A10.51,10.51,0,0,0,1214.25,867.85Z"/><path class="cls-1" d="M1438.34,402.32V391.76h46.8v10.56H1468v46.56h-12.56V402.32Z"/><path class="cls-1" d="M1911,608.52v46.56h27.84v10.56h-40.4V608.52Z"/><path class="cls-1" d="M1669.5,817.3h14.08l13.36,22.56,13.28-22.56h14L1703,852.5v21.92h-12.56V852.18Z"/><path class="cls-1" d="M2173.26,394.24v10.57H2143.1V417h27.68v9.77H2143.1v14h30.8v10.55h-43.36V394.24Z"/><path class="cls-1" d="M52.54,1047a12.71,12.71,0,0,1,6.76-6.76,12.88,12.88,0,0,1,10,0,13.43,13.43,0,0,1,4.08,2.72,12.51,12.51,0,0,1,3.76,9,12.57,12.57,0,0,1-1,5,13,13,0,0,1-6.84,6.84,12.88,12.88,0,0,1-10,0,12.62,12.62,0,0,1-4-2.76,13.43,13.43,0,0,1-2.72-4.08,12.88,12.88,0,0,1,0-10Z"/><path class="cls-1" d="M52.54,631.2a12.71,12.71,0,0,1,6.76-6.76,12.88,12.88,0,0,1,10,0,13.43,13.43,0,0,1,4.08,2.72,12.75,12.75,0,0,1,2.76,14A13,13,0,0,1,69.25,648a12.64,12.64,0,0,1-14-2.76,13.43,13.43,0,0,1-2.72-4.08,12.88,12.88,0,0,1,0-9.95Z"/><path class="cls-1" d="M52.54,169a12.71,12.71,0,0,1,6.76-6.76,12.88,12.88,0,0,1,10,0A13.25,13.25,0,0,1,73.33,165a12.75,12.75,0,0,1,2.76,14A13,13,0,0,1,73.33,183a12.82,12.82,0,0,1-4.08,2.75,12.67,12.67,0,0,1-14-2.75A13.43,13.43,0,0,1,52.54,179a12.88,12.88,0,0,1,0-9.95Z"/><path class="cls-1" d="M2142.64,851.53a12.89,12.89,0,0,1,2.72-4,12.72,12.72,0,0,1,4-2.72,12.88,12.88,0,0,1,9.95,0,13.25,13.25,0,0,1,4.08,2.72,12.71,12.71,0,0,1,2.75,14,12.87,12.87,0,0,1-6.83,6.83,12.67,12.67,0,0,1-14-2.75,13.43,13.43,0,0,1-2.72-4.08,12.88,12.88,0,0,1,0-10Z"/><path class="cls-1" d="M2142.13,632.18a12.71,12.71,0,0,1,6.76-6.76,12.88,12.88,0,0,1,10,0,13.25,13.25,0,0,1,4.08,2.72,12.75,12.75,0,0,1,2.76,14,13,13,0,0,1-2.76,4.08,12.82,12.82,0,0,1-4.08,2.75,12.67,12.67,0,0,1-14-2.75,13.43,13.43,0,0,1-2.72-4.08,12.88,12.88,0,0,1,0-10Z"/></svg>