<?xml version="1.0" encoding="utf-8"?>
<!-- Generator: Adobe Illustrator 22.0.1, SVG Export Plug-In . SVG Version: 6.00 Build 0)  -->
<svg version="1.1" id="Layer_1" xmlns="http://www.w3.org/2000/svg" xmlns:xlink="http://www.w3.org/1999/xlink" x="0px" y="0px"
	 viewBox="0 0 2135.7 908.7" style="enable-background:new 0 0 2135.7 908.7;" xml:space="preserve">
<style type="text/css">
	.st0{fill:#231F20;}
</style>
<path class="st0" d="M471.9,686.8c0.6-1.5,1.6-2.9,2.7-4c1.1-1.2,2.5-2.1,4-2.7c3.2-1.3,6.8-1.3,9.9,0c1.5,0.6,2.9,1.6,4.1,2.7
	c1.2,1.1,2.1,2.5,2.8,4c1.3,3.2,1.3,6.8,0,9.9c-1.3,3.1-3.8,5.5-6.8,6.8c-3.2,1.3-6.8,1.3-9.9,0c-1.5-0.6-2.9-1.6-4-2.8
	c-1.2-1.2-2.1-2.6-2.7-4.1C470.5,693.6,470.5,690,471.9,686.8z"/>
<path class="st0" d="M471,256.2c1.3-3.1,3.7-5.5,6.8-6.8c3.2-1.3,6.8-1.3,9.9,0c1.5,0.6,2.9,1.6,4.1,2.7c3.7,3.7,4.8,9.2,2.8,14
	c-1.3,3.1-3.8,5.5-6.8,6.8c-3.2,1.3-6.8,1.3-9.9,0c-1.5-0.6-2.9-1.6-4-2.8c-1.1-1.2-2.1-2.6-2.7-4.1
	C469.7,262.9,469.7,259.3,471,256.2L471,256.2z"/>
<path class="st0" d="M1171.6,472.4c1.3-3.1,3.7-5.5,6.8-6.8c3.2-1.3,6.8-1.3,10,0c1.5,0.6,2.9,1.6,4.1,2.7c3.7,3.7,4.8,9.2,2.8,14
	c-0.6,1.5-1.6,2.9-2.8,4.1c-1.2,1.2-2.6,2.1-4.1,2.8c-4.8,2.1-10.3,1-14-2.8c-1.2-1.2-2.1-2.6-2.7-4.1
	C1170.3,479.2,1170.3,475.6,1171.6,472.4L1171.6,472.4z"/>
<path class="st0" d="M1409.3,686.7c1.3-3.1,3.7-5.5,6.8-6.8c3.2-1.3,6.8-1.3,9.9,0c1.5,0.6,2.9,1.6,4.1,2.7c3.7,3.7,4.8,9.2,2.8,14
	c-0.7,1.5-1.6,2.9-2.8,4.1c-1.2,1.2-2.6,2.1-4.1,2.8c-4.8,2-10.3,1-14-2.8c-1.1-1.2-2.1-2.6-2.7-4.1
	C1407.9,693.5,1407.9,689.9,1409.3,686.7L1409.3,686.7z"/>
<path class="st0" d="M1409.3,12.3c1.3-3.1,3.7-5.5,6.8-6.8c3.2-1.3,6.8-1.3,9.9,0c1.5,0.6,2.9,1.6,4.1,2.7c1.2,1.1,2.1,2.5,2.8,4
	c1.3,3.2,1.3,6.8,0,9.9c-1.3,3.1-3.8,5.5-6.8,6.8c-3.2,1.3-6.8,1.3-9.9,0c-1.5-0.7-2.9-1.6-4-2.8c-1.2-1.2-2.1-2.6-2.7-4.1
	C1408,19,1408,15.4,1409.3,12.3L1409.3,12.3z"/>
<path class="st0" d="M1643.4,469.3c0.6-1.5,1.6-2.9,2.7-4c1.2-1.1,2.5-2.1,4-2.7c3.2-1.3,6.8-1.3,9.9,0c1.5,0.6,2.9,1.6,4.1,2.7
	c1.2,1.2,2.1,2.5,2.8,4c1.3,3.2,1.3,6.8,0,9.9c-0.7,1.5-1.6,2.9-2.8,4.1c-1.2,1.2-2.6,2.1-4.1,2.8c-3.2,1.3-6.8,1.3-9.9,0
	c-1.5-0.7-2.9-1.6-4-2.8c-1.1-1.2-2.1-2.6-2.7-4.1C1642,476.1,1642,472.5,1643.4,469.3z"/>
<path class="st0" d="M1869.9,10.3c0.6-1.5,1.6-2.9,2.7-4c1.1-1.2,2.5-2.1,4-2.7c3.2-1.3,6.8-1.3,9.9,0c1.5,0.6,2.9,1.6,4.1,2.7
	c1.2,1.1,2.1,2.5,2.8,4c1.3,3.2,1.3,6.8,0,9.9c-0.7,1.5-1.6,2.9-2.8,4.1c-1.2,1.2-2.6,2.1-4.1,2.8c-4.8,2.1-10.3,1-14-2.8
	c-1.2-1.2-2.1-2.6-2.7-4.1C1868.5,17.1,1868.5,13.5,1869.9,10.3L1869.9,10.3z"/>
<path class="st0" d="M1870.9,257.4c1.3-3,3.7-5.5,6.8-6.8c3.2-1.3,6.8-1.3,9.9,0c1.5,0.6,2.9,1.6,4.1,2.7c3.7,3.7,4.8,9.2,2.8,14
	c-0.6,1.5-1.6,2.9-2.8,4.1c-1.2,1.2-2.6,2.1-4.1,2.8c-4.8,2.1-10.3,1-14-2.8c-1.2-1.2-2.1-2.6-2.7-4.1
	C1869.6,264.2,1869.6,260.6,1870.9,257.4L1870.9,257.4z"/>
<path class="st0" d="M236.4,887.3c1.3-3,3.7-5.5,6.8-6.8c3.2-1.3,6.8-1.3,9.9,0c1.5,0.6,2.9,1.6,4.1,2.7c1.2,1.1,2.1,2.5,2.8,4
	c1.3,3.2,1.3,6.8,0,10c-0.6,1.5-1.6,2.9-2.7,4c-1.2,1.2-2.6,2.1-4.1,2.8c-3.2,1.3-6.8,1.3-9.9,0c-1.5-0.6-2.9-1.6-4-2.8
	c-1.2-1.2-2.1-2.6-2.7-4.1C235.2,894,235.2,890.4,236.4,887.3L236.4,887.3z"/>
<path class="st0" d="M236.4,687.8c1.3-3.1,3.7-5.5,6.8-6.8c3.2-1.3,6.8-1.3,9.9,0c1.5,0.6,2.9,1.6,4.1,2.7c1.2,1.1,2.1,2.5,2.8,4
	c1.3,3.2,1.3,6.8,0,10c-1.3,3.1-3.8,5.5-6.8,6.8c-3.2,1.3-6.8,1.3-9.9,0c-1.5-0.6-2.9-1.6-4-2.8c-1.2-1.2-2.1-2.6-2.7-4.1
	C235.1,694.6,235.1,691,236.4,687.8L236.4,687.8z"/>
<path class="st0" d="M238.4,256.2c1.3-3.1,3.7-5.5,6.8-6.8c3.2-1.3,6.8-1.3,9.9,0c1.5,0.6,2.9,1.6,4.1,2.7c1.2,1.2,2.1,2.5,2.8,4.1
	c1.3,3.2,1.3,6.8,0,9.9c-0.7,1.5-1.6,2.9-2.8,4.1c-1.2,1.2-2.6,2.1-4.1,2.8c-3.2,1.3-6.8,1.3-9.9,0c-1.5-0.7-2.9-1.6-4-2.8
	c-1.1-1.2-2.1-2.6-2.7-4.1C237.1,262.9,237.1,259.4,238.4,256.2L238.4,256.2z"/>
<path class="st0" d="M705.3,887.3c0.7-1.5,1.6-2.8,2.7-4c1.2-1.2,2.5-2.1,4-2.7c3.2-1.3,6.8-1.3,9.9,0c1.5,0.6,2.9,1.6,4.1,2.7
	c1.2,1.1,2.1,2.5,2.8,4c1.3,3.2,1.3,6.8,0,10c-1.3,3.1-3.8,5.5-6.8,6.8c-3.2,1.3-6.8,1.3-9.9,0c-1.5-0.6-2.9-1.6-4-2.8
	c-1.1-1.2-2.1-2.6-2.7-4.1C704,894.1,704,890.5,705.3,887.3z"/>
<path class="st0" d="M705.3,10.4c1.3-3.1,3.7-5.5,6.8-6.8c3.2-1.3,6.8-1.3,9.9,0c1.5,0.6,2.9,1.6,4.1,2.7c3.7,3.7,4.8,9.2,2.8,14
	c-1.3,3.1-3.8,5.5-6.8,6.8c-3.2,1.3-6.8,1.3-9.9,0c-1.5-0.6-2.9-1.6-4-2.8c-1.1-1.2-2.1-2.6-2.7-4.1C704,17.2,704,13.6,705.3,10.4
	L705.3,10.4z"/>
<path class="st0" d="M704.3,686.8c1.3-3.1,3.7-5.5,6.8-6.8c3.2-1.3,6.8-1.3,10,0c1.5,0.6,2.9,1.6,4.1,2.7c1.2,1.1,2.1,2.5,2.8,4
	c1.3,3.2,1.3,6.8,0,9.9c-1.3,3.1-3.8,5.5-6.8,6.8c-3.2,1.3-6.8,1.3-10,0c-1.5-0.7-2.9-1.6-4-2.8c-1.2-1.2-2.1-2.6-2.7-4.1
	C703,693.6,703,690,704.3,686.8L704.3,686.8z"/>
<path class="st0" d="M939.8,10.4c1.3-3,3.7-5.5,6.8-6.8c3.2-1.3,6.8-1.3,10,0c1.5,0.6,2.9,1.6,4.1,2.7c3.7,3.7,4.8,9.2,2.8,14
	c-1.3,3.1-3.8,5.5-6.8,6.8c-3.2,1.3-6.8,1.3-10,0c-1.5-0.6-2.9-1.6-4-2.8c-1.1-1.2-2.1-2.6-2.7-4.1
	C938.5,17.2,938.5,13.6,939.8,10.4L939.8,10.4z"/>
<path class="st0" d="M940.1,472.4c1.3-3.1,3.7-5.5,6.8-6.8c3.2-1.3,6.8-1.3,10,0c1.5,0.6,2.9,1.6,4.1,2.7c1.2,1.2,2.1,2.5,2.8,4
	c1.3,3.2,1.3,6.8,0,9.9c-1.3,3.1-3.8,5.5-6.8,6.8c-3.2,1.3-6.8,1.3-10,0c-1.5-0.7-2.9-1.6-4-2.8c-1.2-1.2-2.1-2.6-2.7-4.1
	C938.8,479.1,938.8,475.6,940.1,472.4L940.1,472.4z"/>
<path class="st0" d="M42.7,237.7v10.6H15.1v13.2H39v9.8H15.1v23.6H2.5v-57.1H42.7z"/>
<path class="st0" d="M257,444c2.4,0,4.7,0.4,6.9,1.2c2,0.8,3.8,1.9,5.3,3.4c1.4,1.4,2.6,3.1,3.4,5c0.8,1.9,1.2,4,1.2,6.1
	c0.1,3-0.7,6.1-2.1,8.7c-1.6,2.6-4,4.6-6.9,5.6v0.2c1.4,0.4,2.7,1.1,3.8,2c1,0.9,1.9,1.9,2.5,3.1c0.7,1.3,1.1,2.6,1.4,4
	c0.3,1.4,0.5,2.9,0.6,4.3c0,0.9,0.1,2,0.2,3.2s0.1,2.5,0.3,3.8c0.1,1.2,0.3,2.4,0.6,3.6c0.2,1.1,0.7,2,1.3,2.9h-12.6
	c-0.8-2.1-1.2-4.3-1.3-6.5c-0.2-2.5-0.4-4.9-0.7-7.2c-0.4-3-1.3-5.2-2.7-6.6c-1.4-1.4-3.7-2.1-6.8-2.1h-12.6v22.2h-12.6V444H257z
	 M252.5,469.8c2.9,0,5-0.6,6.5-1.9c1.4-1.3,2.2-3.4,2.2-6.2c0-2.8-0.7-4.8-2.2-6c-1.4-1.2-3.6-1.9-6.5-1.9h-13.8v16.1L252.5,469.8z"
	/>
<path class="st0" d="M969.6,232.9v10.6h-30.2v12.2h27.7v9.8h-27.7v14h30.8V290h-43.4v-57.1H969.6z"/>
<path class="st0" d="M735.1,448v10.6H705v12.2h27.7v9.8H705v14h30.8v10.6h-43.4V448H735.1z"/>
<path class="st0" d="M1172.5,708.2c0.7,1.3,1.6,2.4,2.8,3.2c1.2,0.9,2.6,1.5,4,1.8c1.6,0.4,3.2,0.6,4.8,0.6c1.2,0,2.4-0.1,3.6-0.3
	c1.2-0.2,2.5-0.5,3.6-1.1c1.1-0.5,2.1-1.3,2.8-2.2c0.8-1,1.2-2.3,1.1-3.6c0.1-1.4-0.5-2.8-1.5-3.8c-1.1-1-2.4-1.9-3.9-2.4
	c-1.8-0.7-3.6-1.3-5.4-1.7c-2-0.5-4.1-1-6.2-1.6c-2.1-0.5-4.2-1.2-6.2-2c-2-0.7-3.8-1.7-5.4-3c-1.6-1.2-2.9-2.8-3.9-4.6
	c-1-2.1-1.6-4.4-1.5-6.7c-0.1-2.7,0.6-5.3,1.9-7.6c1.2-2.1,2.9-4,4.9-5.4c2.1-1.5,4.4-2.5,6.9-3.2c2.5-0.7,5.1-1,7.7-1
	c2.9,0,5.8,0.3,8.6,1c2.6,0.6,5.1,1.7,7.3,3.2c2.1,1.5,3.9,3.4,5.1,5.7c1.3,2.6,2,5.5,1.9,8.4h-12.2c0-1.5-0.4-2.9-1.1-4.2
	c-0.6-1.1-1.4-2-2.4-2.6c-1.1-0.7-2.2-1.1-3.5-1.4c-1.4-0.3-2.8-0.4-4.3-0.4c-1,0-2,0.1-3,0.3c-1,0.2-1.9,0.6-2.8,1.1
	c-0.8,0.5-1.5,1.2-2,2c-0.6,0.9-0.8,1.9-0.8,3c0,0.9,0.2,1.9,0.6,2.7c0.6,0.9,1.5,1.5,2.5,1.9c1.7,0.7,3.4,1.3,5.2,1.8
	c2.2,0.6,5.1,1.3,8.7,2.2c1.1,0.2,2.6,0.6,4.4,1.2c2,0.6,3.9,1.5,5.6,2.7c1.9,1.3,3.6,3,4.8,4.9c1.4,2.4,2.1,5.1,2,7.9
	c0,2.5-0.5,5-1.5,7.3c-1,2.3-2.6,4.3-4.5,5.8c-2.2,1.7-4.7,3-7.4,3.8c-3.3,1-6.8,1.4-10.3,1.4c-3.1,0-6.2-0.4-9.2-1.2
	c-2.8-0.7-5.5-1.9-7.8-3.6c-2.3-1.7-4.1-3.8-5.4-6.3c-1.4-2.8-2-6-1.9-9.1h12.2C1171.4,704.9,1171.8,706.6,1172.5,708.2z"/>
<path class="st0" d="M1396.6,242.6v-10.6h46.8v10.6h-17.1v46.6h-12.6v-46.6H1396.6z"/>
<path class="st0" d="M1869.3,448.8v46.6h27.8V506h-40.4v-57.1H1869.3z"/>
<path class="st0" d="M1627.8,657.6h14.1l13.4,22.6l13.3-22.6h14l-21.2,35.2v21.9h-12.6v-22.2L1627.8,657.6z"/>
<path class="st0" d="M2131.5,234.6v10.6h-30.2v12.2h27.7v9.8h-27.7v14h30.8v10.5h-43.4v-57.1H2131.5z"/>
<path class="st0" d="M10.8,887.3c1.3-3,3.7-5.5,6.8-6.8c3.2-1.3,6.8-1.3,10,0c1.5,0.6,2.9,1.6,4.1,2.7c2.4,2.4,3.8,5.6,3.8,9
	c0,1.7-0.3,3.4-1,5c-1.3,3.1-3.8,5.5-6.8,6.8c-3.2,1.3-6.8,1.3-10,0c-1.5-0.7-2.9-1.6-4-2.8c-1.1-1.2-2.1-2.6-2.7-4.1
	C9.5,894.1,9.5,890.5,10.8,887.3L10.8,887.3z"/>
<path class="st0" d="M10.8,471.5c1.3-3,3.7-5.5,6.8-6.8c3.2-1.3,6.8-1.3,10,0c1.5,0.6,2.9,1.6,4.1,2.7c3.7,3.7,4.8,9.2,2.8,14
	c-1.3,3.1-3.8,5.5-6.9,6.8c-4.8,2.1-10.3,1-14-2.8c-1.1-1.2-2.1-2.6-2.7-4.1C9.5,478.3,9.5,474.7,10.8,471.5L10.8,471.5z"/>
<path class="st0" d="M10.8,9.3c1.3-3,3.7-5.5,6.8-6.8c3.2-1.3,6.8-1.3,10,0c1.5,0.7,2.9,1.6,4,2.8c3.7,3.7,4.8,9.2,2.8,14
	c-0.7,1.5-1.6,2.9-2.8,4c-1.2,1.2-2.6,2.1-4.1,2.8c-4.8,2-10.3,1-14-2.8c-1.1-1.2-2.1-2.5-2.7-4C9.5,16.1,9.5,12.5,10.8,9.3
	L10.8,9.3z"/>
<path class="st0" d="M2100.9,691.8c0.6-1.5,1.6-2.9,2.7-4c1.1-1.2,2.5-2.1,4-2.7c3.2-1.3,6.8-1.3,9.9,0c1.5,0.6,2.9,1.6,4.1,2.7
	c3.7,3.7,4.8,9.2,2.8,14c-1.3,3.1-3.8,5.5-6.8,6.8c-4.8,2-10.3,1-14-2.8c-1.1-1.2-2.1-2.6-2.7-4.1
	C2099.5,698.6,2099.5,695,2100.9,691.8L2100.9,691.8z"/>
<path class="st0" d="M2100.4,472.5c1.3-3,3.7-5.5,6.8-6.8c3.2-1.3,6.8-1.3,10,0c1.5,0.6,2.9,1.6,4.1,2.7c3.7,3.7,4.8,9.2,2.8,14
	c-0.7,1.5-1.6,2.9-2.8,4.1c-1.2,1.2-2.6,2.1-4.1,2.8c-4.8,2-10.3,1-14-2.8c-1.1-1.2-2.1-2.6-2.7-4.1
	C2099.1,479.3,2099.1,475.7,2100.4,472.5L2100.4,472.5z"/>
</svg>
