<?xml version="1.0" encoding="utf-8"?>
<!-- Generator: Adobe Illustrator 22.0.1, SVG Export Plug-In . SVG Version: 6.00 Build 0)  -->
<svg version="1.1" id="Layer_1" xmlns="http://www.w3.org/2000/svg" xmlns:xlink="http://www.w3.org/1999/xlink" x="0px" y="0px"
	 viewBox="0 0 2134 910.3" style="enable-background:new 0 0 2134 910.3;" xml:space="preserve">
<style type="text/css">
	.st0{fill:#231F20;}
</style>
<path class="st0" d="M471.4,687.3c0.6-1.5,1.6-2.9,2.7-4c1.1-1.2,2.5-2.1,4-2.7c3.2-1.3,6.8-1.3,9.9,0c1.5,0.6,2.9,1.6,4.1,2.7
	c1.2,1.1,2.1,2.5,2.8,4c1.3,3.2,1.3,6.8,0,10c-0.7,1.5-1.6,2.9-2.8,4.1c-1.2,1.2-2.6,2.1-4.1,2.8c-4.8,2.1-10.3,1-14-2.8
	c-1.2-1.2-2.1-2.6-2.7-4.1C470,694.1,470,690.5,471.4,687.3L471.4,687.3z"/>
<path class="st0" d="M470.4,887.8c1.3-3.1,3.7-5.5,6.8-6.8c3.2-1.3,6.8-1.3,9.9,0c1.5,0.6,2.9,1.6,4.1,2.7c1.2,1.1,2.1,2.5,2.8,4
	c1.3,3.2,1.3,6.8,0,10c-0.7,1.5-1.6,2.9-2.8,4.1c-1.2,1.2-2.6,2.1-4.1,2.8c-3.2,1.3-6.8,1.3-9.9,0c-1.5-0.6-2.9-1.6-4-2.8
	c-1.1-1.2-2.1-2.6-2.7-4.1C469.1,894.5,469.1,890.9,470.4,887.8L470.4,887.8z"/>
<path class="st0" d="M470.6,256.6c1.3-3.1,3.7-5.5,6.8-6.8c3.2-1.3,6.8-1.3,9.9,0c1.5,0.6,2.9,1.6,4.1,2.7c1.2,1.2,2.1,2.5,2.8,4
	c1.3,3.2,1.3,6.8,0,9.9c-1.3,3.1-3.8,5.5-6.8,6.8c-3.2,1.3-6.8,1.3-9.9,0c-1.5-0.7-2.9-1.6-4-2.8c-1.1-1.2-2.1-2.6-2.7-4.1
	C469.3,263.4,469.3,259.8,470.6,256.6L470.6,256.6z"/>
<path class="st0" d="M1171.1,472.9c1.3-3,3.7-5.5,6.8-6.8c3.2-1.3,6.8-1.3,10,0c1.5,0.6,2.9,1.6,4.1,2.7c3.7,3.7,4.8,9.2,2.8,14
	c-1.3,3.1-3.8,5.5-6.8,6.8c-4.8,2-10.3,1-14-2.8c-1.2-1.2-2.1-2.6-2.7-4.1C1169.9,479.6,1169.9,476.1,1171.1,472.9L1171.1,472.9z"/>
<path class="st0" d="M1408.8,687.2c1.3-3.1,3.7-5.5,6.8-6.8c3.2-1.3,6.8-1.3,9.9,0c1.5,0.6,2.9,1.6,4.1,2.7c1.2,1.1,2.1,2.5,2.8,4
	c1.3,3.2,1.3,6.8,0,10c-1.3,3.1-3.8,5.5-6.8,6.8c-3.2,1.3-6.8,1.3-9.9,0c-1.5-0.7-2.9-1.6-4-2.8c-1.1-1.2-2.1-2.6-2.7-4.1
	C1407.5,694,1407.5,690.4,1408.8,687.2L1408.8,687.2z"/>
<path class="st0" d="M1408.8,12.7c1.3-3.1,3.7-5.5,6.8-6.8c3.2-1.3,6.8-1.3,9.9,0c1.5,0.6,2.9,1.6,4.1,2.7c3.7,3.7,4.8,9.2,2.8,14
	c-0.7,1.5-1.6,2.9-2.8,4.1c-1.2,1.2-2.6,2.1-4.1,2.8c-4.8,2-10.3,1-14-2.8c-1.1-1.2-2.1-2.6-2.7-4.1
	C1407.5,19.5,1407.5,15.9,1408.8,12.7L1408.8,12.7z"/>
<path class="st0" d="M1642.9,469.8c0.6-1.5,1.6-2.9,2.7-4c1.1-1.2,2.5-2.1,4-2.7c3.2-1.3,6.8-1.3,9.9,0c1.5,0.6,2.9,1.6,4.1,2.7
	c1.2,1.1,2.1,2.5,2.8,4c1.3,3.2,1.3,6.8,0,10c-0.7,1.5-1.6,2.9-2.8,4.1c-1.2,1.2-2.6,2.1-4.1,2.8c-3.2,1.3-6.8,1.3-9.9,0
	c-1.5-0.6-2.9-1.6-4-2.8c-1.1-1.2-2.1-2.6-2.7-4.1C1641.6,476.5,1641.6,472.9,1642.9,469.8z"/>
<path class="st0" d="M1869.5,10.7c0.6-1.5,1.6-2.9,2.7-4c1.1-1.2,2.5-2.1,4-2.7c3.2-1.3,6.8-1.3,9.9,0c1.5,0.6,2.9,1.6,4.1,2.7
	c1.2,1.1,2.1,2.5,2.8,4c1.3,3.2,1.3,6.8,0,9.9c-0.7,1.5-1.6,2.9-2.8,4.1c-1.2,1.2-2.6,2.1-4.1,2.8c-4.8,2-10.3,1-14-2.8
	c-1.2-1.2-2.1-2.6-2.7-4.1C1868.1,17.5,1868.1,13.9,1869.5,10.7L1869.5,10.7z"/>
<path class="st0" d="M1870.5,257.9c0.6-1.5,1.6-2.9,2.7-4c1.1-1.2,2.5-2.1,4-2.7c3.2-1.3,6.8-1.3,9.9,0c1.5,0.6,2.9,1.6,4.1,2.7
	c3.7,3.7,4.8,9.2,2.8,14c-0.6,1.5-1.6,2.9-2.8,4.1c-1.2,1.2-2.6,2.1-4.1,2.8c-4.8,2.1-10.3,1-14-2.8c-1.2-1.2-2.1-2.6-2.7-4.1
	C1869.1,264.7,1869.1,261.1,1870.5,257.9L1870.5,257.9z"/>
<path class="st0" d="M236,887.8c0.6-1.5,1.6-2.9,2.7-4c1.1-1.2,2.5-2.1,4-2.7c3.2-1.3,6.8-1.3,9.9,0c1.5,0.6,2.9,1.6,4.1,2.7
	c1.2,1.1,2.1,2.5,2.8,4c1.3,3.2,1.3,6.8,0,10c-0.7,1.5-1.6,2.9-2.8,4.1c-1.2,1.2-2.6,2.1-4.1,2.8c-3.2,1.3-6.8,1.3-9.9,0
	c-1.5-0.6-2.9-1.6-4-2.8c-1.2-1.2-2.1-2.6-2.7-4.1C234.6,894.6,234.6,891,236,887.8z"/>
<path class="st0" d="M236,688.3c0.6-1.5,1.6-2.9,2.7-4c1.1-1.2,2.5-2.1,4-2.7c3.2-1.3,6.8-1.3,9.9,0c1.5,0.6,2.9,1.6,4.1,2.7
	c1.2,1.1,2.1,2.5,2.8,4c1.3,3.2,1.3,6.8,0,10c-0.7,1.5-1.6,2.9-2.8,4.1c-1.2,1.2-2.6,2.1-4.1,2.8c-4.8,2.1-10.3,1-14-2.8
	c-1.2-1.2-2.1-2.6-2.7-4.1C234.6,695.1,234.6,691.5,236,688.3L236,688.3z"/>
<path class="st0" d="M238,256.7c1.3-3.1,3.7-5.5,6.8-6.8c3.2-1.3,6.8-1.3,9.9,0c1.5,0.6,2.9,1.6,4.1,2.7c1.2,1.1,2.1,2.5,2.8,4
	c1.3,3.2,1.3,6.8,0,10c-0.7,1.5-1.6,2.9-2.8,4.1c-1.2,1.2-2.6,2.1-4.1,2.8c-3.2,1.3-6.8,1.3-9.9,0c-1.5-0.6-2.9-1.6-4-2.8
	c-1.1-1.2-2.1-2.6-2.7-4.1C236.7,263.4,236.7,259.8,238,256.7L238,256.7z"/>
<path class="st0" d="M704.9,887.8c1.3-3.1,3.7-5.5,6.8-6.8c3.2-1.3,6.8-1.3,9.9,0c1.5,0.6,2.9,1.6,4.1,2.7c3.7,3.7,4.8,9.2,2.8,14
	c-1.3,3.1-3.8,5.5-6.8,6.8c-3.2,1.3-6.8,1.3-9.9,0c-1.5-0.6-2.9-1.6-4-2.8c-1.1-1.2-2.1-2.6-2.7-4.1
	C703.5,894.5,703.5,890.9,704.9,887.8L704.9,887.8z"/>
<path class="st0" d="M704.9,10.9c1.3-3.1,3.7-5.5,6.8-6.8c3.2-1.3,6.8-1.3,9.9,0c1.5,0.6,2.9,1.6,4.1,2.7c1.2,1.2,2.1,2.5,2.8,4.1
	c1.3,3.2,1.3,6.8,0,9.9c-1.3,3.1-3.8,5.5-6.8,6.8c-3.2,1.3-6.8,1.3-9.9,0c-1.5-0.6-2.9-1.6-4-2.8c-1.1-1.2-2.1-2.6-2.7-4.1
	C703.6,17.6,703.6,14,704.9,10.9L704.9,10.9z"/>
<path class="st0" d="M703.9,687.3c1.3-3,3.7-5.5,6.8-6.8c3.2-1.3,6.8-1.3,10,0c1.5,0.6,2.9,1.6,4.1,2.7c3.7,3.7,4.8,9.2,2.8,14
	c-0.7,1.5-1.6,2.9-2.8,4.1c-1.2,1.2-2.6,2.1-4.1,2.8c-4.8,2-10.3,1-14-2.8c-1.1-1.2-2.1-2.6-2.7-4.1
	C702.5,694.1,702.5,690.5,703.9,687.3L703.9,687.3z"/>
<path class="st0" d="M939.3,10.9c1.3-3.1,3.7-5.5,6.8-6.8c3.2-1.3,6.8-1.3,10,0c1.5,0.6,2.9,1.6,4.1,2.7c1.2,1.2,2.1,2.5,2.8,4.1
	c1.3,3.2,1.3,6.8,0,9.9c-1.3,3.1-3.8,5.5-6.8,6.8c-3.2,1.3-6.8,1.3-10,0c-1.5-0.7-2.9-1.6-4-2.8c-1.1-1.2-2.1-2.6-2.7-4.1
	C938,17.6,938,14,939.3,10.9L939.3,10.9z"/>
<path class="st0" d="M939.7,472.9c1.3-3,3.7-5.5,6.8-6.8c3.2-1.3,6.8-1.3,10,0c1.5,0.6,2.9,1.6,4.1,2.7c3.7,3.7,4.8,9.2,2.8,14
	c-0.7,1.5-1.6,2.9-2.8,4.1c-1.2,1.2-2.6,2.1-4.1,2.8c-4.8,2-10.3,1-14-2.8c-1.1-1.2-2.1-2.6-2.7-4.1
	C938.3,479.6,938.3,476.1,939.7,472.9L939.7,472.9z"/>
<path class="st0" d="M1173.8,888.2c1.3-3,3.7-5.5,6.8-6.8c3.2-1.3,6.8-1.3,10,0c1.5,0.6,2.9,1.6,4.1,2.7c3.7,3.7,4.8,9.2,2.8,14
	c-1.3,3.1-3.8,5.5-6.8,6.8c-3.2,1.3-6.8,1.3-10,0c-1.5-0.6-2.9-1.6-4-2.8c-1.1-1.2-2.1-2.6-2.7-4.1
	C1172.5,895,1172.5,891.4,1173.8,888.2L1173.8,888.2z"/>
<path class="st0" d="M1643.2,888.4c1.3-3,3.7-5.5,6.8-6.8c3.2-1.3,6.8-1.3,9.9,0c1.5,0.6,2.9,1.6,4.1,2.7c3.7,3.7,4.8,9.2,2.8,14
	c-1.3,3.1-3.8,5.5-6.8,6.8c-4.8,2.1-10.3,1-14-2.8c-1.1-1.2-2.1-2.6-2.7-4.1C1641.9,895.1,1641.9,891.5,1643.2,888.4L1643.2,888.4z"
	/>
<path class="st0" d="M42.2,238.2v10.6H14.6v13.2h23.9v9.8H14.6v23.6H2.1v-57.1H42.2z"/>
<path class="st0" d="M256.6,444.5c2.4,0,4.7,0.4,6.9,1.2c2,0.8,3.8,1.9,5.3,3.4c1.4,1.4,2.6,3.1,3.4,5c0.8,1.9,1.2,4,1.2,6.1
	c0.1,3-0.7,6.1-2.1,8.7c-1.6,2.6-4,4.6-6.9,5.6v0.2c1.4,0.4,2.7,1.1,3.8,2c1,0.9,1.9,1.9,2.5,3.1c0.7,1.3,1.1,2.6,1.4,4
	c0.3,1.4,0.5,2.9,0.6,4.3c0,0.9,0.1,2,0.2,3.2s0.1,2.5,0.3,3.8c0.1,1.2,0.3,2.4,0.6,3.6c0.2,1,0.7,2,1.3,2.9h-12.6
	c-0.8-2.1-1.2-4.3-1.3-6.5c-0.2-2.5-0.4-4.9-0.7-7.2c-0.4-3-1.3-5.2-2.7-6.6s-3.6-2.1-6.8-2.1h-12.6v22.3h-12.6v-57.2H256.6z
	 M252.1,470.4c2.9,0,5-0.6,6.5-1.9s2.2-3.4,2.2-6.2c0-2.8-0.7-4.8-2.2-6c-1.4-1.3-3.6-1.9-6.5-1.9h-13.8v16.1L252.1,470.4z"/>
<path class="st0" d="M969.1,233.3v10.6H939v12.2h27.7v9.8H939v14h30.8v10.6h-43.4v-57.1H969.1z"/>
<path class="st0" d="M734.7,448.5V459h-30.2v12.2h27.7v9.8h-27.7v14h30.8v10.5H692v-57.1H734.7z"/>
<path class="st0" d="M1172.1,708.7c0.7,1.3,1.6,2.4,2.8,3.2c1.2,0.9,2.6,1.5,4,1.8c1.6,0.4,3.2,0.6,4.8,0.6c1.2,0,2.4-0.1,3.6-0.3
	c1.2-0.2,2.5-0.5,3.6-1.1c1.1-0.5,2-1.3,2.8-2.2c0.8-1,1.2-2.3,1.1-3.6c0.1-1.4-0.5-2.8-1.5-3.8c-1.1-1-2.4-1.9-3.9-2.4
	c-1.8-0.7-3.6-1.3-5.4-1.7c-2-0.5-4.1-1-6.2-1.6c-2.1-0.5-4.2-1.2-6.2-2c-1.9-0.7-3.8-1.7-5.4-3c-1.6-1.2-2.9-2.8-3.9-4.6
	c-1-2.1-1.5-4.3-1.4-6.6c-0.1-2.7,0.6-5.3,1.9-7.6c1.2-2.1,2.9-4,4.9-5.4c2.1-1.5,4.4-2.6,6.9-3.2c2.5-0.7,5.1-1,7.7-1
	c2.9,0,5.8,0.3,8.6,1c2.6,0.6,5.1,1.7,7.3,3.2c2.1,1.5,3.9,3.4,5.1,5.7c1.3,2.6,2,5.5,1.9,8.4h-12.2c0-1.5-0.4-2.9-1.1-4.2
	c-0.6-1.1-1.4-2-2.4-2.6c-1.1-0.7-2.2-1.1-3.5-1.4c-1.4-0.3-2.8-0.4-4.3-0.4c-1,0-2,0.1-3,0.3c-1,0.2-1.9,0.6-2.8,1.1
	c-0.8,0.5-1.5,1.2-2,2c-0.6,0.9-0.8,1.9-0.8,3c0,0.9,0.2,1.9,0.6,2.7c0.6,0.9,1.5,1.5,2.5,1.9c1.7,0.7,3.4,1.3,5.2,1.8
	c2.2,0.6,5.1,1.3,8.7,2.2c1.1,0.2,2.6,0.6,4.4,1.2c2,0.6,3.9,1.5,5.6,2.7c1.9,1.3,3.6,3,4.8,4.9c1.4,2.4,2.1,5.1,2,7.9
	c0,2.5-0.5,5-1.5,7.3c-1,2.3-2.6,4.2-4.5,5.8c-2.2,1.7-4.7,3-7.4,3.8c-3.3,1-6.8,1.4-10.3,1.4c-3.1,0-6.2-0.4-9.2-1.2
	c-2.8-0.7-5.5-1.9-7.8-3.6c-2.3-1.7-4.1-3.8-5.4-6.3c-1.4-2.8-2-6-1.9-9.1h12.2C1171,705.5,1171.4,707.1,1172.1,708.7z"/>
<path class="st0" d="M1396.2,243.1v-10.6h46.8v10.6h-17.1v46.6h-12.6v-46.5H1396.2z"/>
<path class="st0" d="M1868.8,449.3v46.6h27.8v10.6h-40.4v-57.1H1868.8z"/>
<path class="st0" d="M1627.3,658.1h14.1l13.4,22.6l13.3-22.6h14l-21.2,35.2v21.9h-12.6V693L1627.3,658.1z"/>
<path class="st0" d="M2131.1,235v10.6h-30.2v12.2h27.7v9.8h-27.7v14h30.8v10.6h-43.4V235H2131.1z"/>
<path class="st0" d="M10.4,887.8c1.3-3,3.7-5.5,6.8-6.8c3.2-1.4,6.8-1.4,10,0c1.5,0.6,2.9,1.6,4.1,2.7c3.7,3.7,4.8,9.2,2.8,14
	c-1.3,3.1-3.8,5.5-6.8,6.8c-3.2,1.3-6.8,1.3-10,0c-1.5-0.6-2.9-1.6-4-2.8c-1.1-1.2-2.1-2.6-2.7-4.1C9.1,894.5,9.1,890.9,10.4,887.8
	L10.4,887.8z"/>
<path class="st0" d="M10.4,472c0.6-1.5,1.6-2.9,2.7-4c1.1-1.1,2.5-2.1,4-2.7c3.2-1.4,6.8-1.4,10,0c1.5,0.6,2.9,1.6,4.1,2.7
	c3.7,3.7,4.8,9.2,2.8,14c-0.7,1.5-1.6,2.9-2.8,4.1c-1.2,1.2-2.6,2.1-4.1,2.8c-3.2,1.3-6.8,1.3-10,0c-1.5-0.7-2.9-1.6-4-2.8
	c-1.1-1.2-2.1-2.6-2.7-4.1C9,478.8,9,475.2,10.4,472z"/>
<path class="st0" d="M10.4,9.8c1.3-3.1,3.7-5.5,6.8-6.8c3.2-1.3,6.8-1.3,10,0c1.5,0.6,2.9,1.6,4.1,2.7c3.7,3.7,4.8,9.2,2.8,14
	c-1.3,3.1-3.8,5.5-6.8,6.8c-3.2,1.3-6.8,1.3-10,0c-1.5-0.7-2.9-1.6-4-2.8c-1.2-1.2-2.1-2.6-2.7-4.1C9.1,16.6,9.1,13,10.4,9.8
	L10.4,9.8z"/>
<path class="st0" d="M2100.5,692.3c0.6-1.5,1.6-2.8,2.7-4c1.1-1.2,2.5-2.1,4-2.7c3.2-1.3,6.8-1.3,9.9,0c1.5,0.6,2.9,1.6,4.1,2.7
	c3.7,3.7,4.8,9.2,2.8,14c-0.6,1.5-1.6,2.9-2.8,4.1c-1.2,1.2-2.6,2.1-4.1,2.8c-4.8,2.1-10.3,1-14-2.8c-1.2-1.2-2.1-2.6-2.7-4.1
	C2099.1,699.2,2099.1,695.6,2100.5,692.3L2100.5,692.3z"/>
<path class="st0" d="M1869.5,887.2c0.6-1.5,1.6-2.9,2.7-4c1.1-1.2,2.5-2.1,4-2.7c3.2-1.3,6.8-1.3,9.9,0c1.5,0.6,2.9,1.6,4.1,2.7
	c1.2,1.1,2.1,2.5,2.8,4c1.3,3.2,1.3,6.8,0,9.9c-0.7,1.5-1.6,2.9-2.8,4.1c-1.2,1.2-2.6,2.1-4.1,2.8c-4.8,2-10.3,1-14-2.8
	c-1.2-1.2-2.1-2.6-2.7-4.1C1868.1,894,1868.1,890.4,1869.5,887.2L1869.5,887.2z"/>
<path class="st0" d="M2100,473c1.3-3.1,3.7-5.5,6.8-6.8c3.2-1.3,6.8-1.3,10,0c1.5,0.6,2.9,1.6,4.1,2.7c2.4,2.4,3.8,5.6,3.8,9
	c0,1.7-0.3,3.4-1,5c-1.3,3.1-3.8,5.5-6.8,6.8c-3.2,1.3-6.8,1.3-10,0c-1.5-0.7-2.9-1.6-4-2.8c-1.2-1.2-2.1-2.6-2.7-4.1
	C2098.7,479.8,2098.7,476.2,2100,473L2100,473z"/>
</svg>
