<?xml version="1.0" encoding="utf-8"?>
<!-- Generator: Adobe Illustrator 22.0.1, SVG Export Plug-In . SVG Version: 6.00 Build 0)  -->
<svg version="1.1" id="Layer_1" xmlns="http://www.w3.org/2000/svg" xmlns:xlink="http://www.w3.org/1999/xlink" x="0px" y="0px"
	 viewBox="0 0 196.2 200.2" style="enable-background:new 0 0 196.2 200.2;" xml:space="preserve">
<style type="text/css">
	.st0{fill:#FFFFFF;}
</style>
<path class="st0" d="M35,30v128.8h76.4V104h-11V91.6h11v-5.2c0-6,1.9-10.9,5.6-14.7c3.7-3.8,9.4-5.7,16.9-5.7c1.6,0,3.3,0.1,4.9,0.2
	c1.6,0.1,3.2,0.2,4.8,0.3v13.8c-2.2-0.3-4.4-0.4-6.8-0.4c-2.5,0-4.3,0.6-5.4,1.8s-1.6,3.1-1.6,5.9v4h12.7V104h-12.7v54.9h35.8V30H35
	z"/>
</svg>
