<svg id="Layer_1" data-name="Layer 1" xmlns="http://www.w3.org/2000/svg" viewBox="0 0 2408.58 1178.55"><defs><style>.cls-1{fill:#231f20;}</style></defs><title>PSP_logo-Custom-Desktop-06</title><path class="cls-1" d="M372.9,1046.22a12.62,12.62,0,0,1,6.76-6.76,12.73,12.73,0,0,1,9.94,0,13.15,13.15,0,0,1,4.09,2.71,12.8,12.8,0,0,1,2.75,4,12.88,12.88,0,0,1,0,10,12.93,12.93,0,0,1-6.84,6.83,12.85,12.85,0,0,1-9.94,0,12.51,12.51,0,0,1-4-2.76,12.92,12.92,0,0,1-2.72-4.07,12.88,12.88,0,0,1,0-10Z"/><path class="cls-1" d="M372.71,416.53a12.59,12.59,0,0,1,6.76-6.77,12.85,12.85,0,0,1,9.94,0,13.35,13.35,0,0,1,4.09,2.72,12.8,12.8,0,0,1,2.75,4,12.85,12.85,0,0,1,0,9.94,12.91,12.91,0,0,1-6.84,6.84,12.85,12.85,0,0,1-9.94,0,12.55,12.55,0,0,1-4.05-2.76,13.1,13.1,0,0,1-2.71-4.08,12.73,12.73,0,0,1,0-9.94Z"/><path class="cls-1" d="M372.71,632.07a12.59,12.59,0,0,1,6.76-6.77,12.85,12.85,0,0,1,9.94,0A13.35,13.35,0,0,1,393.5,628a12.8,12.8,0,0,1,2.75,4.05,12.85,12.85,0,0,1,0,9.94,12.91,12.91,0,0,1-6.84,6.84,12.85,12.85,0,0,1-9.94,0,12.55,12.55,0,0,1-4.05-2.76,13.1,13.1,0,0,1-2.71-4.08,12.73,12.73,0,0,1,0-9.94Z"/><path class="cls-1" d="M372.9,848a12.56,12.56,0,0,1,2.72-4,12.72,12.72,0,0,1,4-2.72,12.85,12.85,0,0,1,9.94,0,13.18,13.18,0,0,1,4.09,2.72,12.64,12.64,0,0,1,2.75,4,12.88,12.88,0,0,1,0,10,13.16,13.16,0,0,1-2.75,4.08,12.75,12.75,0,0,1-4.09,2.75,12.66,12.66,0,0,1-14-2.75A13.07,13.07,0,0,1,372.9,858a12.88,12.88,0,0,1,0-10Z"/><path class="cls-1" d="M1076.05,415a12.68,12.68,0,0,1,6.76-6.77,12.88,12.88,0,0,1,10,0,13.43,13.43,0,0,1,4.08,2.72,12.75,12.75,0,0,1,2.76,14,13,13,0,0,1-6.84,6.84,12.88,12.88,0,0,1-10,0,12.62,12.62,0,0,1-4-2.76,13.43,13.43,0,0,1-2.72-4.08,12.85,12.85,0,0,1,0-9.94Z"/><path class="cls-1" d="M1076.05,633.67a12.71,12.71,0,0,1,6.76-6.76,12.88,12.88,0,0,1,10,0,13.25,13.25,0,0,1,4.08,2.72,12.75,12.75,0,0,1,2.76,14,12.93,12.93,0,0,1-6.84,6.83,12.76,12.76,0,0,1-10,0,12.59,12.59,0,0,1-4-2.75,13.43,13.43,0,0,1-2.72-4.08,12.88,12.88,0,0,1,0-10Z"/><path class="cls-1" d="M1309.75,416.41a12.71,12.71,0,0,1,6.76-6.76,12.88,12.88,0,0,1,10,0,13.25,13.25,0,0,1,4.08,2.72,12.75,12.75,0,0,1,2.76,14,13,13,0,0,1-2.76,4.08,12.82,12.82,0,0,1-4.08,2.75,12.67,12.67,0,0,1-14-2.75,13.43,13.43,0,0,1-2.72-4.08,12.88,12.88,0,0,1,0-9.95Z"/><path class="cls-1" d="M1309.16,630.39a12.71,12.71,0,0,1,2.72-4,12.89,12.89,0,0,1,4-2.72,12.88,12.88,0,0,1,9.95,0,13.43,13.43,0,0,1,4.08,2.72,12.8,12.8,0,0,1,2.75,4,12.85,12.85,0,0,1,0,9.94,12.93,12.93,0,0,1-6.83,6.84,12.64,12.64,0,0,1-14-2.76,13,13,0,0,1-2.72-4.08,12.85,12.85,0,0,1,0-9.94Z"/><path class="cls-1" d="M1545,416.41a12.89,12.89,0,0,1,2.72-4,12.72,12.72,0,0,1,4-2.72,12.88,12.88,0,0,1,10,0,13.25,13.25,0,0,1,4.08,2.72,12.76,12.76,0,0,1,2.75,14,12.87,12.87,0,0,1-6.83,6.83,12.67,12.67,0,0,1-14-2.75,13.43,13.43,0,0,1-2.72-4.08,12.88,12.88,0,0,1,0-9.95Z"/><path class="cls-1" d="M1778.65,633.56a13.05,13.05,0,0,1,2.72-4,12.89,12.89,0,0,1,4-2.72,12.88,12.88,0,0,1,9.95,0,13.43,13.43,0,0,1,4.08,2.72,12.71,12.71,0,0,1,2.75,14,12.71,12.71,0,0,1-2.75,4.08,13,13,0,0,1-4.08,2.76,12.64,12.64,0,0,1-14-2.76,13.31,13.31,0,0,1-2.72-4.08,12.85,12.85,0,0,1,0-9.94Z"/><path class="cls-1" d="M147.46,1045.22a12.59,12.59,0,0,1,6.76-6.77,12.85,12.85,0,0,1,9.94,0,13.31,13.31,0,0,1,4.08,2.72,12.66,12.66,0,0,1,2.76,4,12.85,12.85,0,0,1,0,9.94,13,13,0,0,1-6.84,6.84,12.85,12.85,0,0,1-9.94,0,12.55,12.55,0,0,1-4.05-2.76,13.1,13.1,0,0,1-2.71-4.08,12.73,12.73,0,0,1,0-9.94Z"/><path class="cls-1" d="M148.46,849a12.7,12.7,0,0,1,2.71-4,12.88,12.88,0,0,1,4.05-2.72,12.85,12.85,0,0,1,9.94,0,13.18,13.18,0,0,1,4.09,2.72,12.64,12.64,0,0,1,2.75,4,12.88,12.88,0,0,1,0,10,13.16,13.16,0,0,1-2.75,4.08,13,13,0,0,1-4.09,2.76,12.66,12.66,0,0,1-14-2.76,13.22,13.22,0,0,1-2.71-4.08,12.76,12.76,0,0,1,0-10Z"/><path class="cls-1" d="M147.46,416.47a12.62,12.62,0,0,1,6.76-6.76,12.85,12.85,0,0,1,9.94,0,13.13,13.13,0,0,1,4.08,2.72,12.75,12.75,0,0,1,2.76,14,13,13,0,0,1-2.76,4.08,12.87,12.87,0,0,1-4.08,2.75,12.85,12.85,0,0,1-9.94,0,12.52,12.52,0,0,1-4.05-2.75,13.22,13.22,0,0,1-2.71-4.08,12.76,12.76,0,0,1,0-9.95Z"/><path class="cls-1" d="M147.46,631.91a12.53,12.53,0,0,1,6.76-6.76,12.73,12.73,0,0,1,9.94,0,13.1,13.1,0,0,1,4.08,2.71,12.66,12.66,0,0,1,2.76,4,12.88,12.88,0,0,1,0,10,12.93,12.93,0,0,1-6.84,6.83,12.85,12.85,0,0,1-9.94,0,12.68,12.68,0,0,1-4.05-2.75,13.22,13.22,0,0,1-2.71-4.08,12.76,12.76,0,0,1,0-10Z"/><path class="cls-1" d="M2007,416.47a12.71,12.71,0,0,1,6.76-6.76,12.88,12.88,0,0,1,10,0,13.25,13.25,0,0,1,4.08,2.72,12.75,12.75,0,0,1,2.76,14,12.93,12.93,0,0,1-6.84,6.83,12.88,12.88,0,0,1-10,0,12.59,12.59,0,0,1-4-2.75,13.43,13.43,0,0,1-2.72-4.08,12.88,12.88,0,0,1,0-9.95Z"/><path class="cls-1" d="M2005.93,633.56a12.68,12.68,0,0,1,6.76-6.77,12.88,12.88,0,0,1,10,0,13.43,13.43,0,0,1,4.08,2.72,12.66,12.66,0,0,1,2.76,4,12.85,12.85,0,0,1,0,9.94,13,13,0,0,1-6.84,6.84,12.88,12.88,0,0,1-10,0,12.62,12.62,0,0,1-4-2.76,13.31,13.31,0,0,1-2.72-4.08,12.85,12.85,0,0,1,0-9.94Z"/><path class="cls-1" d="M2237.58,853.05a12.68,12.68,0,0,1,6.76-6.77,12.88,12.88,0,0,1,9.95,0,13.43,13.43,0,0,1,4.08,2.72,12.76,12.76,0,0,1,2.75,14,12.82,12.82,0,0,1-2.75,4.08,13,13,0,0,1-4.08,2.76,12.64,12.64,0,0,1-14-2.76,13.25,13.25,0,0,1-2.72-4.08,12.85,12.85,0,0,1,0-9.94Z"/><path class="cls-1" d="M2237.58,416.47a12.71,12.71,0,0,1,6.76-6.76,12.88,12.88,0,0,1,9.95,0,13.25,13.25,0,0,1,4.08,2.72,12.76,12.76,0,0,1,2.75,14,12.82,12.82,0,0,1-2.75,4.08,13,13,0,0,1-4.08,2.75,12.67,12.67,0,0,1-14-2.75,13.25,13.25,0,0,1-2.72-4.08,12.88,12.88,0,0,1,0-9.95Z"/><path class="cls-1" d="M2237.58,631.91a12.88,12.88,0,0,1,2.72-4,12.7,12.7,0,0,1,4-2.71,12.76,12.76,0,0,1,9.95,0,13.22,13.22,0,0,1,4.08,2.71,12.78,12.78,0,0,1,2.75,14,12.82,12.82,0,0,1-2.75,4.08,13.16,13.16,0,0,1-4.08,2.75,12.88,12.88,0,0,1-9.95,0,12.64,12.64,0,0,1-4-2.75,13.25,13.25,0,0,1-2.72-4.08,12.88,12.88,0,0,1,0-10Z"/><path class="cls-1" d="M607.35,1048.22a12.7,12.7,0,0,1,2.71-4,12.88,12.88,0,0,1,4.05-2.72,12.85,12.85,0,0,1,9.94,0,13.18,13.18,0,0,1,4.09,2.72,12.64,12.64,0,0,1,2.75,4,12.88,12.88,0,0,1,0,10,13.16,13.16,0,0,1-2.75,4.08,12.92,12.92,0,0,1-4.09,2.75,12.85,12.85,0,0,1-9.94,0,12.63,12.63,0,0,1-4.05-2.75,13.22,13.22,0,0,1-2.71-4.08,12.76,12.76,0,0,1,0-10Z"/><path class="cls-1" d="M610.35,632.67a12.56,12.56,0,0,1,2.72-4,12.72,12.72,0,0,1,4-2.72,12.88,12.88,0,0,1,9.95,0,13.25,13.25,0,0,1,4.08,2.72,12.64,12.64,0,0,1,2.75,4,12.88,12.88,0,0,1,0,10,13.16,13.16,0,0,1-2.75,4.08,13,13,0,0,1-4.08,2.75,12.67,12.67,0,0,1-14-2.75,13.07,13.07,0,0,1-2.72-4.08,12.88,12.88,0,0,1,0-10Z"/><path class="cls-1" d="M372.9,169.4a12.67,12.67,0,0,1,2.72-4,12.89,12.89,0,0,1,4-2.72,12.85,12.85,0,0,1,9.94,0,13.35,13.35,0,0,1,4.09,2.72,12.75,12.75,0,0,1,2.75,4,12.88,12.88,0,0,1,0,9.95,13.16,13.16,0,0,1-2.75,4.08,13,13,0,0,1-4.09,2.76,12.63,12.63,0,0,1-14-2.76,13.07,13.07,0,0,1-2.72-4.08,12.88,12.88,0,0,1,0-9.95Z"/><path class="cls-1" d="M1075.24,170.29a12.71,12.71,0,0,1,6.76-6.76,12.88,12.88,0,0,1,10,0,13.25,13.25,0,0,1,4.08,2.72,12.75,12.75,0,0,1,2.76,14,12.93,12.93,0,0,1-6.84,6.83,12.88,12.88,0,0,1-10,0,12.59,12.59,0,0,1-4-2.75,13.43,13.43,0,0,1-2.72-4.08,12.88,12.88,0,0,1,0-10Z"/><path class="cls-1" d="M1310.69,169.29a13.05,13.05,0,0,1,2.72-4,12.81,12.81,0,0,1,4-2.71,12.76,12.76,0,0,1,10,0,13.22,13.22,0,0,1,4.08,2.71,12.76,12.76,0,0,1,2.76,14,13,13,0,0,1-2.76,4.08,13.16,13.16,0,0,1-4.08,2.75,12.88,12.88,0,0,1-10,0,12.75,12.75,0,0,1-4-2.75,13.43,13.43,0,0,1-2.72-4.08,12.88,12.88,0,0,1,0-10Z"/><path class="cls-1" d="M1544.14,170.29a12.89,12.89,0,0,1,2.72-4,12.72,12.72,0,0,1,4-2.72,12.88,12.88,0,0,1,9.95,0,13.25,13.25,0,0,1,4.08,2.72,12.71,12.71,0,0,1,2.75,14,12.82,12.82,0,0,1-2.75,4.08,13,13,0,0,1-4.08,2.75,12.67,12.67,0,0,1-14-2.75,13.43,13.43,0,0,1-2.72-4.08,12.88,12.88,0,0,1,0-10Z"/><path class="cls-1" d="M1778.59,170.29a12.71,12.71,0,0,1,6.76-6.76,12.88,12.88,0,0,1,10,0,13.25,13.25,0,0,1,4.08,2.72,12.76,12.76,0,0,1,2.75,14,12.82,12.82,0,0,1-2.75,4.08,13,13,0,0,1-4.08,2.75,12.67,12.67,0,0,1-14-2.75,13.25,13.25,0,0,1-2.72-4.08,12.88,12.88,0,0,1,0-10Z"/><path class="cls-1" d="M147.46,170.4a12.62,12.62,0,0,1,6.76-6.76,12.85,12.85,0,0,1,9.94,0,13.31,13.31,0,0,1,4.08,2.72,12.73,12.73,0,0,1,2.76,4,12.88,12.88,0,0,1,0,9.95,13,13,0,0,1-6.84,6.84,12.85,12.85,0,0,1-9.94,0,12.55,12.55,0,0,1-4.05-2.76,13.22,13.22,0,0,1-2.71-4.08,12.76,12.76,0,0,1,0-9.95Z"/><path class="cls-1" d="M2005,170.4a13.12,13.12,0,0,1,2.72-4,12.89,12.89,0,0,1,4-2.72,12.88,12.88,0,0,1,10,0,13.43,13.43,0,0,1,4.08,2.72,12.51,12.51,0,0,1,3.76,9,12.57,12.57,0,0,1-1,5,13,13,0,0,1-6.84,6.84,12.64,12.64,0,0,1-14-2.76,13.43,13.43,0,0,1-2.72-4.08,12.88,12.88,0,0,1,0-9.95Z"/><path class="cls-1" d="M2236.58,168.4a12.71,12.71,0,0,1,6.76-6.76,12.88,12.88,0,0,1,9.95,0,13.25,13.25,0,0,1,4.08,2.72,12.76,12.76,0,0,1,2.75,14,12.82,12.82,0,0,1-2.75,4.08,13,13,0,0,1-4.08,2.76,12.64,12.64,0,0,1-14-2.76,13.25,13.25,0,0,1-2.72-4.08,12.88,12.88,0,0,1,0-9.95Z"/><path class="cls-1" d="M607.35,170.4a12.62,12.62,0,0,1,6.76-6.76,12.85,12.85,0,0,1,9.94,0,13.35,13.35,0,0,1,4.09,2.72,12.86,12.86,0,0,1,2.75,4,12.88,12.88,0,0,1,0,9.95,13.16,13.16,0,0,1-2.75,4.08,13,13,0,0,1-4.09,2.76,12.85,12.85,0,0,1-9.94,0,12.66,12.66,0,0,1-4.05-2.76,13.22,13.22,0,0,1-2.71-4.08,12.76,12.76,0,0,1,0-9.95Z"/><path class="cls-1" d="M840.79,170.4a12.71,12.71,0,0,1,6.76-6.76,12.88,12.88,0,0,1,10,0,13.43,13.43,0,0,1,4.08,2.72,12.73,12.73,0,0,1,2.76,4,12.88,12.88,0,0,1,0,9.95,13,13,0,0,1-6.84,6.84,12.88,12.88,0,0,1-10,0,12.62,12.62,0,0,1-4-2.76,13.43,13.43,0,0,1-2.72-4.08,12.88,12.88,0,0,1,0-9.95Z"/><path class="cls-1" d="M840.79,1047.22a13.05,13.05,0,0,1,2.72-4,12.81,12.81,0,0,1,4-2.71,12.76,12.76,0,0,1,10,0,13.22,13.22,0,0,1,4.08,2.71,12.66,12.66,0,0,1,2.76,4,12.88,12.88,0,0,1,0,10,13,13,0,0,1-2.76,4.08,13.16,13.16,0,0,1-4.08,2.75,12.88,12.88,0,0,1-10,0,12.75,12.75,0,0,1-4-2.75,13.43,13.43,0,0,1-2.72-4.08,12.88,12.88,0,0,1,0-10Z"/><path class="cls-1" d="M841.6,416.53a12.68,12.68,0,0,1,6.76-6.77,12.88,12.88,0,0,1,9.95,0,13.43,13.43,0,0,1,4.08,2.72,12.66,12.66,0,0,1,2.76,4,12.85,12.85,0,0,1,0,9.94,13,13,0,0,1-6.84,6.84,12.88,12.88,0,0,1-9.95,0,12.62,12.62,0,0,1-4-2.76,13.31,13.31,0,0,1-2.72-4.08,12.85,12.85,0,0,1,0-9.94Z"/><path class="cls-1" d="M2006.18,847.62a12.68,12.68,0,0,1,6.77-6.76,12.85,12.85,0,0,1,9.94,0,13.25,13.25,0,0,1,4.08,2.72,12.75,12.75,0,0,1,2.76,14,12.93,12.93,0,0,1-6.84,6.83,12.85,12.85,0,0,1-9.94,0,12.52,12.52,0,0,1-4-2.75,13.43,13.43,0,0,1-2.72-4.08,12.88,12.88,0,0,1,0-10Z"/><path class="cls-1" d="M1779.4,847.62a12.71,12.71,0,0,1,6.76-6.76,12.88,12.88,0,0,1,9.95,0,13.25,13.25,0,0,1,4.08,2.72,12.76,12.76,0,0,1,2.75,14,12.82,12.82,0,0,1-2.75,4.08,13,13,0,0,1-4.08,2.75,12.67,12.67,0,0,1-14-2.75,13.25,13.25,0,0,1-2.72-4.08,12.88,12.88,0,0,1,0-10Z"/><path class="cls-1" d="M1545,847.62a12.89,12.89,0,0,1,2.72-4,12.72,12.72,0,0,1,4-2.72,12.88,12.88,0,0,1,10,0,13.25,13.25,0,0,1,4.08,2.72,12.71,12.71,0,0,1,2.75,14,12.82,12.82,0,0,1-2.75,4.08,13,13,0,0,1-4.08,2.75,12.67,12.67,0,0,1-14-2.75,13.43,13.43,0,0,1-2.72-4.08,12.88,12.88,0,0,1,0-10Z"/><path class="cls-1" d="M607.35,847a12.7,12.7,0,0,1,2.71-4,12.88,12.88,0,0,1,4.05-2.72,12.85,12.85,0,0,1,9.94,0,13.18,13.18,0,0,1,4.09,2.72,12.64,12.64,0,0,1,2.75,4,12.88,12.88,0,0,1,0,10,13.16,13.16,0,0,1-2.75,4.08,12.92,12.92,0,0,1-4.09,2.75,12.73,12.73,0,0,1-9.94,0,12.63,12.63,0,0,1-4.05-2.75,13.22,13.22,0,0,1-2.71-4.08,12.76,12.76,0,0,1,0-10Z"/><path class="cls-1" d="M840.79,849a12.71,12.71,0,0,1,6.76-6.76,12.88,12.88,0,0,1,10,0,13.25,13.25,0,0,1,4.08,2.72,12.75,12.75,0,0,1,2.76,14,13,13,0,0,1-6.84,6.84,12.64,12.64,0,0,1-14-2.76,13.43,13.43,0,0,1-2.72-4.08,12.88,12.88,0,0,1,0-10Z"/><path class="cls-1" d="M631.45,408.26a12.58,12.58,0,0,0-2.8-3.16,12.73,12.73,0,0,0-3.8-2.12,13,13,0,0,0-4.44-.76,14.68,14.68,0,0,0-7.2,1.64,13.45,13.45,0,0,0-4.8,4.4,19.18,19.18,0,0,0-2.68,6.28,31.19,31.19,0,0,0-.84,7.28,29.1,29.1,0,0,0,.84,7,19,19,0,0,0,2.68,6.12,13.72,13.72,0,0,0,4.8,4.36,14.68,14.68,0,0,0,7.2,1.64q5.76,0,9-3.52a16.29,16.29,0,0,0,4-9.28h12.16a29.14,29.14,0,0,1-2.48,9.68,23.43,23.43,0,0,1-5.28,7.36,22.66,22.66,0,0,1-7.68,4.64,28.33,28.33,0,0,1-9.68,1.6,29.26,29.26,0,0,1-11.8-2.28,25.18,25.18,0,0,1-8.84-6.28,27.83,27.83,0,0,1-5.52-9.4,34.5,34.5,0,0,1-1.92-11.64,35.66,35.66,0,0,1,1.92-11.88,28.47,28.47,0,0,1,5.52-9.56,25.22,25.22,0,0,1,8.84-6.4,30.63,30.63,0,0,1,20.72-1,23.94,23.94,0,0,1,7.52,4,21.41,21.41,0,0,1,5.48,6.44,23.12,23.12,0,0,1,2.72,8.8H632.89A10.48,10.48,0,0,0,631.45,408.26Z"/><path class="cls-1" d="M870.45,661.24q-6.48,5.64-17.92,5.64-11.61,0-18-5.6T828.21,644V608.48h12.56V644a25.52,25.52,0,0,0,.4,4.56,8.87,8.87,0,0,0,5.24,6.76,14.47,14.47,0,0,0,6.12,1.08q6.72,0,9.28-3c1.7-2,2.56-5.13,2.56-9.4V608.48h12.56V644Q876.93,655.6,870.45,661.24Z"/><path class="cls-1" d="M1074,863.84a9.15,9.15,0,0,0,2.75,3.24,12.17,12.17,0,0,0,4,1.84,19.13,19.13,0,0,0,4.8.6,24.79,24.79,0,0,0,3.61-.28,12.77,12.77,0,0,0,3.59-1.08,7.91,7.91,0,0,0,2.8-2.2,5.49,5.49,0,0,0,1.12-3.56,5,5,0,0,0-1.47-3.76,11.77,11.77,0,0,0-3.88-2.4,39.16,39.16,0,0,0-5.45-1.68c-2-.48-4.08-1-6.16-1.6a55.12,55.12,0,0,1-6.24-2,21.12,21.12,0,0,1-5.43-3,13.5,13.5,0,0,1-5.37-11.28,15,15,0,0,1,1.88-7.64,17.19,17.19,0,0,1,4.92-5.4,21.4,21.4,0,0,1,6.88-3.2,29.06,29.06,0,0,1,7.69-1,36.08,36.08,0,0,1,8.59,1,21.66,21.66,0,0,1,7.33,3.24,16.46,16.46,0,0,1,5.08,5.72,17.57,17.57,0,0,1,1.88,8.44h-12.17a9.89,9.89,0,0,0-1.08-4.24,7,7,0,0,0-2.43-2.64,10.26,10.26,0,0,0-3.49-1.36,21.11,21.11,0,0,0-4.28-.4,15,15,0,0,0-3,.32,8.19,8.19,0,0,0-2.76,1.12,7.07,7.07,0,0,0-2,2,5.39,5.39,0,0,0-.8,3,5.21,5.21,0,0,0,.64,2.72,5.78,5.78,0,0,0,2.53,1.92,32.85,32.85,0,0,0,5.2,1.76q3.32.87,8.67,2.24c1.07.21,2.55.6,4.45,1.16a21.27,21.27,0,0,1,5.64,2.68,17.18,17.18,0,0,1,4.83,4.92,13.92,13.92,0,0,1,2,7.88,17.51,17.51,0,0,1-1.51,7.28,15.94,15.94,0,0,1-4.53,5.8,21.82,21.82,0,0,1-7.44,3.8,35.34,35.34,0,0,1-10.27,1.36A36.16,36.16,0,0,1,1076,878a23,23,0,0,1-7.84-3.64,18.1,18.1,0,0,1-5.41-6.32,18.94,18.94,0,0,1-1.92-9.12H1073A10.39,10.39,0,0,0,1074,863.84Z"/><path class="cls-1" d="M1297.53,837.92V827.36h46.8v10.56h-17.12v46.56h-12.56V837.92Z"/><path class="cls-1" d="M1530.75,625a28.57,28.57,0,0,1,5.52-9.56,25.31,25.31,0,0,1,8.84-6.4,31.27,31.27,0,0,1,23.64,0,25.34,25.34,0,0,1,8.8,6.4,28.57,28.57,0,0,1,5.52,9.56,35.75,35.75,0,0,1,1.92,11.88,34.5,34.5,0,0,1-1.92,11.64,27.74,27.74,0,0,1-5.52,9.4,25.3,25.3,0,0,1-8.8,6.28,31.78,31.78,0,0,1-23.64,0,25.27,25.27,0,0,1-8.84-6.28,27.74,27.74,0,0,1-5.52-9.4,34.5,34.5,0,0,1-1.92-11.64A35.75,35.75,0,0,1,1530.75,625Zm11.48,18.88a19,19,0,0,0,2.68,6.12,13.7,13.7,0,0,0,4.8,4.36,16.62,16.62,0,0,0,14.4,0,13.53,13.53,0,0,0,4.8-4.36,18.78,18.78,0,0,0,2.68-6.12,29,29,0,0,0,.84-7,31.32,31.32,0,0,0-.84-7.28,19.27,19.27,0,0,0-2.68-6.28,13.54,13.54,0,0,0-4.8-4.4,16.62,16.62,0,0,0-14.4,0,13.71,13.71,0,0,0-4.8,4.4,19.49,19.49,0,0,0-2.68,6.28,31.32,31.32,0,0,0-.84,7.28A29,29,0,0,0,1542.23,643.84Z"/><path class="cls-1" d="M1778.09,392.86l13.36,39.28h.16l12.64-39.28h17.68V450h-11.76V409.5H1810L1796,450h-9.68l-14-40.08h-.16V450h-11.76V392.86Z"/></svg>