<?xml version="1.0" encoding="utf-8"?>
<!-- Generator: Adobe Illustrator 22.0.1, SVG Export Plug-In . SVG Version: 6.00 Build 0)  -->
<svg version="1.1" id="Layer_1" xmlns="http://www.w3.org/2000/svg" xmlns:xlink="http://www.w3.org/1999/xlink" x="0px" y="0px"
	 viewBox="0 0 177.8 187.5" style="enable-background:new 0 0 177.8 187.5;" xml:space="preserve">
<style type="text/css">
	.st0{fill:#FFFFFF;}
</style>
<path class="st0" d="M151.1,70.8c0,0,16.1,43.1-32,80.2c-16,12.3-32.6,16.4-47.7,16.4c-30.4,0-54.7-16.7-54.7-16.7
	c37.7-2.6,35.6-15.5,35.6-15.5C-4.2,89.9,23.5,48.1,23.5,48.1C45.5,74.9,85.7,76,85.7,76c2.8-16.1,1.5-23.8,19.7-33.5
	c5.3-2.8,10.4-3.9,14.9-3.9c13.8,0,23.4,9.6,23.4,9.6l22,2L151.1,70.8z"/>
</svg>
