<?xml version="1.0" encoding="utf-8"?>
<!-- Generator: Adobe Illustrator 22.0.1, SVG Export Plug-In . SVG Version: 6.00 Build 0)  -->
<svg version="1.1" id="Layer_1" xmlns="http://www.w3.org/2000/svg" xmlns:xlink="http://www.w3.org/1999/xlink" x="0px" y="0px"
	 viewBox="0 0 2128 914.2" style="enable-background:new 0 0 2128 914.2;" xml:space="preserve">
<style type="text/css">
	.st0{fill:#231F20;}
</style>
<path class="st0" d="M229.7,890.2c0.6-1.5,1.6-2.9,2.7-4c1.1-1.2,2.5-2.1,4-2.7c3.2-1.3,6.8-1.3,9.9,0c1.5,0.6,2.9,1.6,4.1,2.7
	c1.2,1.1,2.1,2.5,2.8,4c1.3,3.2,1.3,6.8,0,10c-0.7,1.5-1.6,2.9-2.8,4.1c-1.2,1.2-2.6,2.1-4.1,2.8c-4.8,2.1-10.3,1-14-2.8
	c-1.2-1.2-2.1-2.6-2.7-4.1C228.3,897,228.3,893.4,229.7,890.2L229.7,890.2z"/>
<path class="st0" d="M229.5,260.5c1.3-3.1,3.7-5.5,6.8-6.8c3.2-1.3,6.8-1.3,9.9,0c1.5,0.6,2.9,1.6,4.1,2.7c1.2,1.1,2.1,2.5,2.8,4
	c1.3,3.2,1.3,6.8,0,10c-0.7,1.5-1.6,2.9-2.8,4.1c-1.2,1.2-2.6,2.1-4.1,2.8c-4.8,2-10.3,1-14-2.8c-1.1-1.2-2.1-2.6-2.7-4.1
	C228.2,267.2,228.2,263.6,229.5,260.5L229.5,260.5z"/>
<path class="st0" d="M229.5,476c1.3-3.1,3.7-5.5,6.8-6.8c3.2-1.3,6.8-1.3,9.9,0c1.5,0.6,2.9,1.6,4.1,2.7c1.2,1.1,2.1,2.5,2.8,4
	c1.3,3.2,1.3,6.8,0,10c-0.7,1.5-1.6,2.9-2.8,4.1c-1.2,1.2-2.6,2.1-4.1,2.8c-4.8,2-10.3,1-14-2.8c-1.1-1.2-2.1-2.6-2.7-4.1
	C228.2,482.7,228.2,479.1,229.5,476L229.5,476z"/>
<path class="st0" d="M229.7,692c0.6-1.5,1.6-2.9,2.7-4c1.1-1.2,2.5-2.1,4-2.7c3.2-1.3,6.8-1.3,9.9,0c1.5,0.6,2.9,1.6,4.1,2.7
	c1.2,1.1,2.1,2.5,2.8,4c1.3,3.2,1.3,6.8,0,9.9c-1.3,3.1-3.8,5.5-6.8,6.8c-3.2,1.3-6.8,1.3-9.9,0c-1.5-0.6-2.9-1.6-4-2.8
	c-1.2-1.2-2.1-2.6-2.7-4.1C228.4,698.7,228.4,695.2,229.7,692z"/>
<path class="st0" d="M932.9,258.9c1.3-3,3.7-5.5,6.8-6.8c3.2-1.3,6.8-1.3,10,0c1.5,0.6,2.9,1.6,4.1,2.7c3.7,3.7,4.8,9.2,2.8,14
	c-1.3,3.1-3.8,5.5-6.8,6.8c-3.2,1.3-6.8,1.3-10,0c-1.5-0.6-2.9-1.6-4-2.8c-1.1-1.2-2.1-2.6-2.7-4.1
	C931.6,265.7,931.6,262.1,932.9,258.9L932.9,258.9z"/>
<path class="st0" d="M932.9,477.6c1.3-3.1,3.7-5.5,6.8-6.8c3.2-1.3,6.8-1.3,10,0c1.5,0.6,2.9,1.6,4.1,2.7c3.7,3.7,4.8,9.2,2.8,14
	c-1.3,3.1-3.8,5.5-6.8,6.8c-3.2,1.3-6.8,1.3-10,0c-1.5-0.7-2.9-1.6-4-2.8c-1.1-1.2-2.1-2.6-2.7-4.1
	C931.6,484.4,931.6,480.8,932.9,477.6L932.9,477.6z"/>
<path class="st0" d="M1166.6,260.4c1.3-3.1,3.7-5.5,6.8-6.8c3.2-1.3,6.8-1.3,10,0c1.5,0.6,2.9,1.6,4.1,2.7c2.4,2.4,3.8,5.6,3.8,9
	c0,1.7-0.3,3.4-1,5c-1.3,3.1-3.8,5.5-6.8,6.8c-3.2,1.3-6.8,1.3-10,0c-1.5-0.7-2.9-1.6-4-2.8c-1.2-1.2-2.1-2.6-2.7-4.1
	C1165.3,267.1,1165.3,263.5,1166.6,260.4L1166.6,260.4z"/>
<path class="st0" d="M1166,474.3c0.6-1.5,1.6-2.9,2.7-4c1.1-1.2,2.5-2.1,4-2.7c3.2-1.3,6.8-1.3,9.9,0c1.5,0.6,2.9,1.6,4.1,2.7
	c1.2,1.1,2.1,2.5,2.8,4c1.3,3.2,1.3,6.8,0,10c-0.7,1.5-1.6,2.9-2.8,4.1c-1.2,1.2-2.6,2.1-4.1,2.8c-4.8,2-10.3,1-14-2.8
	c-1.2-1.2-2.1-2.6-2.7-4.1C1164.6,481.1,1164.6,477.5,1166,474.3L1166,474.3z"/>
<path class="st0" d="M1401.8,260.4c0.6-1.5,1.6-2.9,2.7-4c1.1-1.2,2.5-2.1,4-2.7c3.2-1.3,6.8-1.3,10,0c1.5,0.6,2.9,1.6,4.1,2.7
	c2.4,2.4,3.8,5.6,3.8,9c0,1.7-0.3,3.4-1,5c-0.6,1.5-1.6,2.9-2.8,4.1c-1.2,1.2-2.6,2.1-4.1,2.8c-4.8,2.1-10.3,1-14-2.8
	c-1.2-1.2-2.1-2.6-2.7-4.1C1400.5,267.1,1400.5,263.5,1401.8,260.4L1401.8,260.4z"/>
<path class="st0" d="M1635.5,477.5c0.6-1.5,1.6-2.9,2.7-4c1.1-1.2,2.5-2.1,4-2.7c3.2-1.3,6.8-1.3,9.9,0c1.5,0.6,2.9,1.6,4.1,2.7
	c3.7,3.7,4.8,9.2,2.8,14c-0.6,1.5-1.6,2.9-2.8,4.1c-1.2,1.2-2.6,2.1-4.1,2.8c-4.8,2-10.3,1-14-2.8c-1.1-1.2-2.1-2.6-2.7-4.1
	C1634.1,484.3,1634.1,480.7,1635.5,477.5L1635.5,477.5z"/>
<path class="st0" d="M4.3,889.2c1.3-3.1,3.7-5.5,6.8-6.8c3.2-1.3,6.8-1.3,9.9,0c1.5,0.6,2.9,1.6,4.1,2.7c3.7,3.7,4.8,9.2,2.8,14
	c-0.7,1.5-1.6,2.9-2.8,4.1c-1.2,1.2-2.6,2.1-4.1,2.8c-4.8,2-10.3,1-14-2.8c-1.1-1.2-2.1-2.6-2.7-4.1C2.9,895.9,2.9,892.3,4.3,889.2
	L4.3,889.2z"/>
<path class="st0" d="M5.3,693c0.6-1.5,1.6-2.9,2.7-4c1.2-1.2,2.5-2.1,4.1-2.7c3.2-1.3,6.8-1.3,9.9,0c1.5,0.6,2.9,1.6,4.1,2.7
	c1.2,1.1,2.1,2.5,2.8,4c1.3,3.2,1.3,6.8,0,10c-0.7,1.5-1.6,2.9-2.8,4.1c-1.2,1.2-2.6,2.1-4.1,2.8c-3.2,1.3-6.8,1.3-9.9,0
	c-1.5-0.6-2.9-1.6-4.1-2.8c-1.1-1.2-2.1-2.6-2.7-4.1C3.9,699.8,3.9,696.2,5.3,693z"/>
<path class="st0" d="M4.3,260.4c1.3-3.1,3.7-5.5,6.8-6.8c3.2-1.3,6.8-1.3,9.9,0c1.5,0.6,2.9,1.6,4.1,2.7c1.2,1.2,2.1,2.5,2.8,4
	c1.3,3.2,1.3,6.8,0,9.9c-1.3,3.1-3.8,5.5-6.8,6.8c-3.2,1.3-6.8,1.3-9.9,0c-1.5-0.6-2.9-1.6-4.1-2.8c-1.1-1.2-2.1-2.6-2.7-4.1
	C2.9,267.2,2.9,263.6,4.3,260.4L4.3,260.4z"/>
<path class="st0" d="M4.3,475.8c1.3-3.1,3.7-5.5,6.8-6.8c3.2-1.3,6.8-1.3,9.9,0c1.5,0.6,2.9,1.6,4.1,2.7c1.2,1.1,2.1,2.5,2.8,4
	c1.3,3.2,1.3,6.8,0,10c-1.3,3.1-3.8,5.5-6.8,6.8c-4.8,2-10.3,1-14-2.8c-1.1-1.2-2.1-2.6-2.7-4.1C2.9,482.6,2.9,479,4.3,475.8
	L4.3,475.8z"/>
<path class="st0" d="M1863.8,260.4c1.3-3.1,3.7-5.5,6.8-6.8c3.2-1.3,6.8-1.3,10,0c1.5,0.6,2.9,1.6,4.1,2.7c1.2,1.2,2.1,2.5,2.8,4
	c1.3,3.2,1.3,6.8,0,9.9c-1.3,3.1-3.8,5.5-6.8,6.8c-3.2,1.3-6.8,1.3-10,0c-1.5-0.7-2.9-1.6-4-2.8c-1.1-1.2-2.1-2.6-2.7-4.1
	C1862.5,267.2,1862.5,263.6,1863.8,260.4L1863.8,260.4z"/>
<path class="st0" d="M1862.8,477.5c1.3-3,3.7-5.5,6.8-6.8c3.2-1.3,6.8-1.3,10,0c1.5,0.6,2.9,1.6,4.1,2.7c3.7,3.7,4.8,9.2,2.8,14
	c-1.3,3.1-3.8,5.5-6.8,6.8c-3.2,1.4-6.8,1.4-10,0c-1.5-0.6-2.9-1.6-4-2.8c-1.1-1.2-2.1-2.6-2.7-4.1
	C1861.5,484.3,1861.5,480.7,1862.8,477.5L1862.8,477.5z"/>
<path class="st0" d="M2094.4,691.5c1.3-3,3.7-5.5,6.8-6.8c3.2-1.3,6.8-1.3,9.9,0c1.5,0.6,2.9,1.6,4.1,2.7c3.7,3.7,4.8,9.2,2.8,14
	c-0.6,1.5-1.6,2.9-2.8,4.1c-1.2,1.2-2.6,2.1-4.1,2.8c-4.8,2-10.3,1-14-2.8c-1.2-1.2-2.1-2.6-2.7-4.1
	C2093,698.3,2093,694.7,2094.4,691.5L2094.4,691.5z"/>
<path class="st0" d="M2094.4,260.4c1.3-3.1,3.7-5.5,6.8-6.8c3.2-1.3,6.8-1.3,9.9,0c1.5,0.6,2.9,1.6,4.1,2.7c3.7,3.7,4.8,9.2,2.8,14
	c-0.6,1.5-1.6,2.9-2.8,4.1c-1.2,1.2-2.6,2.1-4.1,2.8c-4.8,2.1-10.3,1-14-2.8c-1.2-1.2-2.1-2.6-2.7-4.1
	C2093.1,267.2,2093.1,263.6,2094.4,260.4L2094.4,260.4z"/>
<path class="st0" d="M2094.4,477.5c1.3-3,3.7-5.5,6.8-6.8c3.2-1.3,6.8-1.3,9.9,0c1.5,0.6,2.9,1.6,4.1,2.7c3.7,3.7,4.8,9.2,2.8,14
	c-0.6,1.5-1.6,2.9-2.8,4.1c-1.2,1.2-2.6,2.1-4.1,2.8c-4.8,2.1-10.3,1-14-2.8c-1.2-1.2-2.1-2.6-2.7-4.1
	C2093,484.2,2093,480.6,2094.4,477.5L2094.4,477.5z"/>
<path class="st0" d="M464.2,892.2c1.3-3.1,3.7-5.5,6.8-6.8c3.2-1.3,6.8-1.3,9.9,0c1.5,0.6,2.9,1.6,4.1,2.7c1.2,1.1,2.1,2.5,2.8,4
	c1.3,3.2,1.3,6.8,0,10c-0.7,1.5-1.6,2.9-2.8,4.1c-1.2,1.2-2.6,2.1-4.1,2.8c-3.2,1.3-6.8,1.3-9.9,0c-1.5-0.6-2.9-1.6-4-2.8
	c-1.1-1.2-2.1-2.6-2.7-4.1C462.8,898.9,462.8,895.3,464.2,892.2L464.2,892.2z"/>
<path class="st0" d="M467.2,476.6c0.6-1.5,1.6-2.9,2.7-4c1.1-1.2,2.5-2.1,4-2.7c3.2-1.3,6.8-1.3,10,0c1.5,0.6,2.9,1.6,4.1,2.7
	c1.2,1.2,2.1,2.5,2.8,4c1.3,3.2,1.3,6.8,0,9.9c-0.7,1.5-1.6,2.9-2.8,4.1c-1.2,1.2-2.6,2.1-4.1,2.8c-4.8,2.1-10.3,1-14-2.8
	c-1.2-1.2-2.1-2.6-2.7-4.1C465.8,483.4,465.8,479.8,467.2,476.6L467.2,476.6z"/>
<path class="st0" d="M229.7,13.3c1.3-3.1,3.7-5.5,6.8-6.8c3.2-1.3,6.8-1.3,9.9,0c1.5,0.6,2.9,1.6,4.1,2.7c1.2,1.1,2.1,2.5,2.8,4
	c1.3,3.2,1.3,6.8,0,10c-1.3,3.1-3.8,5.5-6.8,6.8c-3.2,1.3-6.8,1.3-9.9,0c-1.5-0.6-2.9-1.6-4-2.8c-1.2-1.2-2.1-2.6-2.7-4.1
	C228.4,20.1,228.4,16.5,229.7,13.3L229.7,13.3z"/>
<path class="st0" d="M932.1,14.2c1.3-3,3.7-5.5,6.8-6.8c3.2-1.3,6.8-1.3,10,0c1.5,0.6,2.9,1.6,4.1,2.7c2.4,2.4,3.8,5.6,3.8,9
	c0,1.7-0.3,3.4-1,5c-1.3,3.1-3.8,5.5-6.8,6.8c-3.2,1.3-6.8,1.3-10,0c-1.5-0.7-2.9-1.6-4-2.8c-1.1-1.2-2.1-2.6-2.7-4.1
	C930.8,21,930.8,17.4,932.1,14.2L932.1,14.2z"/>
<path class="st0" d="M1167.5,13.2c1.3-3,3.7-5.5,6.8-6.8c3.2-1.3,6.8-1.3,10,0c1.5,0.6,2.9,1.6,4.1,2.7c3.7,3.7,4.8,9.2,2.8,14
	c-1.3,3.1-3.8,5.5-6.8,6.8c-4.8,2.1-10.3,1-14-2.8c-1.1-1.2-2.1-2.6-2.7-4.1C1166.2,20,1166.2,16.4,1167.5,13.2L1167.5,13.2z"/>
<path class="st0" d="M1401,14.2c0.7-1.5,1.6-2.8,2.7-4c1.1-1.2,2.5-2.1,4-2.7c3.2-1.3,6.8-1.3,9.9,0c1.5,0.6,2.9,1.6,4.1,2.7
	c2.4,2.4,3.8,5.6,3.8,9c0,1.7-0.3,3.4-1,5c-0.6,1.5-1.6,2.9-2.8,4.1c-1.2,1.2-2.6,2.1-4.1,2.8c-4.8,2.1-10.3,1-14-2.8
	c-1.1-1.2-2.1-2.6-2.7-4.1C1399.6,21,1399.6,17.5,1401,14.2L1401,14.2z"/>
<path class="st0" d="M1635.4,14.2c1.3-3,3.7-5.5,6.8-6.8c3.2-1.3,6.8-1.3,10,0c1.5,0.6,2.9,1.6,4.1,2.7c2.4,2.4,3.8,5.6,3.8,9
	c0,1.7-0.3,3.4-1,5c-0.6,1.5-1.6,2.9-2.8,4.1c-1.2,1.2-2.6,2.1-4.1,2.8c-4.8,2.1-10.3,1-14-2.8c-1.2-1.2-2.1-2.6-2.7-4.1
	C1634.1,21,1634.1,17.4,1635.4,14.2L1635.4,14.2z"/>
<path class="st0" d="M4.3,14.3C5.6,11.3,8,8.9,11,7.6c3.2-1.3,6.8-1.3,9.9,0c1.5,0.6,2.9,1.6,4.1,2.7c3.7,3.7,4.8,9.2,2.8,14
	c-0.7,1.5-1.6,2.9-2.8,4.1c-1.2,1.2-2.6,2.1-4.1,2.8c-3.2,1.3-6.8,1.3-9.9,0c-1.5-0.6-2.9-1.6-4.1-2.8c-1.1-1.2-2.1-2.6-2.7-4.1
	C2.9,21.1,2.9,17.5,4.3,14.3L4.3,14.3z"/>
<path class="st0" d="M1861.8,14.3c0.6-1.5,1.6-2.9,2.7-4c1.1-1.2,2.5-2.1,4-2.7c3.2-1.3,6.8-1.3,10,0c1.5,0.6,2.9,1.6,4.1,2.7
	c3.7,3.7,4.8,9.2,2.8,14c-1.3,3.1-3.8,5.5-6.8,6.8c-4.8,2-10.3,1-14-2.8c-1.1-1.2-2.1-2.6-2.7-4.1
	C1860.5,21.1,1860.5,17.5,1861.8,14.3z"/>
<path class="st0" d="M2093.4,14.3c0.6-1.5,1.6-2.9,2.7-4c1.1-1.2,2.5-2.1,4-2.7c3.2-1.3,6.8-1.3,9.9,0c1.5,0.6,2.9,1.6,4.1,2.7
	c3.7,3.7,4.8,9.2,2.8,14c-0.6,1.5-1.6,2.9-2.8,4.1c-1.2,1.2-2.6,2.1-4.1,2.8c-4.8,2.1-10.3,1-14-2.8c-1.2-1.2-2.1-2.6-2.7-4.1
	C2092,21.1,2092,17.5,2093.4,14.3L2093.4,14.3z"/>
<path class="st0" d="M464.2,14.3c0.6-1.5,1.6-2.9,2.7-4c1.2-1.2,2.5-2.1,4-2.7c3.2-1.3,6.8-1.3,9.9,0c1.5,0.6,2.9,1.6,4.1,2.7
	c1.2,1.1,2.1,2.5,2.8,4c1.3,3.2,1.3,6.8,0,10c-0.7,1.5-1.6,2.9-2.8,4.1c-1.2,1.2-2.6,2.1-4.1,2.8c-3.2,1.3-6.8,1.3-9.9,0
	c-1.5-0.6-2.9-1.6-4-2.8c-1.1-1.2-2.1-2.6-2.7-4.1C462.8,21.1,462.8,17.5,464.2,14.3z"/>
<path class="st0" d="M697.6,14.3c1.3-3,3.7-5.5,6.8-6.8c3.2-1.3,6.8-1.3,10,0c1.5,0.6,2.9,1.6,4.1,2.7c3.7,3.7,4.8,9.2,2.8,14
	c-1.3,3.1-3.8,5.5-6.8,6.8c-3.2,1.3-6.8,1.3-10,0c-1.5-0.6-2.9-1.6-4-2.8c-1.1-1.2-2.1-2.6-2.7-4.1
	C696.3,21.1,696.3,17.5,697.6,14.3L697.6,14.3z"/>
<path class="st0" d="M697.6,891.2c1.3-3,3.7-5.5,6.8-6.8c3.2-1.3,6.8-1.3,10,0c1.5,0.6,2.9,1.6,4.1,2.7c1.2,1.1,2.1,2.5,2.8,4
	c1.3,3.2,1.3,6.8,0,10c-1.3,3.1-3.8,5.5-6.8,6.8c-4.8,2.1-10.3,1-14-2.8c-1.1-1.2-2.1-2.6-2.7-4.1
	C696.3,897.9,696.3,894.3,697.6,891.2L697.6,891.2z"/>
<path class="st0" d="M698.4,260.5c1.3-3,3.7-5.5,6.8-6.8c3.2-1.3,6.8-1.3,10,0c1.5,0.6,2.9,1.6,4.1,2.7c3.7,3.7,4.8,9.2,2.8,14
	c-0.7,1.5-1.6,2.9-2.8,4.1c-1.2,1.2-2.6,2.1-4.1,2.8c-4.8,2-10.3,1-14-2.8c-1.1-1.2-2.1-2.6-2.7-4.1
	C697.1,267.2,697.1,263.7,698.4,260.5L698.4,260.5z"/>
<path class="st0" d="M1863,691.6c1.3-3.1,3.7-5.5,6.8-6.8c3.2-1.3,6.8-1.3,9.9,0c1.5,0.6,2.9,1.6,4.1,2.7c1.2,1.1,2.1,2.5,2.8,4
	c1.3,3.2,1.3,6.8,0,9.9c-1.3,3.1-3.8,5.5-6.8,6.8c-3.2,1.3-6.8,1.3-9.9,0c-1.5-0.7-2.9-1.6-4-2.8c-1.1-1.2-2.1-2.6-2.7-4.1
	C1861.7,698.3,1861.7,694.7,1863,691.6L1863,691.6z"/>
<path class="st0" d="M1636.2,691.6c1.3-3.1,3.7-5.5,6.8-6.8c3.2-1.3,6.8-1.3,9.9,0c1.5,0.6,2.9,1.6,4.1,2.7c3.7,3.7,4.8,9.2,2.8,14
	c-0.6,1.5-1.6,2.9-2.8,4.1c-1.2,1.2-2.6,2.1-4.1,2.8c-4.8,2.1-10.3,1-14-2.8c-1.2-1.2-2.1-2.6-2.7-4.1
	C1634.9,698.3,1634.9,694.8,1636.2,691.6L1636.2,691.6z"/>
<path class="st0" d="M1401.8,691.6c0.6-1.5,1.6-2.8,2.7-4c1.1-1.2,2.5-2.1,4-2.7c3.2-1.3,6.8-1.3,10,0c1.5,0.6,2.9,1.6,4.1,2.7
	c3.7,3.7,4.8,9.2,2.8,14c-0.6,1.5-1.6,2.9-2.8,4.1c-1.2,1.2-2.6,2.1-4.1,2.8c-4.8,2.1-10.3,1-14-2.8c-1.1-1.2-2.1-2.6-2.7-4.1
	C1400.5,698.4,1400.5,694.8,1401.8,691.6L1401.8,691.6z"/>
<path class="st0" d="M2094.4,890.2c1.3-3.1,3.7-5.5,6.8-6.8c3.2-1.3,6.8-1.3,9.9,0c1.5,0.6,2.9,1.6,4.1,2.7c2.4,2.4,3.8,5.6,3.8,9
	c0,1.7-0.3,3.4-1,5c-0.6,1.5-1.6,2.9-2.8,4.1c-1.2,1.2-2.6,2.1-4.1,2.8c-4.8,2.1-10.3,1-14-2.8c-1.2-1.2-2.1-2.6-2.7-4.1
	C2093.1,896.9,2093.1,893.4,2094.4,890.2L2094.4,890.2z"/>
<path class="st0" d="M1862.8,890.2c1.3-3,3.7-5.5,6.8-6.8c3.2-1.3,6.8-1.3,10,0c1.5,0.6,2.9,1.6,4.1,2.7c3.7,3.7,4.8,9.2,2.8,14
	c-1.3,3.1-3.8,5.5-6.8,6.8c-4.8,2.1-10.3,1-14-2.8c-1.1-1.2-2.1-2.6-2.7-4.1C1861.5,896.9,1861.5,893.3,1862.8,890.2L1862.8,890.2z"
	/>
<path class="st0" d="M1636.5,889.2c0.6-1.5,1.6-2.9,2.7-4c1.1-1.2,2.5-2.1,4-2.7c3.2-1.3,6.8-1.3,10,0c1.5,0.6,2.9,1.6,4.1,2.7
	c3.7,3.7,4.8,9.2,2.8,14c-1.3,3.1-3.8,5.5-6.8,6.8c-4.8,2-10.3,1-14-2.8c-1.1-1.2-2.1-2.6-2.7-4.1
	C1635.2,896,1635.2,892.4,1636.5,889.2z"/>
<path class="st0" d="M1402,890.2c1.3-3,3.7-5.5,6.8-6.8c3.2-1.3,6.8-1.3,9.9,0c1.5,0.6,2.9,1.6,4.1,2.7c3.7,3.7,4.8,9.2,2.8,14
	c-0.6,1.5-1.6,2.9-2.8,4.1c-1.2,1.2-2.6,2.1-4.1,2.8c-4.8,2.1-10.3,1-14-2.8c-1.1-1.2-2.1-2.6-2.7-4.1
	C1400.6,896.9,1400.6,893.3,1402,890.2L1402,890.2z"/>
<path class="st0" d="M1166.6,890.2c1.3-3,3.7-5.5,6.8-6.8c3.2-1.3,6.8-1.3,10,0c1.5,0.6,2.9,1.6,4.1,2.7c3.7,3.7,4.8,9.2,2.8,14
	c-0.6,1.5-1.6,2.9-2.8,4.1c-1.2,1.2-2.6,2.1-4.1,2.8c-4.8,2.1-10.3,1-14-2.8c-1.1-1.2-2.1-2.6-2.7-4.1
	C1165.3,896.9,1165.3,893.3,1166.6,890.2L1166.6,890.2z"/>
<path class="st0" d="M933.1,890.2c1.3-3,3.7-5.5,6.8-6.8c3.2-1.3,6.8-1.3,10,0c1.5,0.6,2.9,1.6,4.1,2.7c1.2,1.1,2.1,2.5,2.8,4
	c1.3,3.2,1.3,6.8,0,10c-1.3,3.1-3.8,5.5-6.8,6.8c-4.8,2.1-10.3,1-14-2.8c-1.1-1.2-2.1-2.6-2.7-4.1
	C931.8,896.9,931.8,893.3,933.1,890.2L933.1,890.2z"/>
<path class="st0" d="M464.2,691c0.6-1.5,1.6-2.9,2.7-4c1.2-1.2,2.5-2.1,4-2.7c3.2-1.3,6.8-1.3,9.9,0c1.5,0.6,2.9,1.6,4.1,2.7
	c1.2,1.1,2.1,2.5,2.8,4c1.3,3.2,1.3,6.8,0,9.9c-0.7,1.5-1.6,2.9-2.8,4.1c-1.2,1.2-2.6,2.1-4.1,2.8c-3.2,1.3-6.8,1.3-9.9,0
	c-1.5-0.6-2.9-1.6-4-2.8c-1.1-1.2-2.1-2.6-2.7-4.1C462.8,697.7,462.8,694.2,464.2,691z"/>
<path class="st0" d="M697.6,693c1.3-3.1,3.7-5.5,6.8-6.8c3.2-1.3,6.8-1.3,10,0c1.5,0.6,2.9,1.6,4.1,2.7c1.2,1.1,2.1,2.5,2.8,4
	c1.3,3.2,1.3,6.8,0,10c-1.3,3.1-3.8,5.5-6.8,6.8c-3.2,1.3-6.8,1.3-10,0c-1.5-0.7-2.9-1.6-4-2.8c-1.1-1.2-2.1-2.6-2.7-4.1
	C696.3,699.7,696.3,696.1,697.6,693L697.6,693z"/>
<path class="st0" d="M488.3,252.2c-0.8-1.2-1.7-2.3-2.8-3.2c-2.3-1.9-5.2-2.9-8.2-2.9c-2.5-0.1-5,0.5-7.2,1.6
	c-1.9,1.1-3.6,2.6-4.8,4.4c-1.3,1.9-2.2,4-2.7,6.3c-0.6,2.4-0.8,4.8-0.8,7.3c0,2.4,0.3,4.7,0.8,7c0.5,2.2,1.4,4.3,2.7,6.1
	c1.2,1.8,2.9,3.3,4.8,4.4c2.2,1.2,4.7,1.7,7.2,1.6c3.8,0,6.8-1.2,9-3.5c2.3-2.6,3.7-5.8,4-9.3h12.2c-0.3,3.3-1.1,6.6-2.5,9.7
	c-1.3,2.8-3.1,5.3-5.3,7.4c-2.2,2-4.8,3.6-7.7,4.6c-3.1,1.1-6.4,1.6-9.7,1.6c-4,0.1-8.1-0.7-11.8-2.3c-3.4-1.4-6.4-3.6-8.8-6.3
	c-2.4-2.7-4.3-5.9-5.5-9.4c-1.3-3.7-2-7.7-1.9-11.6c0-4,0.6-8.1,1.9-11.9c1.2-3.5,3.1-6.8,5.5-9.6c2.4-2.8,5.5-4.9,8.8-6.4
	c6.6-2.7,13.9-3.1,20.7-1c2.7,0.9,5.3,2.2,7.5,4c2.2,1.8,4.1,4,5.5,6.4c1.5,2.7,2.4,5.7,2.7,8.8h-12.2
	C489.5,254.8,489,253.4,488.3,252.2z"/>
<path class="st0" d="M727.3,505.2c-4.3,3.8-10.3,5.7-17.9,5.7c-7.7,0-13.7-1.9-18-5.6s-6.4-9.5-6.4-17.3v-35.5h12.6v35.5
	c0,1.5,0.1,3,0.4,4.5c0.2,1.5,0.8,2.8,1.7,4c0.9,1.2,2.2,2.2,3.6,2.8c1.9,0.8,4,1.2,6.1,1.1c4.5,0,7.6-1,9.3-3
	c1.7-2,2.6-5.1,2.6-9.4v-35.6h12.6v35.5C733.7,495.7,731.6,501.4,727.3,505.2z"/>
<path class="st0" d="M930.8,707.8c0.6,1.3,1.6,2.4,2.8,3.2c1.2,0.9,2.6,1.5,4,1.8c1.6,0.4,3.2,0.6,4.8,0.6c1.2,0,2.4-0.1,3.6-0.3
	c1.2-0.2,2.5-0.5,3.6-1.1c1.1-0.5,2.1-1.3,2.8-2.2c0.8-1,1.2-2.3,1.1-3.6c0.1-1.4-0.5-2.8-1.5-3.8c-1.1-1-2.4-1.9-3.9-2.4
	c-1.8-0.7-3.6-1.3-5.4-1.7c-2-0.5-4.1-1-6.2-1.6c-2.1-0.5-4.2-1.2-6.2-2c-1.9-0.7-3.8-1.7-5.4-3c-3.5-2.7-5.5-6.9-5.4-11.3
	c-0.1-2.7,0.6-5.3,1.9-7.6c1.2-2.1,2.9-4,4.9-5.4c2.1-1.5,4.4-2.5,6.9-3.2c2.5-0.7,5.1-1,7.7-1c2.9,0,5.8,0.3,8.6,1
	c2.6,0.6,5.1,1.7,7.3,3.2c2.1,1.5,3.9,3.4,5.1,5.7c1.3,2.6,2,5.5,1.9,8.4h-12.2c0-1.5-0.4-2.9-1.1-4.2c-0.6-1.1-1.4-2-2.4-2.6
	c-1.1-0.7-2.3-1.1-3.5-1.4c-1.4-0.3-2.8-0.4-4.3-0.4c-1,0-2,0.1-3,0.3c-1,0.2-1.9,0.6-2.8,1.1c-0.8,0.5-1.5,1.2-2,2
	c-0.6,0.9-0.8,1.9-0.8,3c0,0.9,0.2,1.9,0.6,2.7c0.6,0.9,1.5,1.5,2.5,1.9c1.7,0.7,3.4,1.3,5.2,1.8c2.2,0.6,5.1,1.3,8.7,2.2
	c1.1,0.2,2.6,0.6,4.4,1.2c2,0.6,3.9,1.5,5.6,2.7c1.9,1.3,3.6,3,4.8,4.9c1.4,2.4,2.1,5.1,2,7.9c0,2.5-0.5,5-1.5,7.3
	c-1,2.3-2.6,4.2-4.5,5.8c-2.2,1.7-4.7,3-7.4,3.8c-3.3,1-6.8,1.4-10.3,1.4c-3.1,0-6.2-0.4-9.2-1.2c-2.8-0.7-5.5-1.9-7.8-3.6
	c-2.3-1.7-4.1-3.8-5.4-6.3c-1.4-2.8-2-6-1.9-9.1h12.2C929.8,704.6,930.1,706.2,930.8,707.8z"/>
<path class="st0" d="M1154.4,681.9v-10.6h46.8v10.6H1184v46.6h-12.6v-46.6H1154.4z"/>
<path class="st0" d="M1387.6,468.9c1.2-3.5,3.1-6.8,5.5-9.6c2.4-2.8,5.5-4.9,8.8-6.4c7.6-3.1,16.1-3.1,23.6,0
	c3.4,1.5,6.4,3.7,8.8,6.4c2.4,2.8,4.3,6,5.5,9.6c1.3,3.8,2,7.8,1.9,11.9c0,4-0.6,7.9-1.9,11.6c-1.2,3.5-3.1,6.7-5.5,9.4
	c-2.4,2.7-5.4,4.8-8.8,6.3c-7.6,3-16.1,3-23.6,0c-3.4-1.4-6.4-3.6-8.8-6.3c-2.4-2.7-4.3-5.9-5.5-9.4c-1.3-3.7-2-7.7-1.9-11.6
	C1385.6,476.7,1386.3,472.7,1387.6,468.9z M1399.1,487.8c0.5,2.2,1.4,4.3,2.7,6.1c1.2,1.8,2.9,3.3,4.8,4.4c4.6,2.2,9.8,2.2,14.4,0
	c1.9-1,3.6-2.5,4.8-4.4c1.3-1.9,2.2-3.9,2.7-6.1c0.6-2.3,0.8-4.6,0.8-7c0-2.5-0.3-4.9-0.8-7.3c-0.5-2.2-1.4-4.4-2.7-6.3
	c-1.2-1.8-2.9-3.3-4.8-4.4c-4.6-2.2-9.8-2.2-14.4,0c-1.9,1.1-3.6,2.6-4.8,4.4c-1.3,1.9-2.2,4-2.7,6.3c-0.6,2.4-0.8,4.8-0.8,7.3
	C1398.2,483.1,1398.5,485.5,1399.1,487.8z"/>
<path class="st0" d="M1634.9,236.8l13.4,39.3h0.2l12.6-39.3h17.7v57.1H1667v-40.5h-0.2l-14,40.5h-9.7l-14-40.1h-0.2v40.1h-11.8
	v-57.1H1634.9z"/>
</svg>
