<svg id="Layer_1" data-name="Layer 1" xmlns="http://www.w3.org/2000/svg" viewBox="0 0 2408.58 1178.55"><defs><style>.cls-1{fill:#231f20;}</style></defs><title>PSP_logo-Custom-Desktop-06</title><path class="cls-1" d="M372.9,1018.48a12.67,12.67,0,0,1,2.72-4,12.89,12.89,0,0,1,4-2.72,12.85,12.85,0,0,1,9.94,0,13.35,13.35,0,0,1,4.09,2.72,12.75,12.75,0,0,1,2.75,4,12.88,12.88,0,0,1,0,10,13.16,13.16,0,0,1-2.75,4.08,13,13,0,0,1-4.09,2.76,12.63,12.63,0,0,1-14-2.76,13.07,13.07,0,0,1-2.72-4.08,12.88,12.88,0,0,1,0-10Z"/><path class="cls-1" d="M372.71,388.79a12.62,12.62,0,0,1,6.76-6.76,12.85,12.85,0,0,1,9.94,0,13.18,13.18,0,0,1,4.09,2.72,12.64,12.64,0,0,1,2.75,4,12.88,12.88,0,0,1,0,9.95,13.16,13.16,0,0,1-2.75,4.08,12.75,12.75,0,0,1-4.09,2.75,12.69,12.69,0,0,1-14-2.75,13.22,13.22,0,0,1-2.71-4.08,12.76,12.76,0,0,1,0-9.95Z"/><path class="cls-1" d="M372.71,604.33a12.62,12.62,0,0,1,6.76-6.76,12.85,12.85,0,0,1,9.94,0,13.18,13.18,0,0,1,4.09,2.72,12.64,12.64,0,0,1,2.75,4,12.88,12.88,0,0,1,0,9.95,13.16,13.16,0,0,1-2.75,4.08,12.75,12.75,0,0,1-4.09,2.75,12.69,12.69,0,0,1-14-2.75,13.22,13.22,0,0,1-2.71-4.08,12.76,12.76,0,0,1,0-9.95Z"/><path class="cls-1" d="M372.9,820.31a12.71,12.71,0,0,1,2.72-4,12.89,12.89,0,0,1,4-2.72,12.85,12.85,0,0,1,9.94,0,13.35,13.35,0,0,1,4.09,2.72,12.8,12.8,0,0,1,2.75,4,12.85,12.85,0,0,1,0,9.94,12.91,12.91,0,0,1-6.84,6.84,12.85,12.85,0,0,1-9.94,0,12.51,12.51,0,0,1-4-2.76,13,13,0,0,1-2.72-4.08,12.85,12.85,0,0,1,0-9.94Z"/><path class="cls-1" d="M1076.05,387.23a12.71,12.71,0,0,1,6.76-6.76,12.88,12.88,0,0,1,10,0,13.25,13.25,0,0,1,4.08,2.72,12.75,12.75,0,0,1,2.76,14,12.93,12.93,0,0,1-6.84,6.83,12.88,12.88,0,0,1-10,0,12.59,12.59,0,0,1-4-2.75,13.43,13.43,0,0,1-2.72-4.08,12.88,12.88,0,0,1,0-9.95Z"/><path class="cls-1" d="M1076.05,605.94a12.68,12.68,0,0,1,6.76-6.77,12.88,12.88,0,0,1,10,0,13.43,13.43,0,0,1,4.08,2.72,12.75,12.75,0,0,1,2.76,14,13,13,0,0,1-6.84,6.84,12.88,12.88,0,0,1-10,0,12.62,12.62,0,0,1-4-2.76,13.43,13.43,0,0,1-2.72-4.08,12.85,12.85,0,0,1,0-9.94Z"/><path class="cls-1" d="M1309.75,388.68a12.68,12.68,0,0,1,6.76-6.77,12.88,12.88,0,0,1,10,0,13.43,13.43,0,0,1,4.08,2.72,12.56,12.56,0,0,1,3.76,9,12.5,12.5,0,0,1-1,5,13,13,0,0,1-6.84,6.84,12.88,12.88,0,0,1-10,0,12.62,12.62,0,0,1-4-2.76,13.31,13.31,0,0,1-2.72-4.08,12.85,12.85,0,0,1,0-9.94Z"/><path class="cls-1" d="M1309.16,602.65a12.56,12.56,0,0,1,2.72-4,12.72,12.72,0,0,1,4-2.72,12.88,12.88,0,0,1,9.95,0,13.25,13.25,0,0,1,4.08,2.72,12.64,12.64,0,0,1,2.75,4,12.88,12.88,0,0,1,0,10,13.16,13.16,0,0,1-2.75,4.08,12.82,12.82,0,0,1-4.08,2.75,12.67,12.67,0,0,1-14-2.75,13.07,13.07,0,0,1-2.72-4.08,12.88,12.88,0,0,1,0-10Z"/><path class="cls-1" d="M1545,388.68a13.05,13.05,0,0,1,2.72-4.05,12.89,12.89,0,0,1,4-2.72,12.88,12.88,0,0,1,10,0,13.43,13.43,0,0,1,4.08,2.72,12.6,12.6,0,0,1,3.75,9,12.33,12.33,0,0,1-1,5,12.71,12.71,0,0,1-2.75,4.08,13,13,0,0,1-4.08,2.76,12.64,12.64,0,0,1-14-2.76,13.31,13.31,0,0,1-2.72-4.08,12.85,12.85,0,0,1,0-9.94Z"/><path class="cls-1" d="M1778.65,605.82a12.89,12.89,0,0,1,2.72-4,12.72,12.72,0,0,1,4-2.72,12.88,12.88,0,0,1,9.95,0,13.25,13.25,0,0,1,4.08,2.72,12.71,12.71,0,0,1,2.75,14,12.82,12.82,0,0,1-2.75,4.08,13,13,0,0,1-4.08,2.75,12.67,12.67,0,0,1-14-2.75,13.43,13.43,0,0,1-2.72-4.08,12.88,12.88,0,0,1,0-9.95Z"/><path class="cls-1" d="M147.46,1017.48a12.62,12.62,0,0,1,6.76-6.76,12.85,12.85,0,0,1,9.94,0,13.13,13.13,0,0,1,4.08,2.72,12.75,12.75,0,0,1,2.76,14,13,13,0,0,1-2.76,4.08,12.71,12.71,0,0,1-4.08,2.75,12.69,12.69,0,0,1-14-2.75,13.22,13.22,0,0,1-2.71-4.08,12.76,12.76,0,0,1,0-10Z"/><path class="cls-1" d="M148.46,821.31a12.85,12.85,0,0,1,2.71-4,13.05,13.05,0,0,1,4.05-2.72,12.85,12.85,0,0,1,9.94,0,13.35,13.35,0,0,1,4.09,2.72,12.8,12.8,0,0,1,2.75,4,12.88,12.88,0,0,1,0,10,13.11,13.11,0,0,1-2.75,4.07,13,13,0,0,1-4.09,2.76,12.85,12.85,0,0,1-9.94,0,12.66,12.66,0,0,1-4.05-2.76,13.18,13.18,0,0,1-2.71-4.07,12.76,12.76,0,0,1,0-10Z"/><path class="cls-1" d="M147.46,388.74a12.59,12.59,0,0,1,6.76-6.77,12.85,12.85,0,0,1,9.94,0,13.31,13.31,0,0,1,4.08,2.72,12.66,12.66,0,0,1,2.76,4.05,12.85,12.85,0,0,1,0,9.94,13,13,0,0,1-6.84,6.84,12.85,12.85,0,0,1-9.94,0,12.55,12.55,0,0,1-4.05-2.76,13.22,13.22,0,0,1-2.71-4.08,12.73,12.73,0,0,1,0-9.94Z"/><path class="cls-1" d="M147.46,604.17a12.62,12.62,0,0,1,6.76-6.76,12.85,12.85,0,0,1,9.94,0,13.31,13.31,0,0,1,4.08,2.72,12.62,12.62,0,0,1,2.76,4,12.88,12.88,0,0,1,0,10,13,13,0,0,1-6.84,6.84,12.66,12.66,0,0,1-14-2.76,13.22,13.22,0,0,1-2.71-4.08,12.76,12.76,0,0,1,0-10Z"/><path class="cls-1" d="M2007,388.74a12.68,12.68,0,0,1,6.76-6.77,12.88,12.88,0,0,1,10,0,13.43,13.43,0,0,1,4.08,2.72,12.66,12.66,0,0,1,2.76,4.05,12.85,12.85,0,0,1,0,9.94,13,13,0,0,1-6.84,6.84,12.88,12.88,0,0,1-10,0,12.62,12.62,0,0,1-4-2.76,13.43,13.43,0,0,1-2.72-4.08,12.85,12.85,0,0,1,0-9.94Z"/><path class="cls-1" d="M2005.93,605.82a12.71,12.71,0,0,1,6.76-6.76,12.88,12.88,0,0,1,10,0,13.25,13.25,0,0,1,4.08,2.72,12.75,12.75,0,0,1,2.76,14,12.93,12.93,0,0,1-6.84,6.83,12.76,12.76,0,0,1-10,0,12.59,12.59,0,0,1-4-2.75,13.43,13.43,0,0,1-2.72-4.08,12.88,12.88,0,0,1,0-9.95Z"/><path class="cls-1" d="M2237.58,825.31a12.71,12.71,0,0,1,6.76-6.76,12.88,12.88,0,0,1,9.95,0,13.25,13.25,0,0,1,4.08,2.72,12.76,12.76,0,0,1,2.75,14,12.82,12.82,0,0,1-2.75,4.08,13,13,0,0,1-4.08,2.75,12.67,12.67,0,0,1-14-2.75,13.25,13.25,0,0,1-2.72-4.08,12.88,12.88,0,0,1,0-10Z"/><path class="cls-1" d="M2237.58,388.74a12.68,12.68,0,0,1,6.76-6.77,12.88,12.88,0,0,1,9.95,0,13.43,13.43,0,0,1,4.08,2.72,12.76,12.76,0,0,1,2.75,14,12.82,12.82,0,0,1-2.75,4.08,13,13,0,0,1-4.08,2.76,12.64,12.64,0,0,1-14-2.76,13.25,13.25,0,0,1-2.72-4.08,12.85,12.85,0,0,1,0-9.94Z"/><path class="cls-1" d="M2237.58,604.17a12.71,12.71,0,0,1,6.76-6.76,12.88,12.88,0,0,1,9.95,0,13.43,13.43,0,0,1,4.08,2.72,12.76,12.76,0,0,1,2.75,14,12.82,12.82,0,0,1-2.75,4.08,13,13,0,0,1-4.08,2.76,12.64,12.64,0,0,1-14-2.76,13.25,13.25,0,0,1-2.72-4.08,12.88,12.88,0,0,1,0-10Z"/><path class="cls-1" d="M607.35,1020.48a12.62,12.62,0,0,1,6.76-6.76,12.85,12.85,0,0,1,9.94,0,13.35,13.35,0,0,1,4.09,2.72,12.86,12.86,0,0,1,2.75,4,12.88,12.88,0,0,1,0,10,13.16,13.16,0,0,1-2.75,4.08,13,13,0,0,1-4.09,2.76,12.85,12.85,0,0,1-9.94,0,12.66,12.66,0,0,1-4.05-2.76,13.22,13.22,0,0,1-2.71-4.08,12.76,12.76,0,0,1,0-10Z"/><path class="cls-1" d="M610.35,604.94a12.71,12.71,0,0,1,2.72-4.05,12.89,12.89,0,0,1,4-2.72,12.88,12.88,0,0,1,9.95,0,13.43,13.43,0,0,1,4.08,2.72,12.8,12.8,0,0,1,2.75,4.05,12.85,12.85,0,0,1,0,9.94,13.16,13.16,0,0,1-2.75,4.08,13,13,0,0,1-4.08,2.76,12.64,12.64,0,0,1-14-2.76,13.07,13.07,0,0,1-2.72-4.08,12.85,12.85,0,0,1,0-9.94Z"/><path class="cls-1" d="M372.9,141.67a12.62,12.62,0,0,1,6.76-6.76,12.73,12.73,0,0,1,9.94,0,13.15,13.15,0,0,1,4.09,2.71,12.8,12.8,0,0,1,2.75,4,12.88,12.88,0,0,1,0,10,12.84,12.84,0,0,1-6.84,6.83,12.85,12.85,0,0,1-9.94,0,12.64,12.64,0,0,1-4-2.75,13.07,13.07,0,0,1-2.72-4.08,12.88,12.88,0,0,1,0-10Z"/><path class="cls-1" d="M1075.24,142.55a12.71,12.71,0,0,1,6.76-6.76,12.88,12.88,0,0,1,10,0,13.43,13.43,0,0,1,4.08,2.72,12.51,12.51,0,0,1,3.76,9,12.57,12.57,0,0,1-1,5,13,13,0,0,1-6.84,6.84,12.88,12.88,0,0,1-10,0,12.62,12.62,0,0,1-4-2.76,13.43,13.43,0,0,1-2.72-4.08,12.88,12.88,0,0,1,0-9.95Z"/><path class="cls-1" d="M1310.69,141.55a12.71,12.71,0,0,1,6.76-6.76,12.88,12.88,0,0,1,10,0,13.43,13.43,0,0,1,4.08,2.72,12.75,12.75,0,0,1,2.76,14,13,13,0,0,1-6.84,6.84,12.64,12.64,0,0,1-14-2.76,13.43,13.43,0,0,1-2.72-4.08,12.88,12.88,0,0,1,0-9.95Z"/><path class="cls-1" d="M1544.14,142.55a13.12,13.12,0,0,1,2.72-4,12.89,12.89,0,0,1,4-2.72,12.88,12.88,0,0,1,9.95,0,13.43,13.43,0,0,1,4.08,2.72,12.62,12.62,0,0,1,3.76,9,12.41,12.41,0,0,1-1,5,12.82,12.82,0,0,1-2.75,4.08,13,13,0,0,1-4.08,2.76,12.64,12.64,0,0,1-14-2.76,13.43,13.43,0,0,1-2.72-4.08,12.88,12.88,0,0,1,0-9.95Z"/><path class="cls-1" d="M1778.59,142.55a12.71,12.71,0,0,1,6.76-6.76,12.88,12.88,0,0,1,10,0,13.43,13.43,0,0,1,4.08,2.72,12.56,12.56,0,0,1,3.75,9,12.4,12.4,0,0,1-1,5,12.82,12.82,0,0,1-2.75,4.08,13,13,0,0,1-4.08,2.76,12.64,12.64,0,0,1-14-2.76,13.25,13.25,0,0,1-2.72-4.08,12.88,12.88,0,0,1,0-9.95Z"/><path class="cls-1" d="M147.46,142.67a12.62,12.62,0,0,1,6.76-6.76,12.85,12.85,0,0,1,9.94,0,13.13,13.13,0,0,1,4.08,2.72,12.75,12.75,0,0,1,2.76,14,13,13,0,0,1-2.76,4.08,12.87,12.87,0,0,1-4.08,2.75,12.85,12.85,0,0,1-9.94,0,12.52,12.52,0,0,1-4.05-2.75,13.22,13.22,0,0,1-2.71-4.08,12.76,12.76,0,0,1,0-10Z"/><path class="cls-1" d="M2005,142.67a12.89,12.89,0,0,1,2.72-4,12.72,12.72,0,0,1,4-2.72,12.88,12.88,0,0,1,10,0,13.25,13.25,0,0,1,4.08,2.72,12.75,12.75,0,0,1,2.76,14,12.93,12.93,0,0,1-6.84,6.83,12.67,12.67,0,0,1-14-2.75,13.43,13.43,0,0,1-2.72-4.08,12.88,12.88,0,0,1,0-10Z"/><path class="cls-1" d="M2236.58,140.67a12.88,12.88,0,0,1,2.72-4,12.7,12.7,0,0,1,4-2.71,12.76,12.76,0,0,1,9.95,0,13.22,13.22,0,0,1,4.08,2.71,12.78,12.78,0,0,1,2.75,14,12.78,12.78,0,0,1-2.75,4.07,13,13,0,0,1-4.08,2.76,12.64,12.64,0,0,1-14-2.76,13.2,13.2,0,0,1-2.72-4.07,12.88,12.88,0,0,1,0-10Z"/><path class="cls-1" d="M607.35,142.67a12.7,12.7,0,0,1,2.71-4,12.88,12.88,0,0,1,4.05-2.72,12.85,12.85,0,0,1,9.94,0,13.18,13.18,0,0,1,4.09,2.72,12.64,12.64,0,0,1,2.75,4,12.88,12.88,0,0,1,0,10,13.16,13.16,0,0,1-2.75,4.08,12.92,12.92,0,0,1-4.09,2.75,12.85,12.85,0,0,1-9.94,0,12.63,12.63,0,0,1-4.05-2.75,13.22,13.22,0,0,1-2.71-4.08,12.76,12.76,0,0,1,0-10Z"/><path class="cls-1" d="M840.79,142.67a12.71,12.71,0,0,1,6.76-6.76,12.88,12.88,0,0,1,10,0,13.25,13.25,0,0,1,4.08,2.72,12.75,12.75,0,0,1,2.76,14,12.93,12.93,0,0,1-6.84,6.83,12.88,12.88,0,0,1-10,0,12.59,12.59,0,0,1-4-2.75,13.43,13.43,0,0,1-2.72-4.08,12.88,12.88,0,0,1,0-10Z"/><path class="cls-1" d="M840.79,1019.48a12.71,12.71,0,0,1,6.76-6.76,12.88,12.88,0,0,1,10,0,13.43,13.43,0,0,1,4.08,2.72,12.62,12.62,0,0,1,2.76,4,12.88,12.88,0,0,1,0,10,13,13,0,0,1-6.84,6.84,12.64,12.64,0,0,1-14-2.76,13.43,13.43,0,0,1-2.72-4.08,12.88,12.88,0,0,1,0-10Z"/><path class="cls-1" d="M841.6,388.79a12.71,12.71,0,0,1,6.76-6.76,12.88,12.88,0,0,1,9.95,0,13.25,13.25,0,0,1,4.08,2.72,12.75,12.75,0,0,1,2.76,14,13,13,0,0,1-2.76,4.08,12.82,12.82,0,0,1-4.08,2.75,12.67,12.67,0,0,1-14-2.75,13.43,13.43,0,0,1-2.72-4.08,12.88,12.88,0,0,1,0-9.95Z"/><path class="cls-1" d="M2006.18,819.89a12.65,12.65,0,0,1,6.77-6.77,12.85,12.85,0,0,1,9.94,0,13.43,13.43,0,0,1,4.08,2.72,12.66,12.66,0,0,1,2.76,4,12.85,12.85,0,0,1,0,9.94,13,13,0,0,1-6.84,6.84,12.85,12.85,0,0,1-9.94,0,12.55,12.55,0,0,1-4-2.76,13.43,13.43,0,0,1-2.72-4.08,12.85,12.85,0,0,1,0-9.94Z"/><path class="cls-1" d="M1779.4,819.89a12.68,12.68,0,0,1,6.76-6.77,12.88,12.88,0,0,1,9.95,0,13.43,13.43,0,0,1,4.08,2.72,12.76,12.76,0,0,1,2.75,14,12.82,12.82,0,0,1-2.75,4.08,13,13,0,0,1-4.08,2.76,12.64,12.64,0,0,1-14-2.76,13.25,13.25,0,0,1-2.72-4.08,12.85,12.85,0,0,1,0-9.94Z"/><path class="cls-1" d="M1545,819.89a13.05,13.05,0,0,1,2.72-4,12.89,12.89,0,0,1,4-2.72,12.88,12.88,0,0,1,10,0,13.43,13.43,0,0,1,4.08,2.72,12.71,12.71,0,0,1,2.75,14,12.82,12.82,0,0,1-2.75,4.08,13,13,0,0,1-4.08,2.76,12.64,12.64,0,0,1-14-2.76,13.43,13.43,0,0,1-2.72-4.08,12.85,12.85,0,0,1,0-9.94Z"/><path class="cls-1" d="M2237.58,1023.49a12.68,12.68,0,0,1,6.76-6.77,12.88,12.88,0,0,1,9.95,0,13.43,13.43,0,0,1,4.08,2.72,12.6,12.6,0,0,1,3.75,9,12.33,12.33,0,0,1-1,5,12.71,12.71,0,0,1-2.75,4.08,13,13,0,0,1-4.08,2.76,12.64,12.64,0,0,1-14-2.76,13.13,13.13,0,0,1-2.72-4.08,12.85,12.85,0,0,1,0-9.94Z"/><path class="cls-1" d="M2006,1018.48a12.71,12.71,0,0,1,6.76-6.76,12.88,12.88,0,0,1,10,0,13.43,13.43,0,0,1,4.08,2.72,12.75,12.75,0,0,1,2.76,14,13,13,0,0,1-6.84,6.84,12.64,12.64,0,0,1-14-2.76,13.43,13.43,0,0,1-2.72-4.08,12.88,12.88,0,0,1,0-10Z"/><path class="cls-1" d="M1779.69,1017.48a12.89,12.89,0,0,1,2.72-4,12.72,12.72,0,0,1,4-2.72,12.88,12.88,0,0,1,10,0,13.25,13.25,0,0,1,4.08,2.72,12.71,12.71,0,0,1,2.75,14,12.87,12.87,0,0,1-6.83,6.83,12.67,12.67,0,0,1-14-2.75,13.43,13.43,0,0,1-2.72-4.08,12.88,12.88,0,0,1,0-10Z"/><path class="cls-1" d="M1545.14,1018.48a12.71,12.71,0,0,1,6.76-6.76,12.88,12.88,0,0,1,9.95,0,13.43,13.43,0,0,1,4.08,2.72,12.71,12.71,0,0,1,2.75,14,12.82,12.82,0,0,1-2.75,4.08,13,13,0,0,1-4.08,2.76,12.64,12.64,0,0,1-14-2.76,13.43,13.43,0,0,1-2.72-4.08,12.88,12.88,0,0,1,0-10Z"/><path class="cls-1" d="M1309.79,1018.48a12.71,12.71,0,0,1,6.76-6.76,12.88,12.88,0,0,1,10,0,13.43,13.43,0,0,1,4.08,2.72,12.71,12.71,0,0,1,2.75,14,12.82,12.82,0,0,1-2.75,4.08,13,13,0,0,1-4.08,2.76,12.64,12.64,0,0,1-14-2.76,13.43,13.43,0,0,1-2.72-4.08,12.88,12.88,0,0,1,0-10Z"/><path class="cls-1" d="M1076.24,1018.48a12.71,12.71,0,0,1,6.76-6.76,12.88,12.88,0,0,1,10,0,13.43,13.43,0,0,1,4.08,2.72,12.62,12.62,0,0,1,2.76,4,12.88,12.88,0,0,1,0,10,13,13,0,0,1-6.84,6.84,12.64,12.64,0,0,1-14-2.76,13.43,13.43,0,0,1-2.72-4.08,12.88,12.88,0,0,1,0-10Z"/><path class="cls-1" d="M607.35,819.31a12.85,12.85,0,0,1,2.71-4,13.05,13.05,0,0,1,4.05-2.72,12.85,12.85,0,0,1,9.94,0,13.35,13.35,0,0,1,4.09,2.72,12.8,12.8,0,0,1,2.75,4,12.85,12.85,0,0,1,0,9.94,13.16,13.16,0,0,1-2.75,4.08,13,13,0,0,1-4.09,2.76,12.85,12.85,0,0,1-9.94,0,12.66,12.66,0,0,1-4.05-2.76,13.22,13.22,0,0,1-2.71-4.08,12.73,12.73,0,0,1,0-9.94Z"/><path class="cls-1" d="M840.79,821.31a12.68,12.68,0,0,1,6.76-6.77,12.88,12.88,0,0,1,10,0,13.43,13.43,0,0,1,4.08,2.72,12.66,12.66,0,0,1,2.76,4,12.88,12.88,0,0,1,0,10,13,13,0,0,1-6.84,6.83,12.88,12.88,0,0,1-10,0,12.62,12.62,0,0,1-4-2.76,13.38,13.38,0,0,1-2.72-4.07,12.88,12.88,0,0,1,0-10Z"/><path class="cls-1" d="M631.45,380.52a12.75,12.75,0,0,0-2.8-3.16,13.11,13.11,0,0,0-8.24-2.88,14.68,14.68,0,0,0-7.2,1.64,13.54,13.54,0,0,0-4.8,4.4,19.27,19.27,0,0,0-2.68,6.28,31.32,31.32,0,0,0-.84,7.28,29,29,0,0,0,.84,7,18.78,18.78,0,0,0,2.68,6.12,13.53,13.53,0,0,0,4.8,4.36,14.57,14.57,0,0,0,7.2,1.64q5.76,0,9-3.52a16.26,16.26,0,0,0,4-9.28h12.16a29.08,29.08,0,0,1-2.48,9.68,23.32,23.32,0,0,1-5.28,7.36,22.35,22.35,0,0,1-7.68,4.64,28.09,28.09,0,0,1-9.68,1.6,29.26,29.26,0,0,1-11.8-2.28,25.18,25.18,0,0,1-8.84-6.28,27.74,27.74,0,0,1-5.52-9.4,34.5,34.5,0,0,1-1.92-11.64,35.75,35.75,0,0,1,1.92-11.88,28.57,28.57,0,0,1,5.52-9.56,25.22,25.22,0,0,1,8.84-6.4,30.63,30.63,0,0,1,20.72-1,24.36,24.36,0,0,1,7.52,4,21.53,21.53,0,0,1,5.48,6.44,23.18,23.18,0,0,1,2.72,8.8H632.89A10.48,10.48,0,0,0,631.45,380.52Z"/><path class="cls-1" d="M870.45,633.5q-6.48,5.65-17.92,5.65-11.61,0-18-5.61t-6.36-17.27V580.74h12.56v35.53a25.49,25.49,0,0,0,.4,4.55,9,9,0,0,0,1.68,4,9.22,9.22,0,0,0,3.56,2.8,14.31,14.31,0,0,0,6.12,1.08q6.72,0,9.28-3c1.7-2,2.56-5.13,2.56-9.39V580.74h12.56v35.53Q876.93,627.87,870.45,633.5Z"/><path class="cls-1" d="M1074,836.1a9,9,0,0,0,2.75,3.24,12,12,0,0,0,4,1.84,19.13,19.13,0,0,0,4.8.6,24.79,24.79,0,0,0,3.61-.28,12.15,12.15,0,0,0,3.59-1.08,7.69,7.69,0,0,0,2.8-2.2,5.49,5.49,0,0,0,1.12-3.56,5,5,0,0,0-1.47-3.76,11.77,11.77,0,0,0-3.88-2.4,39.16,39.16,0,0,0-5.45-1.68c-2-.48-4.08-1-6.16-1.6a53.16,53.16,0,0,1-6.24-2,21.12,21.12,0,0,1-5.43-3,13.5,13.5,0,0,1-5.37-11.28,15,15,0,0,1,1.88-7.64,17.19,17.19,0,0,1,4.92-5.4,21.62,21.62,0,0,1,6.88-3.2,29.48,29.48,0,0,1,7.69-1,36.6,36.6,0,0,1,8.59,1,21.66,21.66,0,0,1,7.33,3.24,16.55,16.55,0,0,1,5.08,5.72,17.6,17.6,0,0,1,1.88,8.44h-12.17a9.93,9.93,0,0,0-1.08-4.24,7,7,0,0,0-2.43-2.64,10.47,10.47,0,0,0-3.49-1.36,21.85,21.85,0,0,0-4.28-.4,15,15,0,0,0-3,.32,8.4,8.4,0,0,0-2.76,1.12,7.2,7.2,0,0,0-2,2,5.41,5.41,0,0,0-.8,3,5.19,5.19,0,0,0,.64,2.72,5.64,5.64,0,0,0,2.53,1.92,30.92,30.92,0,0,0,5.2,1.76q3.32.88,8.67,2.24c1.07.22,2.55.6,4.45,1.16a21.59,21.59,0,0,1,5.64,2.68,17.18,17.18,0,0,1,4.83,4.92,13.94,13.94,0,0,1,2,7.88,17.48,17.48,0,0,1-1.51,7.28,15.86,15.86,0,0,1-4.53,5.8,21.47,21.47,0,0,1-7.44,3.8,35,35,0,0,1-10.27,1.36,35.72,35.72,0,0,1-9.16-1.16,22.79,22.79,0,0,1-7.84-3.64,18,18,0,0,1-5.41-6.32,18.94,18.94,0,0,1-1.92-9.12H1073A10.39,10.39,0,0,0,1074,836.1Z"/><path class="cls-1" d="M1297.53,810.18V799.62h46.8v10.56h-17.12v46.56h-12.56V810.18Z"/><path class="cls-1" d="M1530.75,597.23a28.57,28.57,0,0,1,5.52-9.56,25.31,25.31,0,0,1,8.84-6.4,31.27,31.27,0,0,1,23.64,0,25.34,25.34,0,0,1,8.8,6.4,28.57,28.57,0,0,1,5.52,9.56,35.66,35.66,0,0,1,1.92,11.88,34.5,34.5,0,0,1-1.92,11.64,27.83,27.83,0,0,1-5.52,9.4,25.3,25.3,0,0,1-8.8,6.28,31.78,31.78,0,0,1-23.64,0,25.27,25.27,0,0,1-8.84-6.28,27.83,27.83,0,0,1-5.52-9.4,34.5,34.5,0,0,1-1.92-11.64A35.66,35.66,0,0,1,1530.75,597.23Zm11.48,18.88a19,19,0,0,0,2.68,6.12,13.79,13.79,0,0,0,4.8,4.36,16.62,16.62,0,0,0,14.4,0,13.62,13.62,0,0,0,4.8-4.36,18.78,18.78,0,0,0,2.68-6.12,29.1,29.1,0,0,0,.84-7,31.26,31.26,0,0,0-.84-7.28,19.18,19.18,0,0,0-2.68-6.28,13.45,13.45,0,0,0-4.8-4.4,16.62,16.62,0,0,0-14.4,0,13.62,13.62,0,0,0-4.8,4.4,19.39,19.39,0,0,0-2.68,6.28,31.26,31.26,0,0,0-.84,7.28A29.1,29.1,0,0,0,1542.23,616.11Z"/><path class="cls-1" d="M1778.09,365.13l13.36,39.28h.16l12.64-39.28h17.68v57.12h-11.76V381.77H1810l-14,40.48h-9.68l-14-40.08h-.16v40.08h-11.76V365.13Z"/></svg>