<svg id="Layer_1" data-name="Layer 1" xmlns="http://www.w3.org/2000/svg" viewBox="0 0 2306.63 1178.55"><defs><style>.cls-1{fill:#231f20;}</style></defs><title>PSP_logo-choreographed-Mobile</title><path class="cls-1" d="M564.69,847.62a12.56,12.56,0,0,1,2.72-4,12.72,12.72,0,0,1,4-2.72,12.88,12.88,0,0,1,9.95,0,13.25,13.25,0,0,1,4.08,2.72,12.64,12.64,0,0,1,2.75,4,12.88,12.88,0,0,1,0,10,13.16,13.16,0,0,1-2.75,4.08,13,13,0,0,1-4.08,2.75,12.67,12.67,0,0,1-14-2.75,13.07,13.07,0,0,1-2.72-4.08,12.88,12.88,0,0,1,0-10Z"/><path class="cls-1" d="M564.69,170.91a12.67,12.67,0,0,1,2.72-4,12.89,12.89,0,0,1,4-2.72,12.88,12.88,0,0,1,9.95,0,13.43,13.43,0,0,1,4.08,2.72,12.75,12.75,0,0,1,2.75,4,12.88,12.88,0,0,1,0,10,13.16,13.16,0,0,1-2.75,4.08,13,13,0,0,1-4.08,2.76,12.64,12.64,0,0,1-14-2.76,13.07,13.07,0,0,1-2.72-4.08,12.88,12.88,0,0,1,0-10Z"/><path class="cls-1" d="M1268,847.62a12.68,12.68,0,0,1,6.77-6.76,12.85,12.85,0,0,1,9.94,0,13.25,13.25,0,0,1,4.08,2.72,12.75,12.75,0,0,1,2.76,14,12.93,12.93,0,0,1-6.84,6.83,12.85,12.85,0,0,1-9.94,0,12.52,12.52,0,0,1-4-2.75,13.43,13.43,0,0,1-2.72-4.08,12.88,12.88,0,0,1,0-10Z"/><path class="cls-1" d="M1268,169.09a12.68,12.68,0,0,1,6.77-6.76,12.85,12.85,0,0,1,9.94,0,13.43,13.43,0,0,1,4.08,2.72,12.62,12.62,0,0,1,2.76,4,12.88,12.88,0,0,1,0,9.95,13,13,0,0,1-6.84,6.84,12.66,12.66,0,0,1-14-2.76A13.43,13.43,0,0,1,1268,179a12.88,12.88,0,0,1,0-9.95Z"/><path class="cls-1" d="M1502.48,170.74a12.71,12.71,0,0,1,6.76-6.76,12.88,12.88,0,0,1,10,0,13.25,13.25,0,0,1,4.08,2.72,12.75,12.75,0,0,1,2.76,14,12.93,12.93,0,0,1-6.84,6.83,12.76,12.76,0,0,1-10,0,12.59,12.59,0,0,1-4-2.75,13.43,13.43,0,0,1-2.72-4.08,12.88,12.88,0,0,1,0-9.95Z"/><path class="cls-1" d="M1736.93,170.74a12.71,12.71,0,0,1,6.76-6.76,12.88,12.88,0,0,1,10,0,13.25,13.25,0,0,1,4.08,2.72,12.75,12.75,0,0,1,2.76,14,12.93,12.93,0,0,1-6.84,6.83,12.76,12.76,0,0,1-10,0,12.59,12.59,0,0,1-4-2.75,13.43,13.43,0,0,1-2.72-4.08,12.88,12.88,0,0,1,0-9.95Z"/><path class="cls-1" d="M1963.72,416.63a12.62,12.62,0,0,1,6.76-6.76,12.76,12.76,0,0,1,10,0,13.22,13.22,0,0,1,4.08,2.71,12.8,12.8,0,0,1,2.75,4.05,12.88,12.88,0,0,1,0,9.95,13,13,0,0,1-6.83,6.83,12.64,12.64,0,0,1-14-2.76,12.92,12.92,0,0,1-2.72-4.07,12.88,12.88,0,0,1,0-9.95Z"/><path class="cls-1" d="M1963.72,170.91a12.67,12.67,0,0,1,2.72-4,12.89,12.89,0,0,1,4-2.72,12.88,12.88,0,0,1,10,0,13.43,13.43,0,0,1,4.08,2.72,12.75,12.75,0,0,1,2.75,4,12.88,12.88,0,0,1,0,10,13.16,13.16,0,0,1-2.75,4.08,13,13,0,0,1-4.08,2.76,12.64,12.64,0,0,1-14-2.76,13.07,13.07,0,0,1-2.72-4.08,12.88,12.88,0,0,1,0-10Z"/><path class="cls-1" d="M330.24,169.09a12.71,12.71,0,0,1,6.76-6.76,12.88,12.88,0,0,1,9.95,0,13.43,13.43,0,0,1,4.08,2.72,12.76,12.76,0,0,1,2.75,14,12.82,12.82,0,0,1-2.75,4.08,13,13,0,0,1-4.08,2.76,12.64,12.64,0,0,1-14-2.76,13.25,13.25,0,0,1-2.72-4.08,12.88,12.88,0,0,1,0-9.95Z"/><path class="cls-1" d="M104.63,416.86a13.05,13.05,0,0,1,2.72-4.05,12.7,12.7,0,0,1,4-2.71,12.76,12.76,0,0,1,10,0,13.22,13.22,0,0,1,4.08,2.71,12.78,12.78,0,0,1,2.75,14,12.78,12.78,0,0,1-2.75,4.07,13,13,0,0,1-4.08,2.76,12.64,12.64,0,0,1-14-2.76,13.38,13.38,0,0,1-2.72-4.07,12.88,12.88,0,0,1,0-9.95Z"/><path class="cls-1" d="M104.63,632.18a12.89,12.89,0,0,1,2.72-4,12.72,12.72,0,0,1,4-2.72,12.88,12.88,0,0,1,10,0,13.25,13.25,0,0,1,4.08,2.72,12.76,12.76,0,0,1,2.75,14,12.87,12.87,0,0,1-6.83,6.83,12.67,12.67,0,0,1-14-2.75,13.43,13.43,0,0,1-2.72-4.08,12.88,12.88,0,0,1,0-10Z"/><path class="cls-1" d="M104.63,169.09a12.71,12.71,0,0,1,6.76-6.76,12.88,12.88,0,0,1,10,0,13.43,13.43,0,0,1,4.08,2.72,12.76,12.76,0,0,1,2.75,14,12.82,12.82,0,0,1-2.75,4.08,13,13,0,0,1-4.08,2.76,12.64,12.64,0,0,1-14-2.76,13.43,13.43,0,0,1-2.72-4.08,12.88,12.88,0,0,1,0-9.95Z"/><path class="cls-1" d="M104.63,847.62a12.89,12.89,0,0,1,2.72-4,12.72,12.72,0,0,1,4-2.72,12.88,12.88,0,0,1,10,0,13.25,13.25,0,0,1,4.08,2.72,12.76,12.76,0,0,1,2.75,14,12.82,12.82,0,0,1-2.75,4.08,13,13,0,0,1-4.08,2.75,12.67,12.67,0,0,1-14-2.75,13.43,13.43,0,0,1-2.72-4.08,12.88,12.88,0,0,1,0-10Z"/><path class="cls-1" d="M2194.83,632.18a12.71,12.71,0,0,1,6.76-6.76,12.88,12.88,0,0,1,9.95,0,13.25,13.25,0,0,1,4.08,2.72,12.75,12.75,0,0,1,2.76,14,13,13,0,0,1-2.76,4.08,12.82,12.82,0,0,1-4.08,2.75,12.67,12.67,0,0,1-14-2.75,13.43,13.43,0,0,1-2.72-4.08,12.88,12.88,0,0,1,0-10Z"/><path class="cls-1" d="M2194.83,416.86a13.05,13.05,0,0,1,2.72-4.05,12.81,12.81,0,0,1,4-2.71,12.76,12.76,0,0,1,9.95,0,13.22,13.22,0,0,1,4.08,2.71,12.76,12.76,0,0,1,2.76,14,13,13,0,0,1-6.84,6.83,12.88,12.88,0,0,1-9.95,0,12.62,12.62,0,0,1-4-2.76,13.38,13.38,0,0,1-2.72-4.07,12.88,12.88,0,0,1,0-9.95Z"/><path class="cls-1" d="M2194.83,169.09a12.71,12.71,0,0,1,6.76-6.76,12.88,12.88,0,0,1,9.95,0,13.43,13.43,0,0,1,4.08,2.72,12.75,12.75,0,0,1,2.76,14,13,13,0,0,1-6.84,6.84,12.64,12.64,0,0,1-14-2.76,13.43,13.43,0,0,1-2.72-4.08,12.88,12.88,0,0,1,0-9.95Z"/><path class="cls-1" d="M799.14,170.86a12.71,12.71,0,0,1,2.72-4.05,12.89,12.89,0,0,1,4-2.72,12.85,12.85,0,0,1,9.94,0,13.35,13.35,0,0,1,4.09,2.72,12.8,12.8,0,0,1,2.75,4.05,12.85,12.85,0,0,1,0,9.94,13.16,13.16,0,0,1-2.75,4.08,13,13,0,0,1-4.09,2.76,12.85,12.85,0,0,1-9.94,0,12.51,12.51,0,0,1-4-2.76,13.07,13.07,0,0,1-2.72-4.08,12.85,12.85,0,0,1,0-9.94Z"/><path class="cls-1" d="M330.24,632.07A12.68,12.68,0,0,1,337,625.3a12.88,12.88,0,0,1,9.95,0A13.43,13.43,0,0,1,351,628a12.76,12.76,0,0,1,2.75,14,12.71,12.71,0,0,1-2.75,4.08,13,13,0,0,1-4.08,2.76,12.64,12.64,0,0,1-14-2.76,13.13,13.13,0,0,1-2.72-4.08,12.85,12.85,0,0,1,0-9.94Z"/><path class="cls-1" d="M330.24,847.62a12.71,12.71,0,0,1,6.76-6.76,12.88,12.88,0,0,1,9.95,0,13.25,13.25,0,0,1,4.08,2.72,12.76,12.76,0,0,1,2.75,14,12.82,12.82,0,0,1-2.75,4.08A13,13,0,0,1,347,864.4a12.67,12.67,0,0,1-14-2.75,13.25,13.25,0,0,1-2.72-4.08,12.88,12.88,0,0,1,0-10Z"/><path class="cls-1" d="M799.14,847.51a12.71,12.71,0,0,1,2.72-4,12.89,12.89,0,0,1,4-2.72,12.85,12.85,0,0,1,9.94,0,13.35,13.35,0,0,1,4.09,2.72,12.8,12.8,0,0,1,2.75,4,12.85,12.85,0,0,1,0,9.94,13.16,13.16,0,0,1-2.75,4.08,13,13,0,0,1-4.09,2.76,12.85,12.85,0,0,1-9.94,0,12.51,12.51,0,0,1-4-2.76,13.07,13.07,0,0,1-2.72-4.08,12.85,12.85,0,0,1,0-9.94Z"/><path class="cls-1" d="M1033.59,847.62a12.62,12.62,0,0,1,6.76-6.76,12.85,12.85,0,0,1,9.94,0,13,13,0,0,1,4.08,2.72,12.75,12.75,0,0,1,2.76,14,13,13,0,0,1-2.76,4.08,12.76,12.76,0,0,1-4.08,2.75,12.85,12.85,0,0,1-9.94,0,12.52,12.52,0,0,1-4-2.75,13.22,13.22,0,0,1-2.71-4.08,12.76,12.76,0,0,1,0-10Z"/><path class="cls-1" d="M1502.48,847.62a12.71,12.71,0,0,1,6.76-6.76,12.88,12.88,0,0,1,10,0,13.25,13.25,0,0,1,4.08,2.72,12.75,12.75,0,0,1,2.76,14,12.93,12.93,0,0,1-6.84,6.83,12.88,12.88,0,0,1-10,0,12.59,12.59,0,0,1-4-2.75,13.43,13.43,0,0,1-2.72-4.08,12.88,12.88,0,0,1,0-10Z"/><path class="cls-1" d="M2194.83,852.72a12.68,12.68,0,0,1,6.76-6.77,12.88,12.88,0,0,1,9.95,0,13.43,13.43,0,0,1,4.08,2.72,12.75,12.75,0,0,1,2.76,14,13,13,0,0,1-6.84,6.84,12.88,12.88,0,0,1-9.95,0,12.62,12.62,0,0,1-4-2.76,13.31,13.31,0,0,1-2.72-4.08,12.85,12.85,0,0,1,0-9.94Z"/><path class="cls-1" d="M1736.93,847.62a12.71,12.71,0,0,1,6.76-6.76,12.88,12.88,0,0,1,10,0,13.25,13.25,0,0,1,4.08,2.72,12.75,12.75,0,0,1,2.76,14,12.93,12.93,0,0,1-6.84,6.83,12.88,12.88,0,0,1-10,0,12.59,12.59,0,0,1-4-2.75,13.43,13.43,0,0,1-2.72-4.08,12.88,12.88,0,0,1,0-10Z"/><path class="cls-1" d="M1963.72,847.62a12.56,12.56,0,0,1,2.72-4,12.72,12.72,0,0,1,4-2.72,12.88,12.88,0,0,1,10,0,13.25,13.25,0,0,1,4.08,2.72,12.64,12.64,0,0,1,2.75,4,12.88,12.88,0,0,1,0,10,13.16,13.16,0,0,1-2.75,4.08,13,13,0,0,1-4.08,2.75,12.67,12.67,0,0,1-14-2.75,13.07,13.07,0,0,1-2.72-4.08,12.88,12.88,0,0,1,0-10Z"/><path class="cls-1" d="M564.69,1047.5a12.56,12.56,0,0,1,2.72-4,12.72,12.72,0,0,1,4-2.72,12.88,12.88,0,0,1,9.95,0,13.25,13.25,0,0,1,4.08,2.72,12.64,12.64,0,0,1,2.75,4,12.88,12.88,0,0,1,0,10,13.16,13.16,0,0,1-2.75,4.08,13,13,0,0,1-4.08,2.76,12.64,12.64,0,0,1-14-2.76,13.07,13.07,0,0,1-2.72-4.08,12.88,12.88,0,0,1,0-10Z"/><path class="cls-1" d="M330.24,1047.45a12.68,12.68,0,0,1,6.76-6.77,12.88,12.88,0,0,1,9.95,0,13.43,13.43,0,0,1,4.08,2.72,12.76,12.76,0,0,1,2.75,14,12.82,12.82,0,0,1-2.75,4.08,13,13,0,0,1-4.08,2.76,12.64,12.64,0,0,1-14-2.76,13.25,13.25,0,0,1-2.72-4.08,12.85,12.85,0,0,1,0-9.94Z"/><path class="cls-1" d="M104.63,1047.45a13.05,13.05,0,0,1,2.72-4,12.89,12.89,0,0,1,4-2.72,12.88,12.88,0,0,1,10,0,13.43,13.43,0,0,1,4.08,2.72,12.76,12.76,0,0,1,2.75,14,12.82,12.82,0,0,1-2.75,4.08,13,13,0,0,1-4.08,2.76,12.64,12.64,0,0,1-14-2.76,13.43,13.43,0,0,1-2.72-4.08,12.85,12.85,0,0,1,0-9.94Z"/><path class="cls-1" d="M799.14,1047.5a12.56,12.56,0,0,1,2.72-4,12.72,12.72,0,0,1,4-2.72,12.85,12.85,0,0,1,9.94,0,13.18,13.18,0,0,1,4.09,2.72,12.64,12.64,0,0,1,2.75,4,12.88,12.88,0,0,1,0,10,13.16,13.16,0,0,1-2.75,4.08,13,13,0,0,1-4.09,2.76,12.63,12.63,0,0,1-14-2.76,13.07,13.07,0,0,1-2.72-4.08,12.88,12.88,0,0,1,0-10Z"/><path class="cls-1" d="M1033.59,170.91a12.62,12.62,0,0,1,6.76-6.76,12.85,12.85,0,0,1,9.94,0,13.19,13.19,0,0,1,4.08,2.72,12.62,12.62,0,0,1,2.76,4,12.88,12.88,0,0,1,0,10,13,13,0,0,1-2.76,4.08,12.79,12.79,0,0,1-4.08,2.76,12.66,12.66,0,0,1-14-2.76,13.22,13.22,0,0,1-2.71-4.08,12.76,12.76,0,0,1,0-10Z"/><path class="cls-1" d="M354.53,408.36a12.75,12.75,0,0,0-2.8-3.16,13.11,13.11,0,0,0-8.24-2.88,14.68,14.68,0,0,0-7.2,1.64,13.62,13.62,0,0,0-4.8,4.4,19.18,19.18,0,0,0-2.68,6.28,31.26,31.26,0,0,0-.84,7.28,29.1,29.1,0,0,0,.84,7,18.78,18.78,0,0,0,2.68,6.12,13.79,13.79,0,0,0,4.8,4.36,14.68,14.68,0,0,0,7.2,1.64q5.76,0,9-3.52a16.29,16.29,0,0,0,4-9.28h12.16a29.14,29.14,0,0,1-2.48,9.68,23.12,23.12,0,0,1-5.28,7.36,22.51,22.51,0,0,1-7.68,4.64,28.28,28.28,0,0,1-9.68,1.6,29.29,29.29,0,0,1-11.8-2.28,25.27,25.27,0,0,1-8.84-6.28,27.83,27.83,0,0,1-5.52-9.4,34.5,34.5,0,0,1-1.92-11.64A35.66,35.66,0,0,1,317.33,410a28.57,28.57,0,0,1,5.52-9.56,25.31,25.31,0,0,1,8.84-6.4,30.63,30.63,0,0,1,20.72-1,24.25,24.25,0,0,1,7.52,4,21.41,21.41,0,0,1,5.48,6.44,23,23,0,0,1,2.72,8.8H356A10.15,10.15,0,0,0,354.53,408.36Z"/><path class="cls-1" d="M564.9,393.31v21.92H588V393.31h12.56v57.12H588V425.79H564.9v24.64H552.34V393.31Z"/><path class="cls-1" d="M784.75,410a28.57,28.57,0,0,1,5.52-9.56,25.22,25.22,0,0,1,8.84-6.4,31.27,31.27,0,0,1,23.64,0,25.43,25.43,0,0,1,8.8,6.4,28.57,28.57,0,0,1,5.52,9.56A35.66,35.66,0,0,1,839,421.92a34.5,34.5,0,0,1-1.92,11.64,27.83,27.83,0,0,1-5.52,9.4,25.39,25.39,0,0,1-8.8,6.28,31.78,31.78,0,0,1-23.64,0,25.18,25.18,0,0,1-8.84-6.28,27.83,27.83,0,0,1-5.52-9.4,34.5,34.5,0,0,1-1.92-11.64A35.66,35.66,0,0,1,784.75,410Zm11.48,18.88a18.78,18.78,0,0,0,2.68,6.12,13.62,13.62,0,0,0,4.8,4.36,16.62,16.62,0,0,0,14.4,0,13.79,13.79,0,0,0,4.8-4.36,19,19,0,0,0,2.68-6.12,29.1,29.1,0,0,0,.84-7,31.26,31.26,0,0,0-.84-7.28,19.39,19.39,0,0,0-2.68-6.28,13.62,13.62,0,0,0-4.8-4.4,16.62,16.62,0,0,0-14.4,0,13.45,13.45,0,0,0-4.8,4.4,19.18,19.18,0,0,0-2.68,6.28,31.26,31.26,0,0,0-.84,7.28A29.1,29.1,0,0,0,796.23,428.92Z"/><path class="cls-1" d="M1051.56,391.42a18.35,18.35,0,0,1,6.92,1.24,16,16,0,0,1,5.28,3.39,15.09,15.09,0,0,1,3.36,5,16.16,16.16,0,0,1,1.16,6.13,17.22,17.22,0,0,1-2.12,8.72,13.36,13.36,0,0,1-6.92,5.6v.16a9.69,9.69,0,0,1,3.84,2,10.92,10.92,0,0,1,2.48,3.12,14.75,14.75,0,0,1,1.4,4,35.6,35.6,0,0,1,.6,4.32c0,.9.1,2,.16,3.2s.14,2.48.28,3.76a24,24,0,0,0,.64,3.64,8.34,8.34,0,0,0,1.32,2.92H1057.4a22,22,0,0,1-1.28-6.49q-.24-3.75-.72-7.19-.64-4.49-2.72-6.56t-6.8-2.08h-12.56v22.32h-12.56V391.42Zm-4.48,25.84q4.32,0,6.48-1.92c1.44-1.29,2.16-3.36,2.16-6.25s-.72-4.78-2.16-6-3.6-1.87-6.48-1.87h-13.76v16.08Z"/><path class="cls-1" d="M1300.85,393.31v10.56h-30.16v12.24h27.68v9.76h-27.68v14h30.8v10.56h-43.36V393.31Z"/><path class="cls-1" d="M1488.09,410a28.59,28.59,0,0,1,5.53-9.56,25.13,25.13,0,0,1,8.84-6.4,31.24,31.24,0,0,1,23.63,0,25.25,25.25,0,0,1,8.8,6.4,28.59,28.59,0,0,1,5.53,9.56,35.92,35.92,0,0,1,1.92,11.88,34.75,34.75,0,0,1-1.92,11.64,27.85,27.85,0,0,1-5.53,9.4,25.21,25.21,0,0,1-8.8,6.28,31.75,31.75,0,0,1-23.63,0,25.09,25.09,0,0,1-8.84-6.28,27.85,27.85,0,0,1-5.53-9.4,34.5,34.5,0,0,1-1.92-11.64A35.66,35.66,0,0,1,1488.09,410Zm11.49,18.88a18.57,18.57,0,0,0,2.68,6.12,13.68,13.68,0,0,0,4.79,4.36,16.65,16.65,0,0,0,14.41,0,13.79,13.79,0,0,0,4.8-4.36,18.77,18.77,0,0,0,2.67-6.12,28.6,28.6,0,0,0,.84-7,30.73,30.73,0,0,0-.84-7.28,19.16,19.16,0,0,0-2.67-6.28,13.62,13.62,0,0,0-4.8-4.4,16.65,16.65,0,0,0-14.41,0,13.51,13.51,0,0,0-4.79,4.4,19,19,0,0,0-2.68,6.28,30.73,30.73,0,0,0-.85,7.28A28.61,28.61,0,0,0,1499.58,428.92Z"/><path class="cls-1" d="M586.26,665.24A21.18,21.18,0,0,1,578,667a29.29,29.29,0,0,1-11.8-2.28,25.4,25.4,0,0,1-8.84-6.28,27.83,27.83,0,0,1-5.52-9.4,34.5,34.5,0,0,1-1.92-11.64,35.66,35.66,0,0,1,1.92-11.88,28.47,28.47,0,0,1,5.52-9.56,25.19,25.19,0,0,1,8.84-6.4A28.8,28.8,0,0,1,578,607.2a27.78,27.78,0,0,1,8.52,1.32A24,24,0,0,1,594,612.4a21,21,0,0,1,8.12,15h-12a12,12,0,0,0-4.32-7.2,12.56,12.56,0,0,0-7.76-2.4,14.57,14.57,0,0,0-7.2,1.64,13.62,13.62,0,0,0-4.8,4.4,19.18,19.18,0,0,0-2.68,6.28,31.19,31.19,0,0,0-.84,7.28,29.1,29.1,0,0,0,.84,7,19,19,0,0,0,2.68,6.12,13.89,13.89,0,0,0,4.8,4.36,14.68,14.68,0,0,0,7.2,1.64q6.24,0,9.64-3.16t4-9.16H579V634.8h24v30.88h-8l-1.28-6.48A18.85,18.85,0,0,1,586.26,665.24Z"/><path class="cls-1" d="M817.11,608.52a18.31,18.31,0,0,1,6.92,1.24,15.89,15.89,0,0,1,5.28,3.4,14.74,14.74,0,0,1,3.36,5,16.07,16.07,0,0,1,1.16,6.12,17.22,17.22,0,0,1-2.12,8.72,13.36,13.36,0,0,1-6.92,5.6v.16a9.69,9.69,0,0,1,3.84,2,10.92,10.92,0,0,1,2.48,3.12,14.75,14.75,0,0,1,1.4,4,35.6,35.6,0,0,1,.6,4.32c0,.9.1,2,.16,3.2s.14,2.48.28,3.76a25.3,25.3,0,0,0,.64,3.64,8.34,8.34,0,0,0,1.32,2.92H823a22,22,0,0,1-1.28-6.48q-.24-3.76-.72-7.2-.65-4.49-2.72-6.56t-6.8-2.08H798.87v22.32H786.31V608.52Zm-4.48,25.84q4.32,0,6.48-1.92t2.16-6.24q0-4.17-2.16-6c-1.44-1.26-3.6-1.88-6.48-1.88H798.87v16.08Z"/><path class="cls-1" d="M1051.92,608.52l21.36,57.12h-13l-4.32-12.72h-21.36l-4.48,12.72h-12.64l21.6-57.12Zm.72,35-7.2-21h-.16l-7.44,21Z"/><path class="cls-1" d="M1282.81,608.52a23.81,23.81,0,0,1,9.12,1.56,17.14,17.14,0,0,1,6.12,4.12,15.79,15.79,0,0,1,3.44,5.84,21.82,21.82,0,0,1,0,13.56,15.87,15.87,0,0,1-3.44,5.88,17.27,17.27,0,0,1-6.12,4.12,23.81,23.81,0,0,1-9.12,1.56h-13.2v20.48h-12.56V608.52Zm-3.44,26.88a26.77,26.77,0,0,0,4.16-.32,9.94,9.94,0,0,0,3.52-1.24,6.88,6.88,0,0,0,2.44-2.6,11,11,0,0,0,0-8.8,6.81,6.81,0,0,0-2.44-2.6,9.56,9.56,0,0,0-3.52-1.24,25.6,25.6,0,0,0-4.16-.32h-9.76V635.4Z"/><path class="cls-1" d="M1502.7,608.52v21.92h23.12V608.52h12.56v57.12h-12.56V641H1502.7v24.64h-12.57V608.52Z"/><path class="cls-1" d="M1769.74,608.52v10.56h-30.16v12.24h27.68v9.76h-27.68v14h30.8v10.56H1727V608.52Z"/><path class="cls-1" d="M1974.85,608.52a29.25,29.25,0,0,1,10.28,1.76,22.26,22.26,0,0,1,8.24,5.28,24.36,24.36,0,0,1,5.44,8.8,35.51,35.51,0,0,1,2,12.4,39.46,39.46,0,0,1-1.6,11.52,25.4,25.4,0,0,1-4.84,9.12,22.69,22.69,0,0,1-8.08,6,27.47,27.47,0,0,1-11.4,2.2h-24.64V608.52Zm-.88,46.56a16.34,16.34,0,0,0,5.28-.88,11.61,11.61,0,0,0,4.56-2.92A14.78,14.78,0,0,0,1987,646a23.44,23.44,0,0,0,1.2-8,33.3,33.3,0,0,0-.84-7.8,15.54,15.54,0,0,0-2.76-6,12.16,12.16,0,0,0-5.08-3.8,20.3,20.3,0,0,0-7.8-1.32h-9v36Z"/><path class="cls-1" d="M1776.78,417v9.76h-56.16V417Z"/></svg>