<?xml version="1.0" encoding="utf-8"?>
<!-- Generator: Adobe Illustrator 22.0.1, SVG Export Plug-In . SVG Version: 6.00 Build 0)  -->
<svg version="1.1" id="Layer_1" xmlns="http://www.w3.org/2000/svg" xmlns:xlink="http://www.w3.org/1999/xlink" x="0px" y="0px"
	 viewBox="0 0 2124.8 912.8" style="enable-background:new 0 0 2124.8 912.8;" xml:space="preserve">
<style type="text/css">
	.st0{fill:#231F20;}
</style>
<path class="st0" d="M465,691c0.6-1.5,1.6-2.9,2.7-4c1.1-1.2,2.5-2.1,4-2.7c3.2-1.3,6.8-1.3,10,0c1.5,0.6,2.9,1.6,4.1,2.7
	c1.2,1.1,2.1,2.5,2.8,4c1.3,3.2,1.3,6.8,0,9.9c-0.7,1.5-1.6,2.9-2.8,4.1c-1.2,1.2-2.6,2.1-4.1,2.8c-4.8,2.1-10.3,1-14-2.8
	c-1.2-1.2-2.1-2.6-2.7-4.1C463.6,697.7,463.6,694.2,465,691L465,691z"/>
<path class="st0" d="M465,14.3c1.3-3.1,3.7-5.5,6.8-6.8c3.2-1.3,6.8-1.3,10,0c1.5,0.6,2.9,1.6,4.1,2.7c1.2,1.2,2.1,2.5,2.8,4.1
	c1.3,3.2,1.3,6.8,0,9.9c-1.3,3.1-3.8,5.5-6.8,6.9c-4.8,2.1-10.3,1-14-2.8c-1.2-1.2-2.1-2.6-2.7-4.1C463.7,21.1,463.7,17.5,465,14.3
	L465,14.3z"/>
<path class="st0" d="M1168.3,691c1.3-3.1,3.7-5.5,6.8-6.8c3.2-1.3,6.8-1.3,9.9,0c1.5,0.6,2.9,1.6,4.1,2.7c1.2,1.1,2.1,2.5,2.8,4
	c1.3,3.2,1.3,6.8,0,9.9c-1.3,3.1-3.8,5.5-6.8,6.8c-3.2,1.3-6.8,1.3-9.9,0c-1.5-0.7-2.9-1.6-4-2.8c-1.1-1.2-2.1-2.6-2.7-4.1
	C1167,697.7,1167,694.1,1168.3,691L1168.3,691z"/>
<path class="st0" d="M1168.3,12.4c0.6-1.5,1.6-2.9,2.7-4.1c1.1-1.2,2.5-2.1,4-2.7c3.2-1.3,6.8-1.3,9.9,0c1.5,0.6,2.9,1.6,4.1,2.7
	c1.2,1.2,2.1,2.5,2.8,4.1c1.3,3.2,1.3,6.8,0,9.9c-0.7,1.5-1.6,2.9-2.8,4.1c-1.2,1.2-2.6,2.1-4.1,2.8c-3.2,1.3-6.8,1.3-9.9,0
	c-1.5-0.7-2.9-1.6-4-2.8c-1.1-1.2-2.1-2.6-2.7-4.1C1167,19.2,1167,15.6,1168.3,12.4z"/>
<path class="st0" d="M1402.8,14.1c1.3-3.1,3.7-5.5,6.8-6.8c3.2-1.3,6.8-1.3,10,0c1.5,0.6,2.9,1.6,4.1,2.7c3.7,3.7,4.8,9.2,2.8,14
	c-1.3,3.1-3.8,5.5-6.8,6.8c-3.2,1.3-6.8,1.3-10,0c-1.5-0.7-2.9-1.6-4-2.8c-1.2-1.2-2.1-2.6-2.7-4.1
	C1401.5,20.9,1401.5,17.3,1402.8,14.1L1402.8,14.1z"/>
<path class="st0" d="M1637.2,14.1c1.3-3.1,3.7-5.5,6.8-6.8c3.2-1.3,6.8-1.3,10,0c1.5,0.6,2.9,1.6,4.1,2.7c3.7,3.7,4.8,9.2,2.8,14
	c-1.3,3.1-3.8,5.5-6.8,6.8c-3.2,1.3-6.8,1.3-10,0c-1.5-0.7-2.9-1.6-4-2.8c-1.2-1.2-2.1-2.6-2.7-4.1
	C1635.9,20.9,1635.9,17.3,1637.2,14.1L1637.2,14.1z"/>
<path class="st0" d="M1864,260c0.6-1.5,1.6-2.9,2.7-4c1.1-1.2,2.5-2.1,4-2.7c3.2-1.3,6.8-1.3,10,0c1.5,0.6,2.9,1.6,4.1,2.7
	c1.2,1.1,2.1,2.5,2.8,4c1.3,3.2,1.3,6.8,0,10c-0.7,1.5-1.6,2.9-2.8,4.1c-1.2,1.2-2.6,2.1-4.1,2.8c-4.8,2.1-10.3,1-14-2.8
	c-1.2-1.2-2.1-2.6-2.7-4.1C1862.7,266.7,1862.7,263.2,1864,260z"/>
<path class="st0" d="M1864,14.3c1.3-3.1,3.7-5.5,6.8-6.8c3.2-1.4,6.8-1.4,10,0c1.5,0.6,2.9,1.6,4.1,2.7c1.2,1.2,2.1,2.5,2.8,4.1
	c1.3,3.2,1.3,6.8,0,9.9c-1.3,3.1-3.8,5.5-6.8,6.8c-4.8,2.1-10.3,1-14-2.8c-1.2-1.2-2.1-2.6-2.7-4.1C1862.7,21,1862.7,17.4,1864,14.3
	L1864,14.3z"/>
<path class="st0" d="M230.6,12.4c0.6-1.5,1.6-2.9,2.7-4.1c1.1-1.2,2.5-2.1,4-2.7c3.2-1.3,6.8-1.3,10,0c1.5,0.6,2.9,1.6,4.1,2.7
	c3.7,3.7,4.8,9.2,2.8,14c-0.6,1.5-1.6,2.9-2.8,4.1c-1.2,1.2-2.6,2.1-4.1,2.8c-3.2,1.3-6.8,1.3-10,0c-1.5-0.6-2.9-1.6-4-2.8
	c-1.2-1.2-2.1-2.6-2.7-4.1C229.2,19.2,229.2,15.6,230.6,12.4z"/>
<path class="st0" d="M4.9,260.2c0.6-1.5,1.6-2.9,2.7-4c1.1-1.2,2.5-2.1,4-2.7c3.2-1.3,6.8-1.3,10,0c1.5,0.6,2.9,1.6,4.1,2.7
	c3.7,3.7,4.8,9.2,2.7,14c-0.6,1.5-1.6,2.9-2.8,4.1c-1.2,1.2-2.6,2.1-4.1,2.8c-4.8,2.1-10.3,1-14-2.8c-1.1-1.2-2.1-2.6-2.7-4.1
	C3.6,267,3.6,263.4,4.9,260.2L4.9,260.2z"/>
<path class="st0" d="M4.9,475.5c0.6-1.5,1.6-2.9,2.7-4c1.1-1.2,2.5-2.1,4-2.7c3.2-1.3,6.8-1.3,10,0c1.5,0.6,2.9,1.6,4.1,2.7
	c3.7,3.7,4.8,9.2,2.7,14c-0.6,1.5-1.6,2.9-2.8,4.1c-1.2,1.2-2.6,2.1-4.1,2.8c-4.8,2.1-10.3,1-14-2.8c-1.2-1.2-2.1-2.6-2.7-4.1
	C3.6,482.3,3.6,478.7,4.9,475.5L4.9,475.5z"/>
<path class="st0" d="M4.9,12.4c0.6-1.5,1.6-2.9,2.7-4.1c1.1-1.2,2.5-2.1,4-2.7c3.2-1.4,6.8-1.4,10,0c1.5,0.6,2.9,1.6,4.1,2.7
	c3.7,3.7,4.8,9.2,2.7,14c-0.6,1.5-1.6,2.9-2.8,4.1c-1.2,1.2-2.6,2.1-4.1,2.8c-3.2,1.3-6.8,1.3-10,0c-1.5-0.6-2.9-1.6-4-2.8
	c-1.1-1.2-2.1-2.6-2.7-4.1C3.6,19.2,3.6,15.6,4.9,12.4z"/>
<path class="st0" d="M4.9,691c0.6-1.5,1.6-2.8,2.7-4c1.1-1.2,2.5-2.1,4-2.7c3.2-1.3,6.8-1.3,10,0c1.5,0.6,2.9,1.6,4.1,2.7
	c3.7,3.7,4.8,9.2,2.7,14c-0.6,1.5-1.6,2.9-2.8,4.1c-1.2,1.2-2.6,2.1-4.1,2.8c-4.8,2.1-10.3,1-14-2.8c-1.1-1.2-2.1-2.6-2.7-4.1
	C3.6,697.8,3.6,694.2,4.9,691L4.9,691z"/>
<path class="st0" d="M2095.1,475.5c1.3-3.1,3.7-5.5,6.8-6.8c3.2-1.3,6.8-1.3,9.9,0c1.5,0.6,2.9,1.6,4.1,2.7c3.7,3.7,4.8,9.2,2.8,14
	c-1.3,3.1-3.8,5.5-6.8,6.8c-3.2,1.3-6.8,1.3-9.9,0c-1.5-0.7-2.9-1.6-4-2.8c-1.2-1.2-2.1-2.6-2.7-4.1
	C2093.8,482.3,2093.8,478.7,2095.1,475.5L2095.1,475.5z"/>
<path class="st0" d="M2095.1,260c1.3-3,3.7-5.5,6.8-6.8c3.2-1.3,6.8-1.3,9.9,0c1.5,0.6,2.9,1.6,4.1,2.7c3.7,3.7,4.8,9.2,2.8,14
	c-1.3,3.1-3.8,5.5-6.8,6.8c-4.8,2.1-10.3,1-14-2.8c-1.1-1.2-2.1-2.6-2.7-4.1C2093.8,266.8,2093.8,263.2,2095.1,260L2095.1,260z"/>
<path class="st0" d="M2095.1,14.3c0.6-1.5,1.6-2.9,2.7-4.1c1.1-1.1,2.5-2.1,4-2.7c3.2-1.3,6.8-1.3,9.9,0c1.5,0.6,2.9,1.6,4.1,2.7
	c3.7,3.7,4.8,9.2,2.8,14c-0.7,1.5-1.6,2.9-2.8,4.1c-1.2,1.2-2.6,2.1-4.1,2.8c-3.2,1.3-6.8,1.3-9.9,0c-1.5-0.7-2.9-1.6-4-2.8
	c-1.1-1.2-2.1-2.6-2.7-4.1C2093.8,21,2093.8,17.5,2095.1,14.3z"/>
<path class="st0" d="M699.5,14.2c0.6-1.5,1.6-2.9,2.7-4c1.1-1.2,2.5-2.1,4-2.7c3.2-1.3,6.8-1.3,9.9,0c1.5,0.6,2.9,1.6,4.1,2.7
	c1.2,1.1,2.1,2.5,2.8,4c1.3,3.2,1.3,6.8,0,9.9c-0.7,1.5-1.6,2.9-2.8,4.1c-1.2,1.2-2.6,2.1-4.1,2.8c-3.2,1.3-6.8,1.3-9.9,0
	c-1.5-0.6-2.9-1.6-4-2.8c-1.2-1.2-2.1-2.6-2.7-4.1C698.1,21,698.1,17.4,699.5,14.2z"/>
<path class="st0" d="M230.6,475.4c1.3-3,3.7-5.5,6.8-6.8c3.2-1.3,6.8-1.3,10,0c1.5,0.6,2.9,1.6,4.1,2.7c3.7,3.7,4.8,9.2,2.8,14
	c-1.3,3.1-3.8,5.5-6.8,6.8c-4.8,2-10.3,1-14-2.8c-1.2-1.2-2.1-2.6-2.7-4.1C229.2,482.2,229.2,478.6,230.6,475.4L230.6,475.4z"/>
<path class="st0" d="M230.6,691c1.3-3.1,3.7-5.5,6.8-6.8c3.2-1.3,6.8-1.3,10,0c1.5,0.6,2.9,1.6,4.1,2.7c3.7,3.7,4.8,9.2,2.8,14
	c-0.6,1.5-1.6,2.9-2.8,4.1c-1.2,1.2-2.6,2.1-4.1,2.8c-4.8,2.1-10.3,1-14-2.8c-1.2-1.2-2.1-2.6-2.7-4.1
	C229.2,697.7,229.2,694.2,230.6,691L230.6,691z"/>
<path class="st0" d="M699.5,690.9c0.6-1.5,1.6-2.9,2.7-4c1.1-1.2,2.5-2.1,4-2.7c3.2-1.3,6.8-1.3,9.9,0c1.5,0.6,2.9,1.6,4.1,2.7
	c1.2,1.1,2.1,2.5,2.8,4c1.3,3.2,1.3,6.8,0,10c-0.7,1.5-1.6,2.9-2.8,4.1c-1.2,1.2-2.6,2.1-4.1,2.8c-3.2,1.3-6.8,1.3-9.9,0
	c-1.5-0.6-2.9-1.6-4-2.8c-1.2-1.2-2.1-2.6-2.7-4.1C698.1,697.7,698.1,694.1,699.5,690.9z"/>
<path class="st0" d="M933.9,691c1.3-3.1,3.7-5.5,6.8-6.8c3.2-1.3,6.8-1.3,9.9,0c1.5,0.6,2.9,1.6,4.1,2.7c1.2,1.1,2.1,2.5,2.8,4
	c1.3,3.2,1.3,6.8,0,9.9c-0.7,1.5-1.6,2.9-2.8,4.1c-1.2,1.2-2.6,2.1-4.1,2.8c-3.2,1.3-6.8,1.3-9.9,0c-1.5-0.7-2.9-1.6-4-2.8
	c-1.1-1.2-2.1-2.6-2.7-4.1C932.6,697.7,932.6,694.1,933.9,691L933.9,691z"/>
<path class="st0" d="M1402.8,691c1.3-3.1,3.7-5.5,6.8-6.8c3.2-1.3,6.8-1.3,10,0c1.5,0.6,2.9,1.6,4.1,2.7c3.7,3.7,4.8,9.2,2.8,14
	c-1.3,3.1-3.8,5.5-6.8,6.8c-3.2,1.3-6.8,1.3-10,0c-1.5-0.7-2.9-1.6-4-2.8c-1.1-1.2-2.1-2.6-2.7-4.1
	C1401.5,697.7,1401.5,694.2,1402.8,691L1402.8,691z"/>
<path class="st0" d="M2095.1,696.1c1.3-3,3.7-5.5,6.8-6.8c3.2-1.3,6.8-1.3,9.9,0c1.5,0.6,2.9,1.6,4.1,2.7c3.7,3.7,4.8,9.2,2.8,14
	c-0.7,1.5-1.6,2.9-2.8,4.1c-1.2,1.2-2.6,2.1-4.1,2.8c-4.8,2-10.3,1-14-2.8c-1.1-1.2-2.1-2.6-2.7-4.1
	C2093.8,702.9,2093.8,699.3,2095.1,696.1L2095.1,696.1z"/>
<path class="st0" d="M1637.2,691c1.3-3.1,3.7-5.5,6.8-6.8c3.2-1.3,6.8-1.3,10,0c1.5,0.6,2.9,1.6,4.1,2.7c3.7,3.7,4.8,9.2,2.8,14
	c-1.3,3.1-3.8,5.5-6.8,6.8c-3.2,1.3-6.8,1.3-10,0c-1.5-0.7-2.9-1.6-4-2.8c-1.1-1.2-2.1-2.6-2.7-4.1
	C1635.9,697.7,1635.9,694.2,1637.2,691L1637.2,691z"/>
<path class="st0" d="M1864,691c0.6-1.5,1.6-2.9,2.7-4c1.1-1.2,2.5-2.1,4-2.7c3.2-1.3,6.8-1.3,10,0c1.5,0.6,2.9,1.6,4.1,2.7
	c1.2,1.1,2.1,2.5,2.8,4c1.3,3.2,1.3,6.8,0,9.9c-0.7,1.5-1.6,2.9-2.8,4.1c-1.2,1.2-2.6,2.1-4.1,2.8c-4.8,2.1-10.3,1-14-2.8
	c-1.2-1.2-2.1-2.6-2.7-4.1C1862.7,697.7,1862.7,694.2,1864,691z"/>
<path class="st0" d="M1168.3,890.4c1.3-3.1,3.7-5.5,6.8-6.8c3.2-1.3,6.8-1.3,9.9,0c1.5,0.6,2.9,1.6,4.1,2.7c1.2,1.1,2.1,2.5,2.8,4
	c1.3,3.2,1.3,6.8,0,9.9c-1.3,3.1-3.8,5.5-6.8,6.8c-3.2,1.3-6.8,1.3-9.9,0c-1.5-0.7-2.9-1.6-4-2.8c-1.2-1.2-2.1-2.6-2.7-4.1
	C1167,897.1,1167,893.5,1168.3,890.4L1168.3,890.4z"/>
<path class="st0" d="M933.9,890.4c1.3-3.1,3.7-5.5,6.8-6.8c3.2-1.3,6.8-1.3,9.9,0c1.5,0.6,2.9,1.6,4.1,2.7c1.2,1.1,2.1,2.5,2.8,4
	c1.3,3.2,1.3,6.8,0,9.9c-1.3,3.1-3.8,5.5-6.8,6.8c-3.2,1.3-6.8,1.3-9.9,0c-1.5-0.7-2.9-1.6-4-2.8c-1.2-1.2-2.1-2.6-2.7-4.1
	C932.6,897.1,932.6,893.5,933.9,890.4L933.9,890.4z"/>
<path class="st0" d="M1402.8,890.4c1.3-3.1,3.7-5.5,6.8-6.8c3.2-1.3,6.8-1.3,10,0c1.5,0.6,2.9,1.6,4.1,2.7c3.7,3.7,4.8,9.2,2.8,14
	c-1.3,3.1-3.8,5.5-6.8,6.8c-3.2,1.3-6.8,1.3-10,0c-1.5-0.7-2.9-1.6-4-2.8c-1.2-1.2-2.1-2.6-2.7-4.1
	C1401.5,897.1,1401.5,893.6,1402.8,890.4L1402.8,890.4z"/>
<path class="st0" d="M2095.1,895.5c1.3-3,3.7-5.5,6.8-6.8c3.2-1.3,6.8-1.3,9.9,0c1.5,0.6,2.9,1.6,4.1,2.7c3.7,3.7,4.8,9.2,2.8,14
	c-0.7,1.5-1.6,2.9-2.8,4.1c-1.2,1.2-2.6,2.1-4.1,2.8c-4.8,2-10.3,1-14-2.8c-1.1-1.2-2.1-2.6-2.7-4.1
	C2093.8,902.2,2093.8,898.6,2095.1,895.5L2095.1,895.5z"/>
<path class="st0" d="M1637.2,890.4c1.3-3.1,3.7-5.5,6.8-6.8c3.2-1.3,6.8-1.3,10,0c1.5,0.6,2.9,1.6,4.1,2.7c3.7,3.7,4.8,9.2,2.8,14
	c-1.3,3.1-3.8,5.5-6.8,6.8c-3.2,1.3-6.8,1.3-10,0c-1.5-0.7-2.9-1.6-4-2.8c-1.2-1.2-2.1-2.6-2.7-4.1
	C1635.9,897.1,1635.9,893.6,1637.2,890.4L1637.2,890.4z"/>
<path class="st0" d="M1864,890.4c0.6-1.5,1.6-2.9,2.7-4c1.1-1.2,2.5-2.1,4-2.7c3.2-1.3,6.8-1.3,10,0c1.5,0.6,2.9,1.6,4.1,2.7
	c1.2,1.1,2.1,2.5,2.8,4c1.3,3.2,1.3,6.8,0,9.9c-1.3,3.1-3.8,5.5-6.8,6.8c-4.8,2.1-10.3,1-14-2.8c-1.2-1.2-2.1-2.6-2.7-4.1
	C1862.7,897.1,1862.7,893.5,1864,890.4L1864,890.4z"/>
<path class="st0" d="M465,890.9c1.3-3.1,3.7-5.5,6.8-6.8c3.2-1.3,6.8-1.3,10,0c1.5,0.6,2.9,1.6,4.1,2.7c1.2,1.1,2.1,2.5,2.8,4
	c1.3,3.2,1.3,6.8,0,10c-1.3,3.1-3.8,5.5-6.8,6.8c-4.8,2.1-10.3,1-14-2.8c-1.2-1.2-2.1-2.6-2.7-4.1C463.6,897.6,463.6,894,465,890.9
	L465,890.9z"/>
<path class="st0" d="M230.6,890.8c1.3-3,3.7-5.4,6.8-6.7c3.2-1.3,6.8-1.3,10,0c1.5,0.6,2.9,1.6,4.1,2.7c3.7,3.7,4.8,9.2,2.8,14
	c-0.6,1.5-1.6,2.9-2.8,4.1c-1.2,1.2-2.6,2.1-4.1,2.8c-4.8,2-10.3,1-14-2.8c-1.2-1.2-2.1-2.6-2.7-4.1
	C229.2,897.6,229.2,894,230.6,890.8L230.6,890.8z"/>
<path class="st0" d="M4.9,890.8c0.6-1.5,1.6-2.9,2.7-4c1.1-1.2,2.5-2.1,4-2.7c3.2-1.3,6.8-1.3,10,0c1.5,0.6,2.9,1.6,4.1,2.7
	c3.7,3.7,4.8,9.2,2.7,14c-0.6,1.5-1.6,2.9-2.8,4.1c-1.2,1.2-2.6,2.1-4.1,2.8c-4.8,2-10.3,1-14-2.8c-1.1-1.2-2.1-2.6-2.7-4.1
	C3.6,897.6,3.6,894,4.9,890.8L4.9,890.8z"/>
<path class="st0" d="M699.5,890.9c1.3-3.1,3.7-5.5,6.8-6.8c3.2-1.3,6.8-1.3,9.9,0c1.5,0.6,2.9,1.6,4.1,2.7c1.2,1.1,2.1,2.5,2.8,4
	c1.3,3.2,1.3,6.8,0,10c-0.7,1.5-1.6,2.9-2.8,4.1c-1.2,1.2-2.6,2.1-4.1,2.8c-3.2,1.3-6.8,1.3-9.9,0c-1.5-0.6-2.9-1.6-4-2.8
	c-1.2-1.2-2.1-2.6-2.7-4.1C698.1,897.6,698.1,894,699.5,890.9L699.5,890.9z"/>
<path class="st0" d="M933.9,14.3c1.3-3.1,3.7-5.5,6.8-6.8c3.2-1.3,6.8-1.3,9.9,0c1.5,0.6,2.9,1.6,4.1,2.7c1.2,1.2,2.1,2.5,2.8,4.1
	c1.3,3.2,1.3,6.8,0,9.9c-1.3,3.1-3.8,5.5-6.8,6.8c-3.2,1.3-6.8,1.3-9.9,0c-1.5-0.7-2.9-1.6-4-2.8c-1.2-1.2-2.1-2.6-2.7-4.1
	C932.6,21,932.6,17.4,933.9,14.3L933.9,14.3z"/>
<path class="st0" d="M254.8,251.7c-0.8-1.2-1.7-2.3-2.8-3.2c-2.3-1.9-5.2-2.9-8.2-2.9c-2.5-0.1-5,0.5-7.2,1.6
	c-1.9,1.1-3.6,2.6-4.8,4.4c-1.3,1.9-2.2,4-2.7,6.3c-0.6,2.4-0.8,4.8-0.8,7.3c0,2.4,0.3,4.7,0.8,7c0.5,2.2,1.4,4.3,2.7,6.1
	c1.2,1.8,2.9,3.3,4.8,4.4c2.2,1.2,4.7,1.7,7.2,1.6c3.8,0,6.8-1.2,9-3.5c2.3-2.6,3.7-5.8,4-9.3H269c-0.3,3.3-1.1,6.6-2.5,9.7
	c-1.3,2.8-3,5.3-5.3,7.4c-2.2,2-4.8,3.6-7.7,4.6c-3.1,1.1-6.4,1.6-9.7,1.6c-4,0.1-8.1-0.7-11.8-2.3c-3.4-1.4-6.4-3.6-8.8-6.3
	c-2.4-2.7-4.3-5.9-5.5-9.4c-1.3-3.7-2-7.7-1.9-11.6c0-4,0.6-8.1,1.9-11.9c1.2-3.5,3.1-6.8,5.5-9.6c2.4-2.8,5.5-4.9,8.8-6.4
	c6.6-2.7,13.9-3.1,20.7-1c2.7,0.9,5.3,2.2,7.5,4c2.2,1.8,4.1,4,5.5,6.4c1.5,2.7,2.4,5.7,2.7,8.8h-12.2
	C256.1,254.3,255.6,252.9,254.8,251.7z"/>
<path class="st0" d="M465.2,236.7v21.9h23.1v-21.9h12.6v57.1h-12.6v-24.6h-23.1v24.6h-12.6v-57.1H465.2z"/>
<path class="st0" d="M685.1,253.4c1.2-3.5,3.1-6.8,5.5-9.6c2.4-2.8,5.5-4.9,8.8-6.4c7.6-3.1,16.1-3.1,23.6,0
	c3.4,1.5,6.4,3.7,8.8,6.4c2.4,2.8,4.3,6,5.5,9.6c1.3,3.8,2,7.8,1.9,11.9c0,4-0.6,7.9-1.9,11.6c-1.2,3.5-3.1,6.7-5.5,9.4
	c-2.4,2.7-5.4,4.8-8.8,6.3c-7.6,3-16.1,3-23.6,0c-3.4-1.4-6.4-3.6-8.8-6.3c-2.4-2.7-4.3-5.9-5.5-9.4c-1.3-3.7-2-7.7-1.9-11.6
	C683.1,261.2,683.8,257.2,685.1,253.4z M696.5,272.3c0.5,2.2,1.4,4.3,2.7,6.1c1.2,1.8,2.9,3.3,4.8,4.4c4.6,2.2,9.8,2.2,14.4,0
	c1.9-1,3.6-2.5,4.8-4.4c1.2-1.9,2.2-3.9,2.7-6.1c0.6-2.3,0.8-4.6,0.8-7c0-2.5-0.3-4.9-0.8-7.3c-0.5-2.2-1.4-4.4-2.7-6.3
	c-1.2-1.8-2.9-3.3-4.8-4.4c-4.6-2.2-9.8-2.2-14.4,0c-1.9,1.1-3.6,2.6-4.8,4.4c-1.3,1.9-2.2,4-2.7,6.3c-0.6,2.4-0.8,4.8-0.8,7.3
	C695.7,267.6,696,270,696.5,272.3z"/>
<path class="st0" d="M951.9,234.8c2.4,0,4.7,0.4,6.9,1.2c2,0.8,3.8,1.9,5.3,3.4c1.4,1.4,2.6,3.1,3.4,5c0.8,1.9,1.2,4,1.2,6.1
	c0.1,3-0.7,6.1-2.1,8.7c-1.6,2.6-4,4.6-6.9,5.6v0.2c1.4,0.4,2.7,1.1,3.8,2c1,0.9,1.9,1.9,2.5,3.1c0.7,1.3,1.1,2.6,1.4,4
	c0.3,1.4,0.5,2.9,0.6,4.3c0,0.9,0.1,2,0.2,3.2s0.1,2.5,0.3,3.8c0.1,1.2,0.3,2.4,0.6,3.6c0.2,1.1,0.7,2,1.3,2.9h-12.6
	c-0.8-2.1-1.2-4.3-1.3-6.5c-0.2-2.5-0.4-4.9-0.7-7.2c-0.4-3-1.3-5.2-2.7-6.6s-3.7-2.1-6.8-2.1h-12.6v22.2h-12.6v-57.1H951.9z
	 M947.4,260.6c2.9,0,5-0.6,6.5-1.9s2.2-3.4,2.2-6.2c0-2.8-0.7-4.8-2.2-6s-3.6-1.9-6.5-1.9h-13.8v16.1L947.4,260.6z"/>
<path class="st0" d="M1201.2,236.7v10.6H1171v12.2h27.7v9.8H1171v14h30.8v10.6h-43.4v-57.1H1201.2z"/>
<path class="st0" d="M1388.4,253.4c1.2-3.5,3.1-6.8,5.5-9.6c2.4-2.8,5.5-4.9,8.8-6.4c7.6-3.1,16.1-3.1,23.6,0
	c3.4,1.5,6.4,3.7,8.8,6.4c2.4,2.8,4.3,6,5.5,9.6c1.3,3.8,2,7.8,1.9,11.9c0,4-0.6,7.9-1.9,11.6c-1.2,3.5-3.1,6.7-5.5,9.4
	c-2.4,2.7-5.4,4.8-8.8,6.3c-7.6,3-16,3-23.6,0c-3.4-1.4-6.4-3.6-8.8-6.3c-2.4-2.7-4.3-5.9-5.5-9.4c-1.3-3.7-2-7.7-1.9-11.6
	C1386.4,261.2,1387.1,257.2,1388.4,253.4z M1399.9,272.3c0.5,2.2,1.4,4.3,2.7,6.1c1.2,1.8,2.9,3.3,4.8,4.4c4.6,2.2,9.9,2.2,14.4,0
	c1.9-1,3.6-2.5,4.8-4.4c1.2-1.9,2.2-3.9,2.7-6.1c0.6-2.3,0.9-4.6,0.8-7c0-2.5-0.3-4.9-0.8-7.3c-0.5-2.2-1.4-4.4-2.7-6.3
	c-1.2-1.8-2.9-3.3-4.8-4.4c-4.6-2.2-9.9-2.2-14.4,0c-1.9,1.1-3.6,2.6-4.8,4.4c-1.3,1.9-2.2,4-2.7,6.3c-0.6,2.4-0.9,4.8-0.8,7.3
	C1399,267.6,1399.3,270,1399.9,272.3z"/>
<path class="st0" d="M486.6,508.6c-2.6,1.1-5.4,1.7-8.2,1.7c-4,0.1-8.1-0.7-11.8-2.3c-3.4-1.4-6.4-3.6-8.8-6.3
	c-2.4-2.7-4.3-5.9-5.5-9.4c-1.3-3.7-2-7.7-1.9-11.6c0-4,0.6-8.1,1.9-11.9c1.2-3.5,3.1-6.8,5.5-9.6c2.4-2.8,5.5-4.9,8.8-6.4
	c3.7-1.6,7.7-2.4,11.8-2.3c2.9,0,5.8,0.4,8.5,1.3c2.7,0.9,5.2,2.2,7.4,3.9c4.7,3.6,7.7,9.1,8.1,15h-12c-0.5-2.8-2.1-5.4-4.3-7.2
	c-2.2-1.7-5-2.5-7.8-2.5c-2.5-0.1-5,0.5-7.2,1.6c-1.9,1.1-3.6,2.6-4.8,4.4c-1.3,1.9-2.2,4-2.7,6.3c-0.6,2.4-0.8,4.8-0.8,7.3
	c0,2.4,0.3,4.7,0.8,7c0.5,2.2,1.4,4.3,2.7,6.1c1.2,1.8,2.9,3.3,4.8,4.4c2.2,1.2,4.7,1.7,7.2,1.6c4.2,0,7.4-1.1,9.6-3.2
	c2.3-2.1,3.6-5.2,4-9.2h-12.6v-9.4h24V509h-8l-1.3-6.5C492.1,505.2,489.5,507.2,486.6,508.6z"/>
<path class="st0" d="M717.4,451.9c2.4,0,4.7,0.4,6.9,1.2c2,0.8,3.8,1.9,5.3,3.4c1.5,1.4,2.6,3.1,3.4,5c0.8,1.9,1.2,4,1.2,6.1
	c0.1,3-0.7,6.1-2.1,8.7c-1.6,2.6-4,4.6-6.9,5.6v0.2c1.4,0.4,2.7,1.1,3.8,2c1,0.9,1.9,1.9,2.5,3.1c0.7,1.3,1.1,2.6,1.4,4
	c0.3,1.4,0.5,2.9,0.6,4.3c0,0.9,0.1,2,0.2,3.2s0.1,2.5,0.3,3.8c0.1,1.2,0.3,2.4,0.6,3.6c0.2,1.1,0.7,2,1.3,2.9h-12.5
	c-0.8-2.1-1.2-4.3-1.3-6.5c-0.2-2.5-0.4-4.9-0.7-7.2c-0.4-3-1.3-5.2-2.7-6.6c-1.4-1.4-3.7-2.1-6.8-2.1h-12.6V509h-12.6v-57.1H717.4z
	 M712.9,477.7c2.9,0,5-0.6,6.5-1.9s2.2-3.4,2.2-6.2c0-2.8-0.7-4.8-2.2-6s-3.6-1.9-6.5-1.9h-13.8v16.1L712.9,477.7z"/>
<path class="st0" d="M952.2,451.9l21.4,57.1h-13l-4.3-12.7h-21.4l-4.5,12.7h-12.6l21.6-57.1H952.2z M953,486.9l-7.2-21h-0.2l-7.4,21
	H953z"/>
<path class="st0" d="M1183.1,451.9c3.1-0.1,6.2,0.4,9.1,1.6c2.3,0.9,4.4,2.3,6.1,4.1c1.6,1.7,2.7,3.7,3.4,5.8
	c1.4,4.4,1.4,9.2,0,13.6c-0.7,2.2-1.9,4.2-3.4,5.9c-1.7,1.8-3.8,3.2-6.1,4.1c-2.9,1.1-6,1.6-9.1,1.6h-13.2V509h-12.6v-57.1H1183.1z
	 M1179.7,478.7c1.4,0,2.8-0.1,4.2-0.3c1.2-0.2,2.4-0.6,3.5-1.2c1-0.6,1.9-1.5,2.4-2.6c1.2-2.8,1.2-6,0-8.8c-0.6-1.1-1.4-2-2.4-2.6
	c-1.1-0.6-2.3-1.1-3.5-1.2c-1.4-0.2-2.8-0.3-4.2-0.3h-9.8v17.1L1179.7,478.7z"/>
<path class="st0" d="M1403,451.9v21.9h23.1v-21.9h12.6V509h-12.6v-24.6H1403V509h-12.6v-57.1H1403z"/>
<path class="st0" d="M1670.1,451.9v10.6h-30.2v12.2h27.7v9.8h-27.7v14h30.8V509h-43.4v-57.1H1670.1z"/>
<path class="st0" d="M1875.2,451.9c3.5,0,7,0.6,10.3,1.8c3.1,1.1,5.9,2.9,8.2,5.3c2.4,2.5,4.3,5.5,5.4,8.8c1.4,4,2.1,8.2,2,12.4
	c0,3.9-0.5,7.8-1.6,11.5c-1,3.3-2.6,6.4-4.8,9.1c-2.2,2.6-5,4.6-8.1,6c-3.6,1.5-7.5,2.3-11.4,2.2h-24.6v-57.1H1875.2z M1874.3,498.4
	c1.8,0,3.6-0.3,5.3-0.9c1.7-0.6,3.3-1.6,4.6-2.9c1.4-1.5,2.5-3.3,3.2-5.3c0.9-2.6,1.3-5.3,1.2-8c0-2.6-0.3-5.2-0.8-7.8
	c-0.5-2.2-1.4-4.2-2.8-6c-1.3-1.7-3.1-3-5.1-3.8c-2.5-0.9-5.1-1.4-7.8-1.3h-9v36L1874.3,498.4z"/>
<path class="st0" d="M1677.1,260.3v9.8h-56.2v-9.8L1677.1,260.3z"/>
</svg>
