<?xml version="1.0" encoding="utf-8"?>
<!-- Generator: Adobe Illustrator 22.0.1, SVG Export Plug-In . SVG Version: 6.00 Build 0)  -->
<svg version="1.1" id="Layer_1" xmlns="http://www.w3.org/2000/svg" xmlns:xlink="http://www.w3.org/1999/xlink" x="0px" y="0px"
	 viewBox="0 0 2131.8 915" style="enable-background:new 0 0 2131.8 915;" xml:space="preserve">
<style type="text/css">
	.st0{fill:#231F20;}
</style>
<path class="st0" d="M233.2,890.5c1.3-3.1,3.7-5.5,6.8-6.8c3.2-1.3,6.8-1.3,9.9,0c1.5,0.6,2.9,1.6,4.1,2.7c1.2,1.1,2.1,2.5,2.7,4
	c1.3,3.2,1.3,6.8,0,10c-1.3,3.1-3.8,5.5-6.8,6.8c-3.2,1.3-6.8,1.3-9.9,0c-1.5-0.6-2.9-1.6-4-2.8c-1.2-1.2-2.1-2.6-2.7-4.1
	C231.9,897.3,231.9,893.7,233.2,890.5L233.2,890.5z"/>
<path class="st0" d="M233,260.8c1.3-3.1,3.7-5.5,6.8-6.8c3.2-1.3,6.8-1.3,9.9,0c1.5,0.6,2.9,1.6,4.1,2.7c1.2,1.1,2.1,2.5,2.7,4
	c1.3,3.2,1.3,6.8,0,9.9c-1.3,3.1-3.8,5.5-6.8,6.8c-3.2,1.3-6.8,1.3-9.9,0c-1.5-0.6-2.9-1.6-4-2.8c-1.2-1.2-2.1-2.6-2.7-4.1
	C231.6,267.5,231.6,263.9,233,260.8L233,260.8z"/>
<path class="st0" d="M233,476.4c1.3-3.1,3.7-5.5,6.8-6.8c3.2-1.3,6.8-1.3,9.9,0c1.5,0.6,2.9,1.6,4.1,2.7c1.2,1.2,2.1,2.5,2.7,4
	c1.3,3.2,1.3,6.8,0,9.9c-1.3,3.1-3.8,5.5-6.8,6.8c-3.2,1.3-6.8,1.3-9.9,0c-1.5-0.6-2.9-1.6-4-2.8c-1.2-1.2-2.1-2.6-2.7-4.1
	C231.6,483.1,231.6,479.5,233,476.4L233,476.4z"/>
<path class="st0" d="M233.2,692.3c0.6-1.5,1.6-2.9,2.7-4c1.1-1.2,2.5-2.1,4-2.7c3.2-1.3,6.8-1.3,9.9,0c1.5,0.6,2.9,1.6,4.1,2.7
	c1.2,1.1,2.1,2.5,2.7,4c1.3,3.2,1.3,6.8,0,10c-0.7,1.5-1.6,2.9-2.7,4.1c-1.2,1.2-2.6,2.1-4.1,2.8c-4.8,2.1-10.3,1-14-2.8
	c-1.1-1.2-2-2.6-2.7-4.1C231.8,699.1,231.8,695.5,233.2,692.3z"/>
<path class="st0" d="M936.3,259.3c1.3-3.1,3.7-5.5,6.8-6.8c3.2-1.3,6.8-1.3,10,0c1.5,0.6,2.9,1.6,4.1,2.7c3.7,3.7,4.8,9.2,2.8,14
	c-1.3,3.1-3.8,5.5-6.8,6.8c-3.2,1.3-6.8,1.3-10,0c-1.5-0.7-2.9-1.6-4-2.8c-1.1-1.2-2.1-2.6-2.7-4.1C935,266.1,935,262.5,936.3,259.3
	L936.3,259.3z"/>
<path class="st0" d="M936.3,478c1.3-3,3.7-5.5,6.8-6.8c3.2-1.3,6.8-1.3,10,0c1.5,0.6,2.9,1.6,4.1,2.7c3.7,3.7,4.8,9.2,2.8,14
	c-1.3,3.1-3.8,5.5-6.8,6.8c-3.2,1.4-6.8,1.4-10,0c-1.5-0.6-2.9-1.6-4-2.8c-1.1-1.2-2.1-2.6-2.7-4.1C935,484.7,935,481.1,936.3,478
	L936.3,478z"/>
<path class="st0" d="M1170,260.7c1.3-3,3.7-5.5,6.8-6.8c3.2-1.3,6.8-1.3,10,0c1.5,0.6,2.9,1.6,4.1,2.7c3.7,3.7,4.8,9.2,2.8,14
	c-0.7,1.5-1.6,2.9-2.8,4.1c-1.2,1.2-2.6,2.1-4.1,2.8c-4.8,2-10.3,1-14-2.8c-1.1-1.2-2.1-2.6-2.7-4.1
	C1168.7,267.5,1168.7,263.9,1170,260.7L1170,260.7z"/>
<path class="st0" d="M1169.4,474.7c0.6-1.5,1.6-2.9,2.7-4c1.1-1.2,2.5-2.1,4-2.7c3.2-1.3,6.8-1.3,9.9,0c1.5,0.6,2.9,1.6,4.1,2.7
	c1.2,1.1,2.1,2.5,2.8,4c1.3,3.2,1.3,6.8,0,9.9c-1.3,3.1-3.8,5.5-6.8,6.8c-4.8,2.1-10.3,1-14-2.8c-1.2-1.2-2.1-2.6-2.7-4.1
	C1168,481.4,1168,477.9,1169.4,474.7L1169.4,474.7z"/>
<path class="st0" d="M1405.3,260.7c0.6-1.5,1.6-2.9,2.7-4c1.1-1.2,2.5-2.1,4-2.7c3.2-1.3,6.8-1.3,10,0c1.5,0.6,2.9,1.6,4.1,2.7
	c3.7,3.7,4.8,9.2,2.8,14c-1.3,3.1-3.8,5.5-6.8,6.8c-4.8,2-10.3,1-14-2.8c-1.1-1.2-2.1-2.6-2.7-4.1
	C1403.9,267.5,1403.9,263.9,1405.3,260.7L1405.3,260.7z"/>
<path class="st0" d="M1638.9,477.9c0.6-1.5,1.6-2.8,2.7-4c1.1-1.2,2.5-2.1,4-2.7c3.2-1.3,6.8-1.3,9.9,0c1.5,0.6,2.9,1.6,4.1,2.7
	c3.7,3.7,4.8,9.2,2.8,14c-0.6,1.5-1.6,2.9-2.8,4.1c-1.2,1.2-2.6,2.1-4.1,2.8c-4.8,2.1-10.3,1-14-2.8c-1.2-1.2-2.1-2.6-2.7-4.1
	C1637.5,484.7,1637.5,481.1,1638.9,477.9L1638.9,477.9z"/>
<path class="st0" d="M7.7,889.5c1.3-3.1,3.7-5.5,6.8-6.8c3.2-1.3,6.8-1.3,9.9,0c1.5,0.6,2.9,1.6,4.1,2.7c1.2,1.1,2.1,2.5,2.8,4
	c1.3,3.2,1.3,6.8,0,9.9c-1.3,3.1-3.8,5.5-6.8,6.8c-3.2,1.3-6.8,1.3-9.9,0c-1.5-0.6-2.9-1.6-4.1-2.8c-1.2-1.2-2.1-2.6-2.7-4.1
	C6.4,896.2,6.4,892.6,7.7,889.5L7.7,889.5z"/>
<path class="st0" d="M8.7,693.3c0.6-1.5,1.6-2.9,2.7-4c1.2-1.2,2.5-2.1,4.1-2.7c3.2-1.3,6.8-1.3,9.9,0c1.5,0.6,2.9,1.6,4.1,2.7
	c1.2,1.1,2.1,2.5,2.7,4c1.3,3.2,1.3,6.8,0,10c-0.7,1.5-1.6,2.9-2.7,4.1c-1.2,1.2-2.6,2.1-4.1,2.8c-4.8,2-10.3,1-14-2.8
	c-1.1-1.2-2.1-2.6-2.7-4.1C7.4,700.1,7.4,696.5,8.7,693.3L8.7,693.3z"/>
<path class="st0" d="M7.7,260.8c1.3-3.1,3.7-5.5,6.8-6.8c3.2-1.3,6.8-1.3,9.9,0c1.5,0.6,2.9,1.6,4.1,2.7c3.7,3.7,4.8,9.2,2.8,14
	c-0.7,1.5-1.6,2.9-2.8,4.1c-1.2,1.2-2.6,2.1-4.1,2.8c-3.2,1.3-6.8,1.3-9.9,0c-1.5-0.6-2.9-1.6-4.1-2.8c-1.1-1.2-2.1-2.6-2.7-4.1
	C6.4,267.5,6.4,264,7.7,260.8L7.7,260.8z"/>
<path class="st0" d="M7.7,476.2c1.3-3.1,3.7-5.5,6.8-6.8c3.2-1.3,6.8-1.3,9.9,0c1.5,0.6,2.9,1.6,4.1,2.7c1.2,1.1,2.1,2.5,2.8,4
	c1.3,3.2,1.3,6.8,0,10c-1.3,3.1-3.8,5.5-6.8,6.8c-3.2,1.3-6.8,1.3-9.9,0c-1.5-0.6-2.9-1.6-4.1-2.8c-1.1-1.2-2.1-2.6-2.7-4.1
	C6.4,483,6.4,479.3,7.7,476.2L7.7,476.2z"/>
<path class="st0" d="M1867.3,260.8c1.3-3,3.7-5.5,6.8-6.8c3.2-1.3,6.8-1.3,10,0c1.5,0.6,2.9,1.6,4.1,2.7c3.7,3.7,4.8,9.2,2.8,14
	c-1.3,3.1-3.8,5.5-6.8,6.8c-3.2,1.3-6.8,1.3-10,0c-1.5-0.6-2.9-1.6-4-2.8c-1.1-1.2-2.1-2.6-2.7-4.1
	C1866,267.5,1866,264,1867.3,260.8L1867.3,260.8z"/>
<path class="st0" d="M1866.2,477.9c1.3-3.1,3.7-5.5,6.8-6.8c3.2-1.3,6.8-1.3,10,0c1.5,0.6,2.9,1.6,4.1,2.7c1.2,1.1,2.1,2.5,2.8,4
	c1.3,3.2,1.3,6.8,0,9.9c-1.3,3.1-3.8,5.5-6.8,6.8c-3.2,1.3-6.8,1.3-10,0c-1.5-0.7-2.9-1.6-4-2.8c-1.2-1.2-2.1-2.6-2.7-4.1
	C1864.9,484.6,1864.9,481,1866.2,477.9L1866.2,477.9z"/>
<path class="st0" d="M2097.8,697.3c1.3-3.1,3.7-5.5,6.8-6.8c3.2-1.3,6.8-1.3,9.9,0c1.5,0.6,2.9,1.6,4.1,2.7c3.7,3.7,4.8,9.2,2.8,14
	c-0.6,1.5-1.6,2.9-2.8,4.1c-1.2,1.2-2.6,2.1-4.1,2.8c-4.8,2.1-10.3,1-14-2.8c-1.2-1.2-2.1-2.6-2.7-4.1
	C2096.5,704.1,2096.5,700.5,2097.8,697.3L2097.8,697.3z"/>
<path class="st0" d="M2097.8,260.8c1.3-3,3.7-5.5,6.8-6.8c3.2-1.3,6.8-1.3,9.9,0c1.5,0.6,2.9,1.6,4.1,2.7c3.7,3.7,4.8,9.2,2.8,14
	c-0.6,1.5-1.6,2.9-2.8,4.1c-1.2,1.2-2.6,2.1-4.1,2.8c-4.8,2-10.3,1-14-2.8c-1.2-1.2-2.1-2.6-2.7-4.1
	C2096.5,267.5,2096.5,264,2097.8,260.8L2097.8,260.8z"/>
<path class="st0" d="M2097.8,476.2c0.6-1.5,1.6-2.9,2.7-4c1.1-1.2,2.5-2.1,4-2.7c3.2-1.3,6.8-1.3,9.9,0c1.5,0.6,2.9,1.6,4.1,2.7
	c3.7,3.7,4.8,9.2,2.8,14c-0.6,1.5-1.6,2.9-2.8,4.1c-1.2,1.2-2.6,2.1-4.1,2.8c-3.2,1.3-6.8,1.3-9.9,0c-1.5-0.6-2.9-1.6-4-2.8
	c-1.2-1.2-2.1-2.6-2.7-4.1C2096.5,483,2096.5,479.4,2097.8,476.2z"/>
<path class="st0" d="M467.6,892.5c0.6-1.5,1.6-2.9,2.7-4c1.2-1.2,2.5-2.1,4-2.7c3.2-1.3,6.8-1.3,9.9,0c1.5,0.6,2.9,1.6,4.1,2.7
	c1.2,1.1,2.1,2.5,2.8,4c1.3,3.2,1.3,6.8,0,10c-0.7,1.5-1.6,2.9-2.8,4.1c-1.2,1.2-2.6,2.1-4.1,2.8c-3.2,1.3-6.8,1.3-9.9,0
	c-1.5-0.6-2.9-1.6-4-2.8c-1.1-1.2-2.1-2.6-2.7-4.1C466.3,899.3,466.3,895.7,467.6,892.5z"/>
<path class="st0" d="M470.6,477c0.6-1.5,1.6-2.9,2.7-4c1.1-1.2,2.5-2.1,4-2.7c3.2-1.3,6.8-1.3,10,0c1.5,0.6,2.9,1.6,4.1,2.7
	c1.2,1.1,2.1,2.5,2.8,4c1.3,3.2,1.3,6.8,0,10c-0.7,1.5-1.6,2.9-2.8,4.1c-1.2,1.2-2.6,2.1-4.1,2.8c-4.8,2-10.3,1-14-2.8
	c-1.2-1.2-2.1-2.6-2.7-4.1C469.2,483.8,469.2,480.2,470.6,477L470.6,477z"/>
<path class="st0" d="M233.2,13.7c0.6-1.5,1.6-2.9,2.7-4c1.1-1.2,2.5-2.1,4-2.7c3.2-1.3,6.8-1.3,9.9,0c1.5,0.6,2.9,1.6,4.1,2.7
	c1.2,1.1,2.1,2.5,2.7,4c1.3,3.2,1.3,6.8,0,9.9c-0.7,1.5-1.6,2.9-2.7,4.1c-1.2,1.2-2.6,2.1-4.1,2.8c-4.8,2.1-10.3,1-14-2.8
	c-1.2-1.2-2.1-2.6-2.7-4.1C231.8,20.5,231.8,16.9,233.2,13.7L233.2,13.7z"/>
<path class="st0" d="M935.5,14.6c1.3-3,3.7-5.5,6.8-6.8c3.2-1.3,6.8-1.3,10,0c1.5,0.6,2.9,1.6,4.1,2.7c3.7,3.7,4.8,9.2,2.8,14
	c-1.3,3.1-3.8,5.5-6.8,6.8c-3.2,1.3-6.8,1.3-10,0c-1.5-0.6-2.9-1.6-4-2.8c-1.1-1.2-2.1-2.6-2.7-4.1
	C934.2,21.3,934.2,17.7,935.5,14.6L935.5,14.6z"/>
<path class="st0" d="M1171,13.6c0.6-1.5,1.6-2.8,2.7-4c1.1-1.1,2.5-2.1,4-2.7c3.2-1.4,6.8-1.4,10,0c1.5,0.6,2.9,1.6,4.1,2.7
	c3.7,3.7,4.8,9.2,2.8,14c-0.7,1.5-1.6,2.9-2.8,4.1c-1.2,1.2-2.6,2.1-4.1,2.8c-3.2,1.3-6.8,1.3-10,0c-1.5-0.7-2.9-1.6-4-2.8
	c-1.1-1.2-2.1-2.6-2.7-4.1C1169.6,20.4,1169.6,16.8,1171,13.6z"/>
<path class="st0" d="M1404.4,14.6c0.6-1.5,1.6-2.9,2.7-4c1.1-1.2,2.5-2.1,4-2.7c3.2-1.3,6.8-1.3,9.9,0c1.5,0.6,2.9,1.6,4.1,2.7
	c3.7,3.7,4.8,9.2,2.8,14c-0.6,1.5-1.6,2.9-2.8,4.1c-1.2,1.2-2.6,2.1-4.1,2.8c-4.8,2-10.3,1-14-2.8c-1.1-1.2-2.1-2.6-2.7-4.1
	C1403,21.4,1403,17.8,1404.4,14.6L1404.4,14.6z"/>
<path class="st0" d="M1638.9,14.6c1.3-3,3.7-5.5,6.8-6.8c3.2-1.3,6.8-1.3,10,0c1.5,0.6,2.9,1.6,4.1,2.7c3.7,3.7,4.8,9.2,2.8,14
	c-0.6,1.5-1.6,2.9-2.8,4.1c-1.2,1.2-2.6,2.1-4.1,2.8c-4.8,2-10.3,1-14-2.8c-1.2-1.2-2.1-2.6-2.7-4.1
	C1637.5,21.3,1637.5,17.7,1638.9,14.6L1638.9,14.6z"/>
<path class="st0" d="M7.7,14.7c1.3-3.1,3.7-5.5,6.8-6.8c3.2-1.3,6.8-1.3,9.9,0c1.5,0.6,2.9,1.6,4.1,2.7c1.2,1.1,2.1,2.5,2.8,4
	c1.3,3.2,1.3,6.8,0,9.9c-1.3,3.1-3.8,5.5-6.8,6.8c-3.2,1.3-6.8,1.3-9.9,0c-1.5-0.6-2.9-1.6-4.1-2.8c-1.1-1.2-2.1-2.6-2.7-4.1
	C6.4,21.4,6.4,17.8,7.7,14.7L7.7,14.7z"/>
<path class="st0" d="M1865.3,14.7c0.7-1.5,1.6-2.8,2.7-4c1.1-1.2,2.5-2.1,4-2.7c3.2-1.3,6.8-1.3,10,0c1.5,0.6,2.9,1.6,4.1,2.7
	c2.4,2.4,3.8,5.6,3.8,9c0,1.7-0.3,3.4-1,5c-1.3,3.1-3.8,5.5-6.8,6.8c-4.8,2.1-10.3,1-14-2.8c-1.1-1.2-2.1-2.6-2.7-4.1
	C1863.9,21.5,1863.9,17.9,1865.3,14.7L1865.3,14.7z"/>
<path class="st0" d="M2096.8,12.7c1.3-3,3.7-5.5,6.8-6.8c3.2-1.3,6.8-1.3,9.9,0c1.5,0.6,2.9,1.6,4.1,2.7c3.7,3.7,4.8,9.2,2.8,14
	c-0.6,1.5-1.6,2.9-2.8,4.1c-1.2,1.2-2.6,2.1-4.1,2.8c-4.8,2.1-10.3,1-14-2.8c-1.2-1.2-2.1-2.6-2.7-4.1
	C2095.5,19.5,2095.5,15.9,2096.8,12.7L2096.8,12.7z"/>
<path class="st0" d="M467.6,14.7c1.3-3.1,3.7-5.5,6.8-6.8c3.2-1.3,6.8-1.3,9.9,0c1.5,0.6,2.9,1.6,4.1,2.7c1.2,1.1,2.1,2.5,2.8,4
	c1.3,3.2,1.3,6.8,0,9.9c-0.7,1.5-1.6,2.9-2.8,4.1c-1.2,1.2-2.6,2.1-4.1,2.8c-3.2,1.3-6.8,1.3-9.9,0c-1.5-0.6-2.9-1.6-4-2.8
	c-1.1-1.2-2.1-2.6-2.7-4.1C466.3,21.4,466.3,17.8,467.6,14.7L467.6,14.7z"/>
<path class="st0" d="M701.1,14.7c1.3-3,3.7-5.5,6.8-6.8c3.2-1.3,6.8-1.3,10,0c1.5,0.6,2.9,1.6,4.1,2.7c1.2,1.1,2.1,2.5,2.8,4
	c1.3,3.2,1.3,6.8,0,9.9c-1.3,3.1-3.8,5.5-6.8,6.8c-3.2,1.3-6.8,1.3-10,0c-1.5-0.7-2.9-1.6-4-2.8c-1.1-1.2-2.1-2.6-2.7-4.1
	C699.8,21.4,699.8,17.8,701.1,14.7L701.1,14.7z"/>
<path class="st0" d="M701.1,891.5c0.6-1.5,1.6-2.8,2.7-4c1.1-1.1,2.5-2.1,4-2.7c3.2-1.4,6.8-1.4,10,0c1.5,0.6,2.9,1.6,4.1,2.7
	c1.2,1.1,2.1,2.5,2.8,4c1.3,3.2,1.3,6.8,0,10c-0.7,1.5-1.6,2.9-2.8,4.1c-1.2,1.2-2.6,2.1-4.1,2.8c-3.2,1.3-6.8,1.3-10,0
	c-1.5-0.7-2.9-1.6-4-2.8c-1.1-1.2-2.1-2.6-2.7-4.1C699.7,898.3,699.7,894.7,701.1,891.5z"/>
<path class="st0" d="M701.9,260.8c1.3-3.1,3.7-5.5,6.8-6.8c3.2-1.3,6.8-1.3,10,0c1.5,0.6,2.9,1.6,4.1,2.7c1.2,1.1,2.1,2.5,2.8,4
	c1.3,3.2,1.3,6.8,0,9.9c-1.3,3.1-3.8,5.5-6.8,6.8c-3.2,1.3-6.8,1.3-10,0c-1.5-0.7-2.9-1.6-4-2.8c-1.2-1.2-2.1-2.6-2.7-4.1
	C700.6,267.5,700.6,263.9,701.9,260.8L701.9,260.8z"/>
<path class="st0" d="M1866.4,691.9c1.3-3.1,3.7-5.5,6.8-6.8c3.2-1.3,6.8-1.3,9.9,0c1.5,0.6,2.9,1.6,4.1,2.7c3.7,3.7,4.8,9.2,2.8,14
	c-1.3,3.1-3.8,5.5-6.8,6.8c-3.2,1.3-6.8,1.3-9.9,0c-1.5-0.6-2.9-1.6-4-2.8c-1.1-1.2-2.1-2.6-2.7-4.1
	C1865.1,698.7,1865.1,695.1,1866.4,691.9L1866.4,691.9z"/>
<path class="st0" d="M1639.7,691.9c1.3-3,3.7-5.5,6.8-6.8c3.2-1.3,6.8-1.3,9.9,0c1.5,0.6,2.9,1.6,4.1,2.7c3.7,3.7,4.8,9.2,2.8,14
	c-0.6,1.5-1.6,2.9-2.8,4.1c-1.2,1.2-2.6,2.1-4.1,2.8c-4.8,2-10.3,1-14-2.8c-1.2-1.2-2.1-2.6-2.7-4.1
	C1638.3,698.7,1638.3,695.1,1639.7,691.9L1639.7,691.9z"/>
<path class="st0" d="M1405.3,691.9c0.6-1.5,1.6-2.9,2.7-4c1.1-1.2,2.5-2.1,4-2.7c3.2-1.3,6.8-1.3,10,0c1.5,0.6,2.9,1.6,4.1,2.7
	c3.7,3.7,4.8,9.2,2.8,14c-0.6,1.5-1.6,2.9-2.8,4.1c-1.2,1.2-2.6,2.1-4.1,2.8c-4.8,2-10.3,1-14-2.8c-1.1-1.2-2.1-2.6-2.7-4.1
	C1403.9,698.7,1403.9,695.1,1405.3,691.9z"/>
<path class="st0" d="M467.6,691.3c0.6-1.5,1.6-2.9,2.7-4c1.2-1.2,2.5-2.1,4-2.7c3.2-1.3,6.8-1.3,9.9,0c1.5,0.6,2.9,1.6,4.1,2.7
	c1.2,1.1,2.1,2.5,2.8,4c1.3,3.2,1.3,6.8,0,10c-0.7,1.5-1.6,2.9-2.8,4.1c-1.2,1.2-2.6,2.1-4.1,2.8c-3.2,1.3-6.8,1.3-9.9,0
	c-1.5-0.6-2.9-1.6-4-2.8c-1.1-1.2-2.1-2.6-2.7-4.1C466.3,698.1,466.3,694.5,467.6,691.3z"/>
<path class="st0" d="M701.1,693.3c1.3-3,3.7-5.5,6.8-6.8c3.2-1.3,6.8-1.3,10,0c1.5,0.6,2.9,1.6,4.1,2.7c3.7,3.7,4.8,9.2,2.8,14
	c-1.3,3.1-3.8,5.5-6.8,6.8c-4.8,2.1-10.3,1-14-2.8c-1.1-1.2-2.1-2.6-2.7-4.1C699.7,700.1,699.7,696.4,701.1,693.3L701.1,693.3z"/>
<path class="st0" d="M491.7,252.6c-0.7-1.2-1.7-2.3-2.8-3.2c-1.1-0.9-2.4-1.6-3.8-2.1c-1.4-0.5-2.9-0.8-4.4-0.8
	c-2.5-0.1-5,0.5-7.2,1.6c-1.9,1.1-3.6,2.6-4.8,4.4c-1.3,1.9-2.2,4-2.7,6.3c-0.6,2.4-0.8,4.8-0.8,7.3c0,2.4,0.3,4.7,0.8,7
	c0.5,2.2,1.4,4.3,2.7,6.1c1.2,1.8,2.9,3.3,4.8,4.4c2.2,1.2,4.7,1.7,7.2,1.6c3.8,0,6.8-1.2,9-3.5c2.3-2.6,3.7-5.8,4-9.3h12.2
	c-0.3,3.3-1.1,6.6-2.5,9.7c-1.3,2.8-3.1,5.3-5.3,7.4c-2.2,2-4.8,3.6-7.7,4.6c-3.1,1.1-6.4,1.6-9.7,1.6c-4,0.1-8.1-0.7-11.8-2.3
	c-3.4-1.4-6.4-3.6-8.8-6.3c-2.4-2.7-4.3-5.9-5.5-9.4c-1.3-3.7-2-7.7-1.9-11.6c0-4,0.6-8.1,1.9-11.9c1.2-3.5,3.1-6.8,5.5-9.6
	c2.4-2.8,5.5-4.9,8.8-6.4c6.6-2.7,13.9-3.1,20.7-1c2.7,0.9,5.3,2.2,7.5,4c2.2,1.8,4.1,4,5.5,6.4c1.5,2.7,2.4,5.7,2.7,8.8h-12.2
	C492.9,255.1,492.5,253.8,491.7,252.6z"/>
<path class="st0" d="M730.7,505.5c-4.3,3.8-10.3,5.6-17.9,5.6c-7.7,0-13.7-1.9-18-5.6s-6.4-9.5-6.3-17.3v-35.5H701v35.5
	c0,1.5,0.1,3.1,0.4,4.6c0.5,3,2.5,5.6,5.2,6.8c1.9,0.8,4,1.2,6.1,1.1c4.5,0,7.6-1,9.3-3c1.7-2,2.6-5.1,2.6-9.4v-35.5h12.6v35.5
	C737.2,496,735,501.8,730.7,505.5z"/>
<path class="st0" d="M934.3,708.1c0.6,1.3,1.6,2.4,2.8,3.2c1.2,0.9,2.6,1.5,4,1.8c1.6,0.4,3.2,0.6,4.8,0.6c1.2,0,2.4-0.1,3.6-0.3
	c1.2-0.2,2.5-0.5,3.6-1.1c1.1-0.5,2-1.3,2.8-2.2c0.8-1,1.2-2.3,1.1-3.6c0.1-1.4-0.5-2.8-1.5-3.8c-1.1-1-2.4-1.9-3.9-2.4
	c-1.8-0.7-3.6-1.3-5.4-1.7c-2-0.5-4.1-1-6.2-1.6c-2.1-0.5-4.2-1.2-6.2-2c-1.9-0.7-3.8-1.7-5.4-3c-3.5-2.7-5.5-6.9-5.4-11.3
	c-0.1-2.7,0.6-5.3,1.9-7.6c1.2-2.1,2.9-4,4.9-5.4c2.1-1.5,4.4-2.6,6.9-3.2c2.5-0.7,5.1-1,7.7-1c2.9,0,5.8,0.3,8.6,1
	c2.6,0.6,5.1,1.7,7.3,3.2c2.1,1.5,3.9,3.4,5.1,5.7c1.3,2.6,2,5.5,1.9,8.4H955c0-1.5-0.4-2.9-1.1-4.2c-0.6-1.1-1.4-2-2.4-2.6
	c-1.1-0.7-2.3-1.1-3.5-1.4c-1.4-0.3-2.8-0.4-4.3-0.4c-1,0-2,0.1-3,0.3c-1,0.2-1.9,0.6-2.8,1.1c-0.8,0.5-1.5,1.2-2,2
	c-0.6,0.9-0.8,1.9-0.8,3c0,0.9,0.2,1.9,0.6,2.7c0.6,0.9,1.5,1.5,2.5,1.9c1.7,0.7,3.4,1.3,5.2,1.8c2.2,0.6,5.1,1.3,8.7,2.2
	c1.1,0.2,2.6,0.6,4.4,1.2c2,0.6,3.9,1.5,5.6,2.7c1.9,1.3,3.6,3,4.8,4.9c1.4,2.4,2.1,5.1,2,7.9c0,2.5-0.5,5-1.5,7.3
	c-1,2.3-2.6,4.2-4.5,5.8c-2.2,1.7-4.7,3-7.4,3.8c-3.3,1-6.8,1.4-10.3,1.4c-3.1,0-6.1-0.4-9.1-1.2c-2.8-0.7-5.5-1.9-7.8-3.6
	c-2.3-1.7-4.1-3.8-5.4-6.3c-1.4-2.8-2-6-1.9-9.1h12.2C933.2,704.9,933.5,706.6,934.3,708.1z"/>
<path class="st0" d="M1157.8,682.2v-10.6h46.8v10.6h-17.1v46.6h-12.6v-46.6H1157.8z"/>
<path class="st0" d="M1391,469.3c1.2-3.5,3.1-6.8,5.5-9.6c2.4-2.8,5.5-4.9,8.8-6.4c7.6-3.1,16.1-3.1,23.6,0c3.4,1.5,6.4,3.7,8.8,6.4
	c2.4,2.8,4.3,6,5.5,9.6c1.3,3.8,2,7.8,1.9,11.9c0,4-0.6,7.9-1.9,11.6c-1.2,3.5-3.1,6.7-5.5,9.4c-2.4,2.7-5.4,4.8-8.8,6.3
	c-7.6,3-16.1,3-23.6,0c-3.4-1.4-6.4-3.6-8.8-6.3c-2.4-2.7-4.3-5.9-5.5-9.4c-1.3-3.7-2-7.7-1.9-11.6
	C1389.1,477.1,1389.7,473.1,1391,469.3z M1402.5,488.2c0.5,2.2,1.4,4.3,2.7,6.1c1.2,1.8,2.9,3.3,4.8,4.4c4.6,2.2,9.8,2.2,14.4,0
	c1.9-1,3.6-2.5,4.8-4.4c1.3-1.9,2.2-3.9,2.7-6.1c0.6-2.3,0.8-4.6,0.8-7c0-2.5-0.3-4.9-0.8-7.3c-0.5-2.2-1.4-4.4-2.7-6.3
	c-1.2-1.8-2.9-3.3-4.8-4.4c-4.6-2.2-9.8-2.2-14.4,0c-1.9,1.1-3.6,2.6-4.8,4.4c-1.3,1.9-2.2,4-2.7,6.3c-0.6,2.4-0.8,4.8-0.8,7.3
	C1401.6,483.5,1401.9,485.9,1402.5,488.2L1402.5,488.2z"/>
<path class="st0" d="M1638.4,237.2l13.4,39.3h0.2l12.6-39.3h17.7v57.1h-11.8v-40.5h-0.2l-14,40.5h-9.7l-14-40.1h-0.2v40.1h-11.8
	v-57.1H1638.4z"/>
</svg>
