<?xml version="1.0" encoding="utf-8"?>
<!-- Generator: Adobe Illustrator 22.0.1, SVG Export Plug-In . SVG Version: 6.00 Build 0)  -->
<svg version="1.1" id="Layer_1" xmlns="http://www.w3.org/2000/svg" xmlns:xlink="http://www.w3.org/1999/xlink" x="0px" y="0px"
	 viewBox="0 0 2130.2 913.6" style="enable-background:new 0 0 2130.2 913.6;" xml:space="preserve">
<style type="text/css">
	.st0{fill:#231F20;}
</style>
<path class="st0" d="M470.5,691.1c0.6-1.5,1.6-2.9,2.7-4c1.1-1.2,2.5-2.1,4-2.7c3.2-1.3,6.8-1.3,10,0c1.5,0.6,2.9,1.6,4.1,2.7
	c1.2,1.1,2.1,2.5,2.8,4c1.3,3.2,1.3,6.8,0,10c-0.7,1.5-1.6,2.9-2.8,4.1c-1.2,1.2-2.6,2.1-4.1,2.8c-4.8,2-10.3,1-14-2.8
	c-1.2-1.2-2.1-2.6-2.7-4.1C469.1,697.9,469.1,694.3,470.5,691.1L470.5,691.1z"/>
<path class="st0" d="M470.5,14.4c0.6-1.5,1.6-2.9,2.7-4c1.1-1.2,2.5-2.1,4-2.7c3.2-1.3,6.8-1.3,10,0c1.5,0.6,2.9,1.6,4.1,2.7
	c1.2,1.1,2.1,2.5,2.8,4c1.3,3.2,1.3,6.8,0,10c-0.7,1.5-1.6,2.9-2.8,4.1c-1.2,1.2-2.6,2.1-4.1,2.8c-4.8,2.1-10.3,1-14-2.8
	c-1.2-1.2-2.1-2.6-2.7-4.1C469.1,21.2,469.1,17.6,470.5,14.4L470.5,14.4z"/>
<path class="st0" d="M1173.8,691.1c1.3-3.1,3.7-5.5,6.8-6.8c3.2-1.3,6.8-1.3,9.9,0c1.5,0.6,2.9,1.6,4.1,2.7c3.7,3.7,4.8,9.2,2.8,14
	c-1.3,3.1-3.8,5.5-6.8,6.8c-3.2,1.3-6.8,1.3-9.9,0c-1.5-0.6-2.9-1.6-4-2.8c-1.1-1.2-2.1-2.6-2.7-4.1
	C1172.5,697.9,1172.5,694.3,1173.8,691.1L1173.8,691.1z"/>
<path class="st0" d="M1173.8,12.6c1.3-3.1,3.7-5.5,6.8-6.8c3.2-1.3,6.8-1.3,9.9,0c1.5,0.6,2.9,1.6,4.1,2.7c1.2,1.1,2.1,2.5,2.8,4
	c1.3,3.2,1.3,6.8,0,9.9c-1.3,3.1-3.8,5.5-6.8,6.8c-4.8,2-10.3,1-14-2.8c-1.1-1.2-2.1-2.6-2.7-4.1
	C1172.5,19.3,1172.5,15.7,1173.8,12.6L1173.8,12.6z"/>
<path class="st0" d="M1408.3,14.2c1.3-3,3.7-5.5,6.8-6.8c3.2-1.3,6.8-1.3,10,0c1.5,0.6,2.9,1.6,4.1,2.7c3.7,3.7,4.8,9.2,2.8,14
	c-1.3,3.1-3.8,5.5-6.8,6.8c-3.2,1.4-6.8,1.4-10,0c-1.5-0.6-2.9-1.6-4-2.8c-1.1-1.2-2.1-2.6-2.7-4.1C1407,21,1407,17.4,1408.3,14.2
	L1408.3,14.2z"/>
<path class="st0" d="M1642.7,14.2c1.3-3,3.7-5.5,6.8-6.8c3.2-1.3,6.8-1.3,10,0c1.5,0.6,2.9,1.6,4.1,2.7c3.7,3.7,4.8,9.2,2.8,14
	c-1.3,3.1-3.8,5.5-6.8,6.8c-3.2,1.4-6.8,1.4-10,0c-1.5-0.6-2.9-1.6-4-2.8c-1.1-1.2-2.1-2.6-2.7-4.1
	C1641.4,21,1641.4,17.4,1642.7,14.2L1642.7,14.2z"/>
<path class="st0" d="M1869.5,260.1c1.3-3.1,3.7-5.5,6.8-6.8c3.2-1.4,6.8-1.4,10,0c1.5,0.6,2.9,1.6,4.1,2.7c1.2,1.2,2.1,2.5,2.8,4
	c1.3,3.2,1.3,6.8,0,10c-1.3,3.1-3.8,5.5-6.8,6.8c-4.8,2.1-10.3,1-14-2.8c-1.2-1.2-2.1-2.6-2.7-4.1
	C1868.2,266.9,1868.2,263.3,1869.5,260.1L1869.5,260.1z"/>
<path class="st0" d="M1869.5,14.4c0.6-1.5,1.6-2.9,2.7-4c1.1-1.2,2.5-2.1,4-2.7c3.2-1.3,6.8-1.3,10,0c1.5,0.6,2.9,1.6,4.1,2.7
	c1.2,1.1,2.1,2.5,2.8,4c1.3,3.2,1.3,6.8,0,10c-0.7,1.5-1.6,2.9-2.8,4.1c-1.2,1.2-2.6,2.1-4.1,2.8c-4.8,2.1-10.3,1-14-2.8
	c-1.2-1.2-2.1-2.6-2.7-4.1C1868.2,21.2,1868.2,17.6,1869.5,14.4z"/>
<path class="st0" d="M236,12.6c1.3-3,3.7-5.5,6.8-6.8c3.2-1.3,6.8-1.3,10,0c1.5,0.6,2.9,1.6,4.1,2.7c3.7,3.7,4.8,9.2,2.8,14
	c-0.6,1.5-1.6,2.9-2.8,4.1c-1.2,1.2-2.6,2.1-4.1,2.8c-4.8,2.1-10.3,1-14-2.8c-1.2-1.2-2.1-2.6-2.7-4.1
	C234.7,19.3,234.7,15.8,236,12.6L236,12.6z"/>
<path class="st0" d="M10.4,260.3c0.6-1.5,1.6-2.9,2.7-4c1.1-1.2,2.5-2.1,4-2.7c3.2-1.4,6.8-1.4,10,0c1.5,0.6,2.9,1.6,4.1,2.7
	c3.7,3.7,4.8,9.2,2.7,14c-0.6,1.5-1.6,2.9-2.8,4.1c-1.2,1.2-2.6,2.1-4.1,2.8c-4.8,2.1-10.3,1-14-2.8c-1.1-1.2-2.1-2.6-2.7-4.1
	C9.1,267.1,9.1,263.5,10.4,260.3z"/>
<path class="st0" d="M10.4,475.7c0.6-1.5,1.6-2.9,2.7-4c1.1-1.2,2.5-2.1,4-2.7c3.2-1.3,6.8-1.3,10,0c1.5,0.6,2.9,1.6,4.1,2.7
	c3.7,3.7,4.8,9.2,2.7,14c-1.3,3.1-3.8,5.5-6.8,6.8c-4.8,2-10.3,1-14-2.8c-1.1-1.2-2.1-2.6-2.7-4.1C9.1,482.5,9.1,478.9,10.4,475.7z"
	/>
<path class="st0" d="M10.4,12.6c1.3-3,3.7-5.5,6.8-6.8c3.2-1.3,6.8-1.3,10,0c1.5,0.6,2.9,1.6,4.1,2.7c3.7,3.7,4.8,9.2,2.8,14
	c-0.6,1.5-1.6,2.9-2.8,4.1c-1.2,1.2-2.6,2.1-4.1,2.8c-4.8,2.1-10.3,1-14-2.8c-1.1-1.2-2.1-2.6-2.7-4.1C9.1,19.3,9.1,15.8,10.4,12.6
	L10.4,12.6z"/>
<path class="st0" d="M10.4,691.1c0.6-1.5,1.6-2.9,2.7-4c1.1-1.2,2.5-2.1,4-2.7c3.2-1.3,6.8-1.3,10,0c1.5,0.6,2.9,1.6,4.1,2.7
	c3.7,3.7,4.8,9.2,2.7,14c-0.6,1.5-1.6,2.9-2.8,4.1c-1.2,1.2-2.6,2.1-4.1,2.8c-4.8,2-10.3,1-14-2.8c-1.1-1.2-2.1-2.6-2.7-4.1
	C9.1,697.9,9.1,694.3,10.4,691.1z"/>
<path class="st0" d="M2100.6,475.7c1.3-3,3.7-5.5,6.8-6.8c3.2-1.3,6.8-1.3,9.9,0c1.5,0.6,2.9,1.6,4.1,2.7c3.7,3.7,4.8,9.2,2.8,14
	c-0.7,1.5-1.6,2.9-2.8,4.1c-1.2,1.2-2.6,2.1-4.1,2.8c-4.8,2-10.3,1-14-2.8c-1.1-1.2-2.1-2.6-2.7-4.1
	C2099.3,482.4,2099.3,478.8,2100.6,475.7L2100.6,475.7z"/>
<path class="st0" d="M2100.6,260.3c0.6-1.5,1.6-2.9,2.7-4c1.1-1.1,2.5-2.1,4-2.7c3.2-1.3,6.8-1.3,9.9,0c1.5,0.6,2.9,1.6,4.1,2.7
	c3.7,3.7,4.8,9.2,2.8,14c-1.3,3.1-3.8,5.5-6.8,6.8c-3.2,1.3-6.8,1.3-9.9,0c-1.5-0.7-2.9-1.6-4-2.8c-1.1-1.2-2.1-2.6-2.7-4.1
	C2099.3,267.1,2099.3,263.5,2100.6,260.3L2100.6,260.3z"/>
<path class="st0" d="M2100.6,14.4c1.3-3,3.7-5.5,6.8-6.8c3.2-1.3,6.8-1.3,9.9,0c1.5,0.6,2.9,1.6,4.1,2.7c3.7,3.7,4.8,9.2,2.8,14
	c-1.3,3.1-3.8,5.5-6.8,6.8c-4.8,2.1-10.3,1-14-2.8c-1.1-1.2-2.1-2.6-2.7-4.1C2099.3,21.2,2099.3,17.6,2100.6,14.4L2100.6,14.4z"/>
<path class="st0" d="M704.9,14.3c0.6-1.5,1.6-2.9,2.7-4.1c1.1-1.2,2.5-2.1,4-2.7c3.2-1.3,6.8-1.3,9.9,0c1.5,0.6,2.9,1.6,4.1,2.7
	c1.2,1.2,2.1,2.5,2.8,4.1c1.3,3.2,1.3,6.8,0,9.9c-0.7,1.5-1.6,2.9-2.8,4.1c-1.2,1.2-2.6,2.1-4.1,2.8c-3.2,1.3-6.8,1.3-9.9,0
	c-1.5-0.6-2.9-1.6-4-2.8c-1.2-1.2-2.1-2.6-2.7-4.1C703.6,21.1,703.6,17.5,704.9,14.3z"/>
<path class="st0" d="M236,475.5c1.3-3.1,3.7-5.5,6.8-6.8c3.2-1.3,6.8-1.3,10,0c1.5,0.6,2.9,1.6,4.1,2.7c3.7,3.7,4.8,9.2,2.8,14
	c-0.6,1.5-1.6,2.9-2.8,4.1c-1.2,1.2-2.6,2.1-4.1,2.8c-4.8,2.1-10.3,1-14-2.8c-1.2-1.2-2.1-2.6-2.7-4.1
	C234.7,482.3,234.7,478.7,236,475.5L236,475.5z"/>
<path class="st0" d="M236,691.1c1.3-3,3.7-5.5,6.8-6.8c3.2-1.3,6.8-1.3,10,0c1.5,0.6,2.9,1.6,4.1,2.7c3.7,3.7,4.8,9.2,2.8,14
	c-0.6,1.5-1.6,2.9-2.8,4.1c-1.2,1.2-2.5,2.1-4,2.7c-4.8,2-10.3,1-14-2.8c-1.2-1.2-2.1-2.6-2.7-4.1
	C234.7,697.8,234.7,694.2,236,691.1L236,691.1z"/>
<path class="st0" d="M704.9,691c0.6-1.5,1.6-2.9,2.7-4c1.1-1.2,2.5-2.1,4-2.7c3.2-1.3,6.8-1.3,9.9,0c1.5,0.6,2.9,1.6,4.1,2.7
	c1.2,1.1,2.1,2.5,2.8,4c1.3,3.2,1.3,6.8,0,9.9c-0.7,1.5-1.6,2.9-2.8,4.1c-1.2,1.2-2.6,2.1-4.1,2.8c-3.2,1.3-6.8,1.3-9.9,0
	c-1.5-0.6-2.9-1.6-4-2.8c-1.2-1.2-2.1-2.6-2.7-4.1C703.6,697.7,703.6,694.2,704.9,691z"/>
<path class="st0" d="M939.4,691.1c1.3-3.1,3.7-5.5,6.8-6.8c3.2-1.3,6.8-1.3,9.9,0c1.5,0.6,2.9,1.6,4.1,2.7c3.7,3.7,4.8,9.2,2.8,14
	c-0.7,1.5-1.6,2.9-2.8,4.1c-1.2,1.2-2.6,2.1-4.1,2.8c-3.2,1.3-6.8,1.3-9.9,0c-1.5-0.6-2.9-1.6-4-2.8c-1.1-1.2-2.1-2.6-2.7-4.1
	C938.1,697.9,938.1,694.3,939.4,691.1L939.4,691.1z"/>
<path class="st0" d="M1408.3,691.1c1.3-3,3.7-5.5,6.8-6.8c3.2-1.3,6.8-1.3,10,0c1.5,0.6,2.9,1.6,4.1,2.7c3.7,3.7,4.8,9.2,2.8,14
	c-1.3,3.1-3.8,5.5-6.8,6.8c-3.2,1.3-6.8,1.3-10,0c-1.5-0.6-2.9-1.6-4-2.8c-1.1-1.2-2.1-2.6-2.7-4.1
	C1407,697.9,1407,694.3,1408.3,691.1L1408.3,691.1z"/>
<path class="st0" d="M2100.6,696.2c1.3-3.1,3.7-5.5,6.8-6.8c3.2-1.3,6.8-1.3,9.9,0c1.5,0.6,2.9,1.6,4.1,2.7c3.7,3.7,4.8,9.2,2.8,14
	c-1.3,3.1-3.8,5.5-6.8,6.8c-3.2,1.3-6.8,1.3-9.9,0c-1.5-0.7-2.9-1.6-4-2.8c-1.2-1.2-2.1-2.6-2.7-4.1
	C2099.3,703,2099.3,699.4,2100.6,696.2L2100.6,696.2z"/>
<path class="st0" d="M1642.7,691.1c1.3-3,3.7-5.5,6.8-6.8c3.2-1.3,6.8-1.3,10,0c1.5,0.6,2.9,1.6,4.1,2.7c3.7,3.7,4.8,9.2,2.8,14
	c-1.3,3.1-3.8,5.5-6.8,6.8c-3.2,1.3-6.8,1.3-10,0c-1.5-0.6-2.9-1.6-4-2.8c-1.1-1.2-2.1-2.6-2.7-4.1
	C1641.4,697.9,1641.4,694.3,1642.7,691.1L1642.7,691.1z"/>
<path class="st0" d="M1869.5,691.1c0.6-1.5,1.6-2.9,2.7-4c1.1-1.2,2.5-2.1,4-2.7c3.2-1.3,6.8-1.3,10,0c1.5,0.6,2.9,1.6,4.1,2.7
	c1.2,1.1,2.1,2.5,2.8,4c1.3,3.2,1.3,6.8,0,10c-0.7,1.5-1.6,2.9-2.8,4.1c-1.2,1.2-2.6,2.1-4.1,2.8c-4.8,2-10.3,1-14-2.8
	c-1.2-1.2-2.1-2.6-2.7-4.1C1868.2,697.9,1868.2,694.3,1869.5,691.1z"/>
<path class="st0" d="M470.5,891c0.6-1.5,1.6-2.9,2.7-4c1.1-1.2,2.5-2.1,4-2.7c3.2-1.3,6.8-1.3,10,0c1.5,0.6,2.9,1.6,4.1,2.7
	c1.2,1.1,2.1,2.5,2.8,4c1.3,3.2,1.3,6.8,0,10c-0.7,1.5-1.6,2.9-2.8,4.1c-1.2,1.2-2.6,2.1-4.1,2.8c-4.8,2.1-10.3,1-14-2.8
	c-1.2-1.2-2.1-2.6-2.7-4.1C469.1,897.8,469.1,894.2,470.5,891L470.5,891z"/>
<path class="st0" d="M236,890.9c1.3-3.1,3.7-5.5,6.8-6.8c3.2-1.3,6.8-1.3,10,0c1.5,0.6,2.9,1.6,4.1,2.7c3.7,3.7,4.8,9.2,2.8,14
	c-0.6,1.5-1.6,2.9-2.8,4.1c-1.2,1.2-2.6,2.1-4.1,2.8c-4.8,2.1-10.3,1-14-2.8c-1.2-1.2-2.1-2.6-2.7-4.1
	C234.7,897.7,234.7,894.1,236,890.9L236,890.9z"/>
<path class="st0" d="M10.4,890.9c0.6-1.5,1.6-2.8,2.7-4c1.1-1.2,2.5-2.1,4-2.7c3.2-1.3,6.8-1.3,10,0c1.5,0.6,2.9,1.6,4.1,2.7
	c3.7,3.7,4.8,9.2,2.7,14c-0.6,1.5-1.6,2.9-2.8,4.1c-1.2,1.2-2.6,2.1-4.1,2.8c-4.8,2.1-10.3,1-14-2.8c-1.1-1.2-2.1-2.6-2.7-4.1
	C9.1,897.7,9.1,894.2,10.4,890.9L10.4,890.9z"/>
<path class="st0" d="M704.9,891c0.6-1.5,1.6-2.9,2.7-4c1.1-1.2,2.5-2.1,4-2.7c3.2-1.3,6.8-1.3,9.9,0c1.5,0.6,2.9,1.6,4.1,2.7
	c1.2,1.1,2.1,2.5,2.8,4c1.3,3.2,1.3,6.8,0,10c-0.7,1.5-1.6,2.9-2.8,4.1c-1.2,1.2-2.6,2.1-4.1,2.8c-4.8,2.1-10.3,1-14-2.8
	c-1.2-1.2-2.1-2.6-2.7-4.1C703.5,897.8,703.5,894.2,704.9,891L704.9,891z"/>
<path class="st0" d="M939.4,14.4c1.3-3.1,3.7-5.5,6.8-6.8c3.2-1.3,6.8-1.3,9.9,0c1.5,0.6,2.9,1.6,4.1,2.7c1.2,1.1,2.1,2.5,2.8,4
	c1.3,3.2,1.3,6.8,0,10c-0.7,1.5-1.6,2.9-2.8,4.1c-1.2,1.2-2.6,2.1-4.1,2.8c-4.8,2-10.3,1-14-2.8c-1.1-1.2-2.1-2.6-2.7-4.1
	C938,21.2,938,17.5,939.4,14.4L939.4,14.4z"/>
<path class="st0" d="M260.3,251.8c-0.8-1.2-1.7-2.3-2.8-3.2c-2.3-1.9-5.2-2.9-8.2-2.9c-2.5-0.1-5,0.5-7.2,1.6
	c-1.9,1.1-3.6,2.6-4.8,4.4c-1.3,1.9-2.2,4-2.7,6.3c-0.6,2.4-0.8,4.8-0.8,7.3c0,2.4,0.3,4.7,0.8,7c0.5,2.2,1.4,4.3,2.7,6.1
	c1.2,1.8,2.9,3.3,4.8,4.4c2.2,1.2,4.7,1.7,7.2,1.6c3.8,0,6.8-1.2,9-3.5c2.3-2.6,3.7-5.8,4-9.3h12.2c-0.3,3.3-1.1,6.6-2.5,9.7
	c-1.3,2.8-3.1,5.3-5.3,7.4c-2.2,2-4.8,3.6-7.7,4.6c-3.1,1.1-6.4,1.6-9.7,1.6c-4,0.1-8.1-0.7-11.8-2.3c-3.4-1.4-6.4-3.6-8.8-6.3
	c-2.4-2.7-4.3-5.9-5.5-9.4c-1.3-3.7-2-7.7-1.9-11.6c-0.1-4.1,0.6-8.1,1.9-11.9c1.2-3.5,3.1-6.8,5.5-9.6c2.4-2.8,5.5-4.9,8.8-6.4
	c6.6-2.7,13.9-3.1,20.7-1c2.7,0.9,5.3,2.2,7.5,4c2.2,1.8,4.1,4,5.5,6.4c1.5,2.7,2.4,5.7,2.7,8.8h-12.1
	C261.6,254.4,261.1,253,260.3,251.8z"/>
<path class="st0" d="M470.7,236.8v21.9h23.1v-21.9h12.6v57.1h-12.6v-24.6h-23.1v24.6h-12.6v-57.1H470.7z"/>
<path class="st0" d="M690.5,253.5c1.2-3.5,3.1-6.8,5.5-9.6c2.4-2.8,5.5-4.9,8.8-6.4c7.6-3.1,16.1-3.1,23.6,0
	c3.4,1.5,6.4,3.7,8.8,6.4c2.4,2.8,4.3,6,5.5,9.6c1.3,3.8,2,7.9,1.9,11.9c0,4-0.6,7.9-1.9,11.6c-1.2,3.5-3.1,6.7-5.5,9.4
	c-2.4,2.7-5.4,4.8-8.8,6.3c-7.6,3-16.1,3-23.6,0c-3.4-1.4-6.4-3.6-8.8-6.3c-2.4-2.7-4.3-5.9-5.5-9.4c-1.3-3.7-2-7.7-1.9-11.6
	C688.6,261.3,689.2,257.3,690.5,253.5z M702,272.4c0.5,2.2,1.4,4.3,2.7,6.1c1.2,1.8,2.9,3.3,4.8,4.4c4.6,2.2,9.8,2.2,14.4,0
	c1.9-1.1,3.6-2.5,4.8-4.4c1.2-1.9,2.2-3.9,2.7-6.1c0.6-2.3,0.8-4.6,0.8-7c0-2.5-0.3-4.9-0.8-7.3c-0.5-2.2-1.4-4.4-2.7-6.3
	c-1.2-1.8-2.9-3.3-4.8-4.4c-4.6-2.2-9.8-2.2-14.4,0c-1.9,1.1-3.6,2.6-4.8,4.4c-1.3,1.9-2.2,4-2.7,6.3c-0.6,2.4-0.8,4.8-0.8,7.3
	C701.2,267.7,701.5,270.1,702,272.4L702,272.4z"/>
<path class="st0" d="M957.4,234.9c2.4,0,4.7,0.4,6.9,1.2c2,0.8,3.8,1.9,5.3,3.4c1.4,1.4,2.6,3.1,3.4,5c0.8,1.9,1.2,4,1.2,6.1
	c0.1,3-0.7,6.1-2.1,8.7c-1.6,2.6-4,4.6-6.9,5.6v0.2c1.4,0.4,2.7,1.1,3.8,2c1,0.9,1.9,1.9,2.5,3.1c0.7,1.3,1.1,2.6,1.4,4
	c0.3,1.4,0.5,2.9,0.6,4.3c0,0.9,0.1,2,0.2,3.2s0.1,2.5,0.3,3.8c0.1,1.2,0.3,2.4,0.6,3.6c0.2,1,0.7,2,1.3,2.9h-12.6
	c-0.8-2.1-1.2-4.3-1.3-6.5c-0.2-2.5-0.4-4.9-0.7-7.2c-0.4-3-1.3-5.2-2.7-6.6c-1.4-1.4-3.7-2.1-6.8-2.1h-12.6v22.3h-12.6v-57.2H957.4
	z M952.9,260.7c2.9,0,5-0.6,6.5-1.9c1.4-1.3,2.2-3.4,2.2-6.2s-0.7-4.8-2.2-6s-3.6-1.9-6.5-1.9h-13.8v16.1L952.9,260.7z"/>
<path class="st0" d="M1206.6,236.8v10.6h-30.2v12.2h27.7v9.8h-27.7v14h30.8v10.6h-43.4v-57.1H1206.6z"/>
<path class="st0" d="M1393.9,253.5c1.2-3.5,3.1-6.8,5.5-9.6c2.4-2.8,5.5-4.9,8.8-6.4c7.6-3.1,16.1-3.1,23.6,0
	c3.4,1.5,6.4,3.7,8.8,6.4c2.4,2.8,4.3,6,5.5,9.6c1.3,3.8,2,7.8,1.9,11.9c0,4-0.6,7.9-1.9,11.6c-1.2,3.5-3.1,6.7-5.5,9.4
	c-2.4,2.7-5.4,4.8-8.8,6.3c-7.6,3-16,3-23.6,0c-3.4-1.4-6.4-3.6-8.8-6.3c-2.4-2.7-4.3-5.9-5.5-9.4c-1.3-3.7-2-7.7-1.9-11.6
	C1391.9,261.3,1392.6,257.3,1393.9,253.5z M1405.4,272.4c0.5,2.2,1.4,4.3,2.7,6.1c1.2,1.8,2.9,3.3,4.8,4.4c4.6,2.2,9.9,2.2,14.4,0
	c1.9-1.1,3.6-2.5,4.8-4.4c1.2-1.9,2.2-3.9,2.7-6.1c0.6-2.3,0.8-4.6,0.8-7c0-2.5-0.3-4.9-0.8-7.3c-0.5-2.2-1.4-4.4-2.7-6.3
	c-1.2-1.8-2.9-3.3-4.8-4.4c-4.6-2.2-9.9-2.2-14.4,0c-1.9,1.1-3.6,2.6-4.8,4.4c-1.3,1.9-2.2,4-2.7,6.3c-0.6,2.4-0.9,4.8-0.8,7.3
	C1404.5,267.7,1404.8,270.1,1405.4,272.4L1405.4,272.4z"/>
<path class="st0" d="M492.1,508.7c-2.6,1.1-5.4,1.7-8.3,1.8c-4,0.1-8.1-0.7-11.8-2.3c-3.4-1.4-6.4-3.6-8.8-6.3
	c-2.4-2.7-4.3-5.9-5.5-9.4c-1.3-3.7-2-7.7-1.9-11.6c0-4,0.6-8.1,1.9-11.9c1.2-3.5,3.1-6.8,5.5-9.6c2.4-2.8,5.5-4.9,8.8-6.4
	c3.7-1.6,7.7-2.4,11.8-2.4c2.9,0,5.8,0.4,8.5,1.3c2.7,0.8,5.2,2.2,7.5,3.9c4.7,3.6,7.7,9.1,8.1,15h-12c-0.5-2.8-2.1-5.4-4.3-7.2
	c-2.2-1.6-5-2.5-7.8-2.4c-2.5-0.1-5,0.5-7.2,1.6c-1.9,1.1-3.6,2.6-4.8,4.4c-1.3,1.9-2.2,4-2.7,6.3c-0.6,2.4-0.8,4.8-0.8,7.3
	c0,2.4,0.3,4.7,0.8,7c0.5,2.2,1.4,4.3,2.7,6.1c1.2,1.8,2.9,3.3,4.8,4.4c2.2,1.2,4.7,1.7,7.2,1.6c4.2,0,7.4-1.1,9.6-3.2
	c2.3-2.1,3.6-5.2,4-9.2h-12.7v-9.4h24v30.9h-8l-1.3-6.5C497.6,505.3,495,507.4,492.1,508.7z"/>
<path class="st0" d="M722.9,452c2.4,0,4.7,0.4,6.9,1.2c2,0.8,3.8,1.9,5.3,3.4c1.5,1.4,2.6,3.1,3.4,5c0.8,1.9,1.2,4,1.2,6.1
	c0.1,3-0.7,6.1-2.1,8.7c-1.6,2.6-4,4.6-6.9,5.6v0.2c1.4,0.4,2.7,1.1,3.8,2c1,0.9,1.9,1.9,2.5,3.1c0.7,1.3,1.1,2.6,1.4,4
	c0.3,1.4,0.5,2.9,0.6,4.3c0,0.9,0.1,2,0.2,3.2s0.1,2.5,0.3,3.8c0.1,1.2,0.3,2.4,0.6,3.6c0.2,1,0.7,2,1.3,2.9h-12.5
	c-0.8-2.1-1.2-4.3-1.3-6.5c-0.2-2.5-0.4-4.9-0.7-7.2c-0.4-3-1.3-5.2-2.7-6.6s-3.6-2.1-6.8-2.1h-12.6v22.3h-12.6V452H722.9z
	 M718.4,477.8c2.9,0,5-0.6,6.5-1.9s2.2-3.4,2.2-6.2c0-2.8-0.7-4.8-2.2-6c-1.4-1.3-3.6-1.9-6.5-1.9h-13.8v16.1L718.4,477.8z"/>
<path class="st0" d="M957.7,452l21.4,57.1h-13l-4.3-12.7h-21.4l-4.5,12.7h-12.6l21.6-57.1H957.7z M958.4,487l-7.2-21h-0.2l-7.4,21
	H958.4z"/>
<path class="st0" d="M1188.6,452c3.1-0.1,6.2,0.4,9.1,1.6c2.3,0.9,4.4,2.3,6.1,4.1c1.6,1.7,2.7,3.7,3.4,5.8c1.4,4.4,1.4,9.2,0,13.6
	c-0.7,2.2-1.9,4.2-3.4,5.9c-1.7,1.8-3.8,3.2-6.1,4.1c-2.9,1.1-6,1.6-9.1,1.6h-13.2v20.5h-12.6V452H1188.6z M1185.2,478.9
	c1.4,0,2.8-0.1,4.2-0.3c1.2-0.2,2.4-0.6,3.5-1.2c1-0.6,1.9-1.5,2.4-2.6c1.2-2.8,1.2-6,0-8.8c-0.6-1.1-1.4-2-2.4-2.6
	c-1.1-0.6-2.3-1.1-3.5-1.2c-1.4-0.2-2.8-0.3-4.2-0.3h-9.8v17.1H1185.2z"/>
<path class="st0" d="M1408.5,452v21.9h23.1V452h12.6v57.1h-12.6v-24.6h-23.1v24.6h-12.6V452H1408.5z"/>
<path class="st0" d="M1675.5,452v10.6h-30.2v12.2h27.7v9.8h-27.7v14h30.8v10.6h-43.4V452H1675.5z"/>
<path class="st0" d="M1880.6,452c3.5,0,7,0.6,10.3,1.8c3.1,1.1,5.9,2.9,8.2,5.3c2.4,2.5,4.3,5.5,5.4,8.8c1.4,4,2.1,8.2,2,12.4
	c0,3.9-0.5,7.8-1.6,11.5c-1,3.3-2.6,6.4-4.8,9.1c-2.2,2.6-5,4.6-8.1,6c-3.6,1.5-7.5,2.3-11.4,2.2H1856V452H1880.6z M1879.8,498.6
	c1.8,0,3.6-0.3,5.3-0.9c1.7-0.6,3.3-1.6,4.6-2.9c1.4-1.5,2.5-3.3,3.2-5.3c0.9-2.6,1.3-5.3,1.2-8c0-2.6-0.3-5.2-0.8-7.8
	c-0.5-2.2-1.4-4.2-2.8-6c-1.3-1.7-3.1-3-5.1-3.8c-2.5-0.9-5.1-1.4-7.8-1.3h-9v36H1879.8z"/>
<path class="st0" d="M1682.6,260.5v9.8h-56.2v-9.8H1682.6z"/>
</svg>
