<svg id="Layer_1" data-name="Layer 1" xmlns="http://www.w3.org/2000/svg" viewBox="0 0 511.41 41.48"><defs><style>.cls-1{fill:#231f20;}</style></defs><title>loader</title><path class="cls-1" d="M169.13,16.88a8.72,8.72,0,0,1,4.65-4.65,8.84,8.84,0,0,1,6.84,0,9.16,9.16,0,0,1,2.81,1.87,8.65,8.65,0,0,1,1.89,2.78,8.84,8.84,0,0,1,0,6.84,8.9,8.9,0,0,1-4.7,4.7,8.71,8.71,0,0,1-9.62-1.9,9.12,9.12,0,0,1-1.87-2.81,8.84,8.84,0,0,1,0-6.84Z"/><path class="cls-1" d="M494.52,14.32a8.72,8.72,0,0,1,4.65-4.65,8.84,8.84,0,0,1,6.84,0,9.16,9.16,0,0,1,2.81,1.87,8.65,8.65,0,0,1,1.89,2.78,8.84,8.84,0,0,1,0,6.84,8.9,8.9,0,0,1-4.7,4.7,8.71,8.71,0,0,1-9.62-1.9,9.12,9.12,0,0,1-1.87-2.81,8.84,8.84,0,0,1,0-6.84Z"/><path class="cls-1" d="M17.44,1.41a16.12,16.12,0,0,1,6.17,1.05,11.57,11.57,0,0,1,4.14,2.79,10.71,10.71,0,0,1,2.33,4,14.76,14.76,0,0,1,0,9.18,10.68,10.68,0,0,1-2.33,4,11.55,11.55,0,0,1-4.14,2.79,16.09,16.09,0,0,1-6.17,1.06H8.5V40.08H0V1.41Zm-2.33,18.2a17.65,17.65,0,0,0,2.82-.22,6.53,6.53,0,0,0,2.38-.84A4.57,4.57,0,0,0,22,16.79a6.19,6.19,0,0,0,.62-3,6.2,6.2,0,0,0-.62-3,4.58,4.58,0,0,0-1.65-1.76,6.59,6.59,0,0,0-2.38-.84A18,18,0,0,0,15.11,8H8.5V19.61Z"/><path class="cls-1" d="M332.59,30.58a6.14,6.14,0,0,0,1.87,2.19A8.06,8.06,0,0,0,337.19,34a12.92,12.92,0,0,0,3.25.41,16.9,16.9,0,0,0,2.44-.19,8.46,8.46,0,0,0,2.44-.73,5.3,5.3,0,0,0,1.9-1.49A3.74,3.74,0,0,0,348,29.6a3.4,3.4,0,0,0-1-2.55,8,8,0,0,0-2.63-1.63,26.15,26.15,0,0,0-3.68-1.14q-2.06-.49-4.17-1.08a36.83,36.83,0,0,1-4.22-1.33,14.48,14.48,0,0,1-3.68-2A9.57,9.57,0,0,1,326,16.74a9.45,9.45,0,0,1-1-4.52A10.12,10.12,0,0,1,326.22,7a11.52,11.52,0,0,1,3.33-3.66,14.52,14.52,0,0,1,4.66-2.17,19.87,19.87,0,0,1,5.2-.7,24.65,24.65,0,0,1,5.82.68,14.56,14.56,0,0,1,5,2.19,11.09,11.09,0,0,1,3.44,3.87A11.89,11.89,0,0,1,354.9,13h-8.23a6.86,6.86,0,0,0-.73-2.87,4.79,4.79,0,0,0-1.65-1.79,7,7,0,0,0-2.36-.92,14.47,14.47,0,0,0-2.9-.27,10,10,0,0,0-2.06.22,5.5,5.5,0,0,0-1.87.76,4.68,4.68,0,0,0-1.38,1.35,3.63,3.63,0,0,0-.54,2.06,3.47,3.47,0,0,0,.43,1.84,3.87,3.87,0,0,0,1.71,1.3,21.62,21.62,0,0,0,3.52,1.19q2.25.6,5.88,1.52,1.08.22,3,.79A14.45,14.45,0,0,1,351.54,20a11.59,11.59,0,0,1,3.28,3.33,9.48,9.48,0,0,1,1.38,5.33,11.82,11.82,0,0,1-1,4.93,10.7,10.7,0,0,1-3.06,3.93,14.7,14.7,0,0,1-5,2.57,23.81,23.81,0,0,1-7,.92,24.48,24.48,0,0,1-6.2-.79,15.59,15.59,0,0,1-5.31-2.47A12.16,12.16,0,0,1,325,33.45a12.77,12.77,0,0,1-1.3-6.18h8.23A7.09,7.09,0,0,0,332.59,30.58Z"/></svg>